<?xml version="1.0" encoding="utf-8"?>
<!-- Generator: Adobe Illustrator 17.0.0, SVG Export Plug-In . SVG Version: 6.00 Build 0)  -->
<!DOCTYPE svg PUBLIC "-//W3C//DTD SVG 1.1//EN" "http://www.w3.org/Graphics/SVG/1.1/DTD/svg11.dtd">
<svg version="1.1" id="Capa_1" xmlns="http://www.w3.org/2000/svg" xmlns:xlink="http://www.w3.org/1999/xlink" x="0px" y="0px"
	 width="512px" height="512px" viewBox="0 0 512 512" enable-background="new 0 0 512 512" xml:space="preserve">
<g>
	<g>
		<g id="XMLID_427_">
			<g>
				<path fill="#F79595" d="M499.031,259.087c8.702,1.714,14.37,10.148,12.666,18.84l-6.349,32.332
					c-1.755,8.95-10.633,14.69-19.593,12.491c-8.393-2.054-13.482-10.633-11.82-19.108l0.176-0.867l-41.85,1.91
					c-1.259,0.052-2.354,0.888-2.746,2.096c-4.088,12.346-9.466,24.115-15.98,35.119c-0.661,1.115-0.557,2.529,0.279,3.52
					l18.509,21.988c3.675-3.5,8.475-5.316,13.327-5.316c4.088,0,8.217,1.29,11.717,3.974c8.475,6.483,10.086,18.613,3.603,27.098
					l-5.368,7.009c-6.297,8.238-18.034,10.447-26.582,4.553c-7.36-5.069-10.024-14.184-7.36-22.102l-26.665-11.717
					c-1.208-0.526-2.601-0.217-3.479,0.754c-12.346,13.554-26.716,25.219-42.634,34.531c-1.094,0.64-1.683,1.879-1.476,3.128
					l6.824,41.623l5.905-2.364c8.475-3.386,18.117,0.95,21.142,9.673c2.829,8.166-1.61,17.095-9.631,20.295l-30.174,12.078
					c-8.465,3.386-18.107-0.95-21.131-9.673c-2.829-8.166,1.61-17.095,9.631-20.306l0.816-0.32l-24.342-34.108
					c-0.733-1.032-2.023-1.487-3.252-1.167c-14.545,3.768-29.803,5.791-45.535,5.791c-12.45,0-24.59-1.27-36.327-3.665
					c-1.239-0.248-2.509,0.279-3.19,1.342l-24.352,38.206l0.857,0.31c7.928,2.89,12.842,10.375,12.842,18.344
					c0,2.23-0.382,4.491-1.187,6.7c0,11.428-8.785,17.58-19.521,13.658l-29.927-10.912c-10.013-3.644-15.237-14.638-11.779-24.683
					c3.551-10.354,15.35-15.578,25.632-11.83l0.692,0.248l4.955-44.771c0.145-1.259-0.516-2.457-1.641-3.045
					c-18.953-9.786-35.955-22.824-50.274-38.381c-0.867-0.939-2.219-1.249-3.396-0.764l-36.523,14.979
					c4.129,7.722,1.807,17.508-5.729,22.463c-7.866,5.172-18.489,2.767-23.857-4.955l-9.353-13.472
					c-5.234-7.526-4.016-18.014,3.19-23.692c7.68-6.049,18.633-4.48,24.383,3.128l25.725-29.07c0.857-0.97,1.001-2.374,0.372-3.5
					c-10.561-19.036-17.787-40.178-20.894-62.63c-0.175-1.259-1.094-2.281-2.323-2.56l-41.107-9.497l-0.041,4.821
					c-0.041,4.821-2.023,9.188-5.213,12.336c-3.18,3.159-7.557,5.1-12.388,5.1c-9.601,0-17.374-7.835-17.281-17.436l0.268-29.865
					c0.083-9.766,8.155-17.993,17.911-17.735c9.466,0.248,17.023,8.031,16.971,17.529l40.807-9.57
					c1.239-0.289,2.158-1.311,2.323-2.57c3.2-23.743,11.015-46.031,22.504-65.934c0.64-1.115,0.526-2.509-0.31-3.5l-19.459-22.855
					l-1.693,2.23c-5.244,6.937-15.258,8.145-22.019,2.519c-6.338-5.285-7.113-14.762-2.137-21.338l12.966-17.136
					c3.014-3.974,7.587-6.07,12.223-6.07c3.21,0,6.452,1.012,9.219,3.097c6.411,4.842,7.918,13.74,3.685,20.409l27.212,11.768
					c1.197,0.516,2.581,0.206,3.469-0.754c12.842-14.081,27.883-26.118,44.586-35.584c1.094-0.63,1.703-1.858,1.518-3.107
					l-6.266-41.716l-5.946,2.292c-8.506,3.272-18.096-1.197-20.997-9.951c-2.725-8.207,1.838-17.074,9.9-20.171l30.329-11.665
					c8.517-3.272,18.096,1.187,20.997,9.951c2.725,8.197-1.827,17.064-9.9,20.171l-0.816,0.31l23.867,34.417
					c0.723,1.043,2.003,1.517,3.231,1.218c13.854-3.396,28.316-5.193,43.213-5.193h0.021c1.301,0,2.467-0.795,2.901-2.023
					l7.908-22.112c-9.157-2.87-15.258-11.903-14.091-21.751c1.332-11.159,12.016-19.087,23.175-17.684l10.86,1.363
					c11.066,1.394,19.366,11.304,18.158,22.401c-0.95,8.64-7.164,15.371-15.051,17.436l2.746,23.97
					c0.145,1.29,1.105,2.343,2.385,2.622c18.355,4.036,35.666,10.86,51.461,19.996c1.105,0.63,2.467,0.537,3.448-0.268
					l32.755-26.582l-4.976-3.954c-7.154-5.678-8.166-16.197-2.096-23.144c5.678-6.514,15.64-7.092,22.401-1.714l25.447,20.202
					c7.154,5.667,8.166,16.197,2.096,23.144c-5.678,6.504-15.64,7.082-22.401,1.714l-0.692-0.547l-17.539,38.082
					c-0.537,1.146-0.289,2.498,0.599,3.407c12.346,12.646,22.855,27.098,31.093,42.913c0.599,1.146,1.848,1.796,3.128,1.621
					l24.868-3.479c-3.654-10.199,1.765-21.503,12.192-24.92c9.941-3.262,20.657,2.261,24.311,12.068l5.729,15.361
					c3.613,9.714-0.723,20.832-10.22,24.961c-9.105,3.954-19.376,0.382-24.27-7.691l-20.636,13.998
					c-1.084,0.733-1.569,2.075-1.218,3.334c4.243,15.381,6.514,31.568,6.514,48.292c0,2.798-0.062,5.574-0.196,8.331
					c-0.052,1.27,0.661,2.436,1.817,2.942l38.691,16.899l1.218-6.245C481.905,263.051,490.339,257.383,499.031,259.087
					L499.031,259.087z"/>
			</g>
		</g>
		<ellipse fill="#EE6161" cx="336.256" cy="160.707" rx="25.556" ry="21.368"/>
		<circle fill="#EE6161" cx="244.032" cy="293.773" r="27.933"/>
		<circle fill="#F9B1B1" cx="352.897" cy="279.221" r="20"/>
		<circle fill="#F9B1B1" cx="279.033" cy="376.824" r="19.445"/>
		<g>
			<path fill="#F37C7C" d="M147.574,241.157c0-69.586,33.196-131.433,84.594-170.567c-6.001,0.846-11.925,1.99-17.725,3.413
				c-1.228,0.299-2.509-0.175-3.231-1.218l-23.867-34.417l0.816-0.31c8.073-3.107,12.625-11.975,9.9-20.171
				c-2.901-8.764-12.481-13.224-20.997-9.951l-30.329,11.665c-8.062,3.097-12.625,11.964-9.9,20.171
				c2.901,8.754,12.491,13.224,20.997,9.951l5.946-2.292l6.266,41.716c0.186,1.249-0.423,2.478-1.518,3.107
				c-16.703,9.466-31.744,21.503-44.586,35.584c-0.888,0.96-2.271,1.27-3.469,0.754L93.26,116.824
				c4.232-6.669,2.725-15.567-3.685-20.409c-2.767-2.085-6.008-3.097-9.219-3.097c-4.635,0-9.208,2.096-12.223,6.07l-12.966,17.136
				c-4.976,6.576-4.202,16.052,2.137,21.338c6.762,5.626,16.775,4.418,22.019-2.519l1.693-2.23l19.459,22.855
				c0.836,0.991,0.95,2.385,0.31,3.5c-11.49,19.903-19.304,42.191-22.504,65.934c-0.165,1.259-1.084,2.281-2.323,2.57l-40.807,9.57
				c0.052-9.497-7.505-17.281-16.971-17.529c-9.755-0.258-17.828,7.969-17.911,17.735l-0.268,29.865
				c-0.093,9.6,7.68,17.436,17.281,17.436c4.831,0,9.208-1.941,12.388-5.1c3.19-3.149,5.172-7.515,5.213-12.336l0.041-4.821
				l41.107,9.497c1.228,0.279,2.147,1.301,2.323,2.56c3.107,22.453,10.333,43.595,20.894,62.63c0.63,1.125,0.485,2.529-0.372,3.5
				l-25.725,29.07c-5.75-7.608-16.703-9.177-24.383-3.128c-7.206,5.678-8.424,16.166-3.19,23.692l9.353,13.472
				c5.368,7.722,15.991,10.127,23.857,4.955c7.536-4.955,9.859-14.741,5.729-22.463l36.523-14.979
				c1.177-0.485,2.529-0.176,3.396,0.764c14.318,15.557,31.32,28.595,50.274,38.381c1.125,0.588,1.786,1.786,1.641,3.045
				l-4.955,44.771l-0.692-0.248c-10.282-3.747-22.081,1.476-25.632,11.83c-3.458,10.044,1.765,21.039,11.779,24.683l29.927,10.912
				c10.736,3.923,19.521-2.23,19.521-13.658c0.805-2.209,1.187-4.47,1.187-6.7c0-7.969-4.914-15.454-12.842-18.344l-0.857-0.31
				l24.352-38.206c0.681-1.063,1.951-1.59,3.19-1.342c11.737,2.395,23.877,3.665,36.327,3.665c1.465,0,2.953-0.019,4.41-0.053
				C194.009,394.902,147.574,323.445,147.574,241.157L147.574,241.157z"/>
		</g>
		<circle fill="#EE6161" cx="157.364" cy="330.311" r="20.256"/>
		<g>
			<path fill="#F9B1B1" d="M307.278,241.157h-6.844c-4.277,0-7.742-3.467-7.742-7.742c0-4.276,3.465-7.742,7.742-7.742h6.844
				c4.277,0,7.742,3.467,7.742,7.742C315.02,237.691,311.555,241.157,307.278,241.157z"/>
		</g>
		<g>
			<path fill="#F9B1B1" d="M216.098,376.494h-7.032c-4.277,0-7.742-3.467-7.742-7.742c0-4.276,3.465-7.742,7.742-7.742h7.032
				c4.277,0,7.742,3.466,7.742,7.742C223.84,373.027,220.375,376.494,216.098,376.494z"/>
		</g>
		<g>
			<path fill="#EE6161" d="M143.881,263.742h-6.774c-4.277,0-7.742-3.467-7.742-7.742c0-4.276,3.465-7.742,7.742-7.742h6.774
				c4.277,0,7.742,3.466,7.742,7.742C151.623,260.276,148.157,263.742,143.881,263.742z"/>
		</g>
		<g>
			<path fill="#F9B1B1" d="M281.392,128.285h-9.427c-4.277,0-7.742-3.467-7.742-7.742c0-4.276,3.465-7.742,7.742-7.742h9.427
				c4.277,0,7.742,3.467,7.742,7.742C289.134,124.819,285.669,128.285,281.392,128.285z"/>
		</g>
		<g>
			<path fill="#EE6161" d="M343.307,351.29h-10.41c-4.277,0-7.742-3.467-7.742-7.742c0-4.276,3.465-7.742,7.742-7.742h10.41
				c4.277,0,7.742,3.466,7.742,7.742C351.049,347.823,347.583,351.29,343.307,351.29L343.307,351.29z"/>
		</g>
	</g>
	
		<ellipse transform="matrix(-0.6192 -0.7852 0.7852 -0.6192 177.0993 449.9392)" fill="#EE6161" cx="197.651" cy="182.027" rx="44.519" ry="53.307"/>
</g>
<g>
	
		<linearGradient id="SVGID_1_" gradientUnits="userSpaceOnUse" x1="29.5222" y1="269.6703" x2="178.3431" y2="120.8494" gradientTransform="matrix(1.0039 0 0 -1.0039 288.6726 593.5118)">
		<stop  offset="0" style="stop-color:#18CFFC"/>
		<stop  offset="1" style="stop-color:#4A98F7"/>
	</linearGradient>
	<circle fill="url(#SVGID_1_)" cx="378.004" cy="382.477" r="123.268"/>
	
		<linearGradient id="SVGID_2_" gradientUnits="userSpaceOnUse" x1="107.7493" y1="75.0264" x2="63.5677" y2="393.282" gradientTransform="matrix(1.0039 0 0 -1.0039 288.6726 593.5118)">
		<stop  offset="0" style="stop-color:#18CFFC;stop-opacity:0"/>
		<stop  offset="1" style="stop-color:#65E1DC"/>
	</linearGradient>
	<path fill="url(#SVGID_2_)" d="M464.8,317.641c-4.23-3.107-8.715-5.957-13.415-8.545c-2.588-4.7-5.438-9.186-8.545-13.415
		c-17.254-23.489-40.281-36.425-64.836-36.425c-24.556,0-47.582,12.936-64.836,36.425c-3.107,4.23-5.957,8.715-8.545,13.415
		c-4.7,2.588-9.185,5.438-13.415,8.545c-23.488,17.254-36.424,40.28-36.424,64.836s12.936,47.582,36.425,64.836
		c4.23,3.107,8.715,5.957,13.415,8.545c2.588,4.7,5.438,9.185,8.545,13.415c17.255,23.489,40.281,36.425,64.836,36.425
		c24.556,0,47.582-12.936,64.836-36.425c3.107-4.23,5.957-8.715,8.545-13.415c4.7-2.588,9.185-5.438,13.415-8.545
		c23.489-17.255,36.425-40.281,36.425-64.836S488.289,334.896,464.8,317.641z M378.004,499.897c-6.767,0-13.94-10.08-19.61-27.281
		c6.427,0.756,12.978,1.148,19.61,1.148s13.183-0.392,19.611-1.148C391.944,489.817,384.771,499.897,378.004,499.897z
		 M378.004,467.963c-7.332,0-14.507-0.496-21.47-1.437c-3.864-13.664-6.67-30.066-8.275-47.975
		c9.613,0.687,19.585,1.041,29.745,1.041s20.133-0.354,29.745-1.041c-1.605,17.908-4.411,34.31-8.275,47.975
		C392.511,467.467,385.336,467.963,378.004,467.963L378.004,467.963z M378.004,265.057c6.767,0,13.94,10.08,19.611,27.281
		c-6.427-0.756-12.978-1.148-19.611-1.148s-13.183,0.392-19.61,1.148C364.064,275.138,371.237,265.057,378.004,265.057z
		 M378.004,296.991c7.332,0,14.507,0.496,21.47,1.437c3.864,13.664,6.67,30.066,8.275,47.975
		c-9.613-0.687-19.586-1.041-29.745-1.041c-10.16,0-20.133,0.354-29.745,1.041c1.605-17.908,4.411-34.311,8.275-47.975
		C363.497,297.488,370.672,296.991,378.004,296.991L378.004,296.991z M346.689,382.477c0-10.343,0.373-20.478,1.092-30.223
		c9.745-0.719,19.881-1.092,30.223-1.092s20.478,0.373,30.223,1.092c0.719,9.745,1.092,19.881,1.092,30.223
		c0,10.343-0.373,20.478-1.092,30.223c-9.745,0.719-19.881,1.092-30.223,1.092s-20.478-0.373-30.223-1.092
		C347.062,402.955,346.689,392.82,346.689,382.477z M341.93,412.223c-17.908-1.605-34.311-4.411-47.975-8.275
		c-0.941-6.963-1.437-14.138-1.437-21.47s0.496-14.507,1.437-21.47c13.664-3.864,30.066-6.67,47.975-8.275
		c-0.687,9.613-1.041,19.585-1.041,29.745C340.888,392.637,341.242,402.61,341.93,412.223z M414.078,352.732
		c17.908,1.605,34.31,4.411,47.975,8.275c0.941,6.963,1.437,14.138,1.437,21.47c0,7.332-0.496,14.507-1.437,21.47
		c-13.664,3.864-30.066,6.67-47.975,8.275c0.687-9.613,1.041-19.585,1.041-29.745S414.766,362.344,414.078,352.732L414.078,352.732z
		 M413.613,346.868c-1.528-17.553-4.19-33.739-7.855-47.458c15.127,2.68,29.115,7.496,41.327,13.987
		c6.49,12.212,11.307,26.2,13.986,41.326C447.353,351.058,431.166,348.396,413.613,346.868z M342.394,346.868
		c-17.553,1.528-33.739,4.19-47.458,7.855c2.679-15.127,7.496-29.115,13.986-41.326c12.212-6.49,26.2-11.307,41.326-13.986
		C346.585,313.128,343.922,329.315,342.394,346.868z M287.865,402.087c-17.201-5.67-27.281-12.843-27.281-19.61
		c0-6.767,10.08-13.94,27.281-19.61c-0.756,6.427-1.148,12.978-1.148,19.61C286.717,389.109,287.109,395.661,287.865,402.087z
		 M342.394,418.087c1.528,17.553,4.19,33.739,7.855,47.458c-15.127-2.679-29.115-7.496-41.326-13.986
		c-6.49-12.212-11.307-26.2-13.986-41.327C308.655,413.896,324.841,416.559,342.394,418.087z M413.613,418.087
		c17.553-1.528,33.739-4.19,47.458-7.855c-2.679,15.127-7.496,29.115-13.986,41.326c-12.212,6.491-26.2,11.307-41.327,13.987
		C409.423,451.826,412.086,435.64,413.613,418.087L413.613,418.087z M468.143,362.867c17.201,5.671,27.28,12.843,27.28,19.61
		s-10.08,13.939-27.28,19.61c0.756-6.427,1.148-12.978,1.148-19.61S468.899,369.294,468.143,362.867L468.143,362.867z
		 M494.054,369.414c-5.676-4.84-14.673-9.191-26.787-12.914c-2.11-13.356-5.844-26.082-11.07-37.737
		C476.03,331.677,489.823,349.411,494.054,369.414L494.054,369.414z M441.719,304.285c-11.655-5.227-24.381-8.961-37.738-11.07
		c-3.723-12.114-8.074-21.112-12.914-26.787C411.07,270.658,428.804,284.451,441.719,304.285L441.719,304.285z M364.94,266.427
		c-4.84,5.676-9.191,14.673-12.914,26.787c-13.356,2.11-26.082,5.844-37.737,11.07C327.204,284.451,344.937,270.658,364.94,266.427z
		 M299.811,318.762c-5.227,11.655-8.961,24.381-11.07,37.737c-12.114,3.723-21.112,8.074-26.787,12.914
		C266.185,349.411,279.978,331.677,299.811,318.762z M261.953,395.541c5.676,4.84,14.673,9.191,26.787,12.914
		c2.11,13.356,5.844,26.082,11.07,37.738C279.978,433.277,266.185,415.544,261.953,395.541z M314.289,460.67
		c11.655,5.227,24.381,8.961,37.737,11.07c3.723,12.114,8.074,21.112,12.914,26.787C344.937,494.297,327.204,480.503,314.289,460.67
		z M391.067,498.528c4.84-5.676,9.191-14.673,12.914-26.787c13.357-2.11,26.083-5.844,37.738-11.07
		C428.804,480.503,411.07,494.297,391.067,498.528L391.067,498.528z M456.197,446.192c5.227-11.655,8.961-24.381,11.07-37.737
		c12.114-3.723,21.111-8.074,26.787-12.914C489.823,415.543,476.03,433.277,456.197,446.192z"/>
	
		<linearGradient id="SVGID_3_" gradientUnits="userSpaceOnUse" x1="115.4922" y1="183.7003" x2="-6.8453" y2="306.0378" gradientTransform="matrix(1.0039 0 0 -1.0039 288.6726 593.5118)">
		<stop  offset="0" style="stop-color:#18CFFC;stop-opacity:0"/>
		<stop  offset="1" style="stop-color:#65E1DC"/>
	</linearGradient>
	<circle fill="url(#SVGID_3_)" cx="378.004" cy="382.477" r="110.033"/>
	
		<linearGradient id="SVGID_4_" gradientUnits="userSpaceOnUse" x1="10.9512" y1="203.8174" x2="204.4131" y2="66.5476" gradientTransform="matrix(1.0039 0 0 -1.0039 288.6726 593.5118)">
		<stop  offset="0" style="stop-color:#92F37F"/>
		<stop  offset="1" style="stop-color:#4AB272"/>
	</linearGradient>
	<path fill="url(#SVGID_4_)" d="M366.485,387.61l4.772,4.772c1.746,1.746,2.726,4.113,2.726,6.581c0,5.14,4.167,9.307,9.307,9.307
		c5.36,0,9.706,4.345,9.706,9.706c0,6.97-1.454,13.864-4.27,20.24l-17.181,38.908c-2.352,5.326-9.32,6.628-13.437,2.511
		c-6.001-6.001-9.372-14.139-9.372-22.625v-4.526c0-11.798-4.687-23.114-13.03-31.457l-0.509-0.509
		c-7.851-7.851-12.262-18.5-12.262-29.603v-1.622c0-7.702,6.244-13.946,13.946-13.946
		C347.985,375.348,358.634,379.759,366.485,387.61L366.485,387.61z"/>
	
		<linearGradient id="SVGID_5_" gradientUnits="userSpaceOnUse" x1="50.4094" y1="259.4275" x2="243.8708" y2="122.1581" gradientTransform="matrix(1.0039 0 0 -1.0039 288.6726 593.5118)">
		<stop  offset="0" style="stop-color:#92F37F"/>
		<stop  offset="1" style="stop-color:#4AB272"/>
	</linearGradient>
	<path fill="url(#SVGID_5_)" d="M335.608,266.696c-30.863,11.305-55.943,34.599-69.605,64.241
		c-1.619,3.513-2.421,7.348-2.421,11.215c0,7.205,2.862,14.115,7.957,19.21l2.52,2.52c11.29,11.29,26.603,17.633,42.569,17.633
		c2.385,0,4.319-1.934,4.319-4.319s-1.934-4.319-4.319-4.319h-13.276c-6.123,0-11.087-4.964-11.087-11.087
		s4.964-11.087,11.087-11.087h10.37c12.434,0,24.358-4.939,33.15-13.731l16.01-16.01c3.486-3.486,8.215-5.445,13.145-5.445
		c7.133,0,13.636-4.081,16.739-10.503c3.803-7.871-1.932-17.01-10.673-17.01h-20.657c-6.074,0-10.997-4.923-10.997-10.997
		C350.438,269.342,342.805,264.06,335.608,266.696L335.608,266.696z"/>
	
		<linearGradient id="SVGID_6_" gradientUnits="userSpaceOnUse" x1="58.8845" y1="249.3368" x2="4.0788" y2="304.1425" gradientTransform="matrix(1.0039 0 0 -1.0039 288.6726 593.5118)">
		<stop  offset="0" style="stop-color:#92F37F;stop-opacity:0"/>
		<stop  offset="1" style="stop-color:#FFEE83"/>
	</linearGradient>
	<path fill="url(#SVGID_6_)" d="M382.092,288.003h-20.657c-6.074,0-10.997-4.923-10.997-10.997c0-0.361-0.022-0.714-0.055-1.064
		c-40.271,10.412-71.597,43.053-80.109,84.054c0.407,0.467,0.825,0.926,1.265,1.367l2.52,2.52
		c11.29,11.29,26.603,17.633,42.569,17.633c2.385,0,4.319-1.934,4.319-4.319c0-2.385-1.934-4.319-4.319-4.319h-13.276
		c-6.123,0-11.087-4.964-11.087-11.087c0-6.123,4.964-11.087,11.087-11.087h10.37c12.434,0,24.358-4.939,33.15-13.731l16.01-16.01
		c3.486-3.486,8.215-5.445,13.145-5.445c7.133,0,13.636-4.081,16.739-10.503C396.568,297.142,390.833,288.003,382.092,288.003
		L382.092,288.003z"/>
	
		<linearGradient id="SVGID_7_" gradientUnits="userSpaceOnUse" x1="156.0161" y1="199.7362" x2="242.7123" y2="184.4842" gradientTransform="matrix(1.0039 0 0 -1.0039 288.6726 593.5118)">
		<stop  offset="0" style="stop-color:#92F37F"/>
		<stop  offset="1" style="stop-color:#4AB272"/>
	</linearGradient>
	<path fill="url(#SVGID_7_)" d="M498.403,355.917c-1.703-7.751-8.633-13.234-16.57-13.234h-17.377h-9.289
		c-15.788,0-28.586,12.799-28.586,28.586v3.478c0,13.867,11.242,25.108,25.109,25.108c7.051,0,12.766,5.716,12.766,12.767v33.338
		c0,8.687,11.28,12.148,16.108,4.925c10.033-15.009,16.858-32.347,19.495-51.03c0.798-5.675,1.213-11.481,1.213-17.378
		C501.272,373.357,500.281,364.471,498.403,355.917L498.403,355.917z"/>
	
		<linearGradient id="SVGID_8_" gradientUnits="userSpaceOnUse" x1="169.761" y1="277.8652" x2="256.4576" y2="262.6132" gradientTransform="matrix(1.0039 0 0 -1.0039 288.6726 593.5118)">
		<stop  offset="0" style="stop-color:#92F37F"/>
		<stop  offset="1" style="stop-color:#4AB272"/>
	</linearGradient>
	<path fill="url(#SVGID_8_)" d="M488.036,326.852h-36.821c-6.586,0-11.926-5.339-11.926-11.926s5.339-11.926,11.926-11.926h21.018
		C478.378,310.276,483.695,318.276,488.036,326.852L488.036,326.852z"/>
	
		<linearGradient id="SVGID_9_" gradientUnits="userSpaceOnUse" x1="111.5582" y1="197.2093" x2="280.3346" y2="511.1096" gradientTransform="matrix(1.0039 0 0 -1.0039 288.6726 593.5118)">
		<stop  offset="0" style="stop-color:#0469BC;stop-opacity:0"/>
		<stop  offset="1" style="stop-color:#0469BC"/>
	</linearGradient>
	<path fill="url(#SVGID_9_)" d="M433.145,272.209c8.314,16.593,13,35.319,13,55.142c0,68.079-55.189,123.268-123.268,123.268
		c-19.823,0-38.549-4.686-55.142-13c20.239,40.394,62.012,68.127,110.268,68.127c68.079,0,123.268-55.189,123.268-123.268
		C501.272,334.221,473.539,292.448,433.145,272.209z"/>
</g>
</svg>
