<?xml version="1.0" encoding="utf-8"?>
<!-- Generator: Adobe Illustrator 17.0.0, SVG Export Plug-In . SVG Version: 6.00 Build 0)  -->
<!DOCTYPE svg PUBLIC "-//W3C//DTD SVG 1.1//EN" "http://www.w3.org/Graphics/SVG/1.1/DTD/svg11.dtd">
<svg version="1.1" id="Capa_1" xmlns="http://www.w3.org/2000/svg" xmlns:xlink="http://www.w3.org/1999/xlink" x="0px" y="0px"
	 width="512px" height="512px" viewBox="0 0 512 512" enable-background="new 0 0 512 512" xml:space="preserve">
<g>
	<path fill="#FFDE55" d="M350.184,264.013l-21.213,21.213l0.126,0.125l-53.782,55.073h0.001l-10.607,10.607l115.602,115.601
		L469.104,459l-2.547-78.614L350.184,264.013z"/>
	<path fill="#FF641A" d="M494.062,407.892l-27.506-27.506l-86.246,86.246l27.506,27.506C419.335,505.656,434.649,512,450.939,512
		c16.289,0,31.604-6.343,43.123-17.862C517.84,470.359,517.84,431.67,494.062,407.892z"/>
	<path fill="#FFF5F5" d="M66.449,66.345c-68.46,68.46-68.46,179.455,0,247.914c34.23,34.23,79.093,51.345,123.957,51.345
		L222.104,191L190.406,15C145.543,15,100.679,32.115,66.449,66.345z"/>
	<path fill="#EBEBF0" d="M314.363,66.345C280.134,32.115,235.27,15,190.406,15v350.604c44.864,0,89.727-17.115,123.957-51.345
		C382.823,245.799,382.823,134.804,314.363,66.345z"/>
	<path fill="#FFB655" d="M145.474,145.369c-23.721,1.264-42.567,20.896-42.567,44.933c0,24.036,18.846,43.669,42.567,44.933
		c1.264,23.721,20.896,42.567,44.933,42.567L202.104,191l-11.698-88.198C166.37,102.802,146.738,121.648,145.474,145.369z"/>
	<path fill="#FF7C48" d="M235.339,145.369c-1.264-23.721-20.896-42.567-44.933-42.567v175c24.036,0,43.669-18.846,44.933-42.567
		c23.721-1.264,42.567-20.896,42.567-44.933S259.06,146.633,235.339,145.369z"/>
	<path fill="#09607D" d="M77.056,303.652c-30.277-30.277-46.951-70.532-46.951-113.351S46.779,107.227,77.056,76.95
		S147.588,30,190.406,30l10.698-16L190.406,0c-50.831,0-98.62,19.795-134.563,55.738C19.899,91.681,0.104,139.47,0.104,190.302
		s19.795,98.621,55.738,134.563c35.943,35.943,83.732,55.738,134.563,55.738L200.104,366l-9.698-15.396
		C147.588,350.604,107.333,333.929,77.056,303.652z"/>
	<path fill="#04303E" d="M324.97,55.738C289.026,19.795,241.238,0,190.406,0v30c42.818,0,83.073,16.674,113.351,46.951
		c30.277,30.277,46.951,70.532,46.951,113.351s-16.674,83.073-46.951,113.351c-30.277,30.277-70.532,46.951-113.351,46.951v30
		c50.832,0,98.62-19.795,134.563-55.738s55.738-83.732,55.738-134.563S360.913,91.681,324.97,55.738L324.97,55.738z"/>
	<path fill="#FF7C48" d="M175.406,175.302v30h15L194.104,192l-3.698-16.698H175.406z"/>
	<path fill="#FF5043" d="M190.406,175.302h15v30h-15V175.302z"/>
</g>
<g>
	
		<linearGradient id="SVGID_1_" gradientUnits="userSpaceOnUse" x1="-157.3428" y1="458.6833" x2="-8.5219" y2="309.8624" gradientTransform="matrix(1.0039 0 0 -1.0039 288.6726 593.5118)">
		<stop  offset="0" style="stop-color:#18CFFC"/>
		<stop  offset="1" style="stop-color:#4A98F7"/>
	</linearGradient>
	<circle fill="url(#SVGID_1_)" cx="190.406" cy="192.723" r="123.268"/>
	
		<linearGradient id="SVGID_2_" gradientUnits="userSpaceOnUse" x1="-79.1157" y1="264.0394" x2="-123.2973" y2="582.2949" gradientTransform="matrix(1.0039 0 0 -1.0039 288.6726 593.5118)">
		<stop  offset="0" style="stop-color:#18CFFC;stop-opacity:0"/>
		<stop  offset="1" style="stop-color:#65E1DC"/>
	</linearGradient>
	<path fill="url(#SVGID_2_)" d="M277.202,127.887c-4.23-3.107-8.715-5.957-13.415-8.545c-2.588-4.7-5.438-9.186-8.545-13.415
		c-17.254-23.489-40.281-36.425-64.836-36.425s-47.582,12.936-64.836,36.425c-3.107,4.23-5.957,8.715-8.545,13.415
		c-4.7,2.588-9.185,5.438-13.415,8.545c-23.488,17.254-36.424,40.28-36.424,64.836s12.936,47.582,36.425,64.836
		c4.23,3.107,8.715,5.957,13.415,8.545c2.588,4.7,5.438,9.185,8.545,13.415c17.255,23.489,40.281,36.425,64.836,36.425
		s47.582-12.936,64.836-36.425c3.107-4.23,5.957-8.715,8.545-13.415c4.7-2.588,9.185-5.438,13.415-8.545
		c23.489-17.255,36.425-40.281,36.425-64.836S300.691,145.141,277.202,127.887z M190.406,310.143c-6.767,0-13.94-10.08-19.61-27.281
		c6.427,0.756,12.978,1.148,19.61,1.148s13.183-0.392,19.611-1.148C204.346,300.063,197.173,310.143,190.406,310.143z
		 M190.406,278.209c-7.332,0-14.507-0.496-21.47-1.437c-3.864-13.664-6.67-30.066-8.275-47.975
		c9.613,0.687,19.585,1.041,29.745,1.041c10.16,0,20.133-0.354,29.745-1.041c-1.605,17.908-4.411,34.31-8.275,47.975
		C204.913,277.712,197.738,278.209,190.406,278.209L190.406,278.209z M190.406,75.303c6.767,0,13.94,10.08,19.611,27.281
		c-6.427-0.756-12.978-1.148-19.611-1.148s-13.183,0.392-19.61,1.148C176.466,85.383,183.639,75.303,190.406,75.303z
		 M190.406,107.237c7.332,0,14.507,0.496,21.47,1.437c3.864,13.664,6.67,30.066,8.275,47.975
		c-9.613-0.687-19.586-1.041-29.745-1.041c-10.16,0-20.133,0.354-29.745,1.041c1.605-17.908,4.411-34.311,8.275-47.975
		C175.899,107.734,183.074,107.237,190.406,107.237L190.406,107.237z M159.091,192.723c0-10.343,0.373-20.478,1.092-30.223
		c9.745-0.719,19.881-1.092,30.223-1.092s20.478,0.373,30.223,1.092c0.719,9.745,1.092,19.881,1.092,30.223
		c0,10.343-0.373,20.478-1.092,30.223c-9.745,0.719-19.881,1.092-30.223,1.092s-20.478-0.373-30.223-1.092
		C159.464,213.201,159.091,203.066,159.091,192.723z M154.332,222.468c-17.908-1.605-34.311-4.411-47.975-8.275
		c-0.941-6.963-1.437-14.138-1.437-21.47s0.496-14.507,1.437-21.47c13.664-3.864,30.066-6.67,47.975-8.275
		c-0.687,9.613-1.041,19.585-1.041,29.745C153.29,202.883,153.644,212.856,154.332,222.468z M226.481,162.978
		c17.908,1.605,34.31,4.411,47.975,8.275c0.941,6.963,1.437,14.138,1.437,21.47c0,7.332-0.496,14.507-1.437,21.47
		c-13.664,3.864-30.066,6.67-47.975,8.275c0.687-9.613,1.041-19.585,1.041-29.745S227.168,172.59,226.481,162.978L226.481,162.978z
		 M226.016,157.114c-1.528-17.553-4.19-33.739-7.855-47.458c15.127,2.68,29.115,7.496,41.327,13.987
		c6.49,12.212,11.307,26.2,13.986,41.326C259.755,161.304,243.568,158.641,226.016,157.114z M154.796,157.114
		c-17.553,1.528-33.739,4.19-47.458,7.855c2.679-15.127,7.496-29.115,13.986-41.326c12.212-6.49,26.2-11.307,41.326-13.986
		C158.987,123.374,156.324,139.561,154.796,157.114z M100.267,212.333c-17.201-5.67-27.281-12.843-27.281-19.61
		c0-6.767,10.08-13.94,27.281-19.61c-0.756,6.427-1.148,12.978-1.148,19.61S99.511,205.906,100.267,212.333z M154.796,228.333
		c1.528,17.553,4.19,33.739,7.855,47.458c-15.127-2.679-29.115-7.496-41.326-13.986c-6.49-12.212-11.307-26.2-13.986-41.327
		C121.057,224.142,137.244,226.804,154.796,228.333z M226.016,228.333c17.553-1.528,33.739-4.19,47.458-7.855
		c-2.679,15.127-7.496,29.115-13.986,41.326c-12.212,6.491-26.2,11.307-41.327,13.987
		C221.825,262.072,224.488,245.885,226.016,228.333L226.016,228.333z M280.545,173.113c17.201,5.671,27.28,12.843,27.28,19.61
		s-10.08,13.939-27.28,19.61c0.756-6.427,1.148-12.978,1.148-19.61S281.301,179.54,280.545,173.113L280.545,173.113z
		 M306.456,179.659c-5.676-4.84-14.673-9.191-26.787-12.914c-2.11-13.356-5.844-26.082-11.07-37.738
		C288.432,141.923,302.225,159.657,306.456,179.659L306.456,179.659z M254.121,114.531c-11.655-5.227-24.381-8.961-37.738-11.07
		c-3.723-12.114-8.074-21.112-12.914-26.787C223.472,80.904,241.207,94.697,254.121,114.531L254.121,114.531z M177.342,76.672
		c-4.84,5.676-9.191,14.673-12.914,26.787c-13.356,2.11-26.082,5.844-37.737,11.07C139.606,94.697,157.34,80.904,177.342,76.672z
		 M112.213,129.008c-5.227,11.655-8.961,24.381-11.07,37.738c-12.114,3.723-21.112,8.074-26.787,12.914
		C78.587,159.657,92.38,141.923,112.213,129.008z M74.355,205.787c5.676,4.84,14.673,9.191,26.787,12.914
		c2.11,13.356,5.844,26.082,11.07,37.738C92.38,243.523,78.587,225.789,74.355,205.787z M126.691,270.916
		c11.655,5.227,24.381,8.961,37.737,11.07c3.723,12.114,8.074,21.112,12.914,26.787C157.34,304.542,139.606,290.749,126.691,270.916
		z M203.47,308.774c4.84-5.676,9.191-14.673,12.914-26.787c13.357-2.11,26.083-5.844,37.738-11.07
		C241.207,290.749,223.472,304.542,203.47,308.774L203.47,308.774z M268.599,256.438c5.227-11.655,8.961-24.381,11.07-37.738
		c12.114-3.723,21.111-8.074,26.787-12.914C302.225,225.789,288.432,243.523,268.599,256.438z"/>
	
		<linearGradient id="SVGID_3_" gradientUnits="userSpaceOnUse" x1="-71.3728" y1="372.7133" x2="-193.7103" y2="495.0508" gradientTransform="matrix(1.0039 0 0 -1.0039 288.6726 593.5118)">
		<stop  offset="0" style="stop-color:#18CFFC;stop-opacity:0"/>
		<stop  offset="1" style="stop-color:#65E1DC"/>
	</linearGradient>
	<circle fill="url(#SVGID_3_)" cx="190.406" cy="192.723" r="110.033"/>
	
		<linearGradient id="SVGID_4_" gradientUnits="userSpaceOnUse" x1="-175.9138" y1="392.8304" x2="17.5481" y2="255.5605" gradientTransform="matrix(1.0039 0 0 -1.0039 288.6726 593.5118)">
		<stop  offset="0" style="stop-color:#92F37F"/>
		<stop  offset="1" style="stop-color:#4AB272"/>
	</linearGradient>
	<path fill="url(#SVGID_4_)" d="M178.887,197.856l4.772,4.772c1.746,1.746,2.726,4.113,2.726,6.581c0,5.14,4.167,9.307,9.307,9.307
		c5.36,0,9.706,4.345,9.706,9.706c0,6.97-1.454,13.864-4.27,20.24l-17.181,38.908c-2.352,5.326-9.32,6.628-13.437,2.511
		c-6.001-6.001-9.372-14.139-9.372-22.625v-4.526c0-11.798-4.687-23.114-13.03-31.457l-0.509-0.509
		c-7.851-7.851-12.262-18.5-12.262-29.603v-1.622c0-7.702,6.244-13.946,13.946-13.946
		C160.387,185.594,171.036,190.005,178.887,197.856L178.887,197.856z"/>
	
		<linearGradient id="SVGID_5_" gradientUnits="userSpaceOnUse" x1="-136.4556" y1="448.4404" x2="57.0058" y2="311.1711" gradientTransform="matrix(1.0039 0 0 -1.0039 288.6726 593.5118)">
		<stop  offset="0" style="stop-color:#92F37F"/>
		<stop  offset="1" style="stop-color:#4AB272"/>
	</linearGradient>
	<path fill="url(#SVGID_5_)" d="M148.01,76.942c-30.863,11.305-55.943,34.599-69.605,64.241c-1.619,3.513-2.421,7.348-2.421,11.215
		c0,7.205,2.862,14.115,7.957,19.21l2.52,2.52c11.29,11.29,26.603,17.633,42.569,17.633c2.385,0,4.319-1.934,4.319-4.319
		c0-2.385-1.934-4.319-4.319-4.319h-13.276c-6.123,0-11.087-4.964-11.087-11.087c0-6.123,4.964-11.087,11.087-11.087h10.37
		c12.434,0,24.358-4.939,33.15-13.731l16.01-16.01c3.486-3.486,8.215-5.445,13.145-5.445c7.133,0,13.636-4.081,16.739-10.503
		c3.803-7.871-1.932-17.01-10.673-17.01h-20.657c-6.074,0-10.997-4.923-10.997-10.997C162.84,79.587,155.207,74.306,148.01,76.942
		L148.01,76.942z"/>
	
		<linearGradient id="SVGID_6_" gradientUnits="userSpaceOnUse" x1="-127.9805" y1="438.3497" x2="-182.7862" y2="493.1555" gradientTransform="matrix(1.0039 0 0 -1.0039 288.6726 593.5118)">
		<stop  offset="0" style="stop-color:#92F37F;stop-opacity:0"/>
		<stop  offset="1" style="stop-color:#FFEE83"/>
	</linearGradient>
	<path fill="url(#SVGID_6_)" d="M194.494,98.249h-20.657c-6.073,0-10.997-4.923-10.997-10.997c0-0.361-0.022-0.714-0.055-1.064
		c-40.271,10.412-71.597,43.053-80.109,84.054c0.407,0.467,0.825,0.926,1.265,1.367l2.52,2.52
		c11.29,11.29,26.603,17.633,42.569,17.633c2.385,0,4.319-1.934,4.319-4.319c0-2.385-1.934-4.319-4.319-4.319h-13.276
		c-6.123,0-11.087-4.964-11.087-11.087c0-6.123,4.964-11.087,11.087-11.087h10.37c12.434,0,24.358-4.939,33.15-13.731l16.01-16.01
		c3.486-3.486,8.215-5.445,13.145-5.445c7.133,0,13.636-4.081,16.739-10.503C208.97,107.388,203.236,98.249,194.494,98.249
		L194.494,98.249z"/>
	
		<linearGradient id="SVGID_7_" gradientUnits="userSpaceOnUse" x1="-30.8489" y1="388.7492" x2="55.8473" y2="373.4972" gradientTransform="matrix(1.0039 0 0 -1.0039 288.6726 593.5118)">
		<stop  offset="0" style="stop-color:#92F37F"/>
		<stop  offset="1" style="stop-color:#4AB272"/>
	</linearGradient>
	<path fill="url(#SVGID_7_)" d="M310.805,166.163c-1.703-7.751-8.633-13.234-16.57-13.234h-17.377h-9.289
		c-15.788,0-28.586,12.799-28.586,28.586v3.478c0,13.867,11.242,25.108,25.109,25.108c7.051,0,12.766,5.716,12.766,12.767v33.338
		c0,8.687,11.28,12.148,16.108,4.925c10.033-15.009,16.858-32.347,19.495-51.03c0.798-5.675,1.213-11.481,1.213-17.378
		C313.674,183.603,312.683,174.717,310.805,166.163L310.805,166.163z"/>
	
		<linearGradient id="SVGID_8_" gradientUnits="userSpaceOnUse" x1="-17.104" y1="466.8782" x2="69.5926" y2="451.6262" gradientTransform="matrix(1.0039 0 0 -1.0039 288.6726 593.5118)">
		<stop  offset="0" style="stop-color:#92F37F"/>
		<stop  offset="1" style="stop-color:#4AB272"/>
	</linearGradient>
	<path fill="url(#SVGID_8_)" d="M300.439,137.098h-36.821c-6.586,0-11.926-5.339-11.926-11.926s5.339-11.926,11.926-11.926h21.018
		C290.78,120.522,296.098,128.522,300.439,137.098L300.439,137.098z"/>
	
		<linearGradient id="SVGID_9_" gradientUnits="userSpaceOnUse" x1="-75.3069" y1="386.2223" x2="93.4696" y2="700.1226" gradientTransform="matrix(1.0039 0 0 -1.0039 288.6726 593.5118)">
		<stop  offset="0" style="stop-color:#0469BC;stop-opacity:0"/>
		<stop  offset="1" style="stop-color:#0469BC"/>
	</linearGradient>
	<path fill="url(#SVGID_9_)" d="M245.548,82.455c8.314,16.593,13,35.319,13,55.142c0,68.079-55.189,123.268-123.268,123.268
		c-19.823,0-38.549-4.686-55.142-13c20.239,40.394,62.012,68.127,110.268,68.127c68.079,0,123.268-55.189,123.268-123.268
		C313.674,144.467,285.941,102.694,245.548,82.455z"/>
</g>
</svg>
