<?xml version="1.0" encoding="utf-8"?>
<!-- Generator: Adobe Illustrator 17.0.0, SVG Export Plug-In . SVG Version: 6.00 Build 0)  -->
<!DOCTYPE svg PUBLIC "-//W3C//DTD SVG 1.1//EN" "http://www.w3.org/Graphics/SVG/1.1/DTD/svg11.dtd">
<svg version="1.1" id="Layer_1" xmlns="http://www.w3.org/2000/svg" xmlns:xlink="http://www.w3.org/1999/xlink" x="0px" y="0px"
	 width="512px" height="512px" viewBox="0 0 512 512" enable-background="new 0 0 512 512" xml:space="preserve">
<g>
	<g id="Tombstone">
		<path fill="#5EAC24" d="M480,376c-4.418,0-8,3.582-8,8v24c-0.017,5.691-3.066,10.941-8,13.776V384c0-4.418-3.582-8-8-8
			s-8,3.582-8,8v37.776c-4.934-2.835-7.983-8.085-8-13.776v-24c0-4.418-3.582-8-8-8s-8,3.582-8,8v24
			c0.055,14.547,9.915,27.227,24,30.864V480c0,4.418,3.582,8,8,8s8-3.582,8-8v-41.136c14.085-3.637,23.945-16.317,24-30.864v-24
			C488,379.582,484.418,376,480,376z"/>
		<path fill="#4E901E" d="M80,376c-4.418,0-8,3.582-8,8v24c-0.017,5.691-3.066,10.941-8,13.776V384c0-4.418-3.582-8-8-8
			s-8,3.582-8,8v37.776c-4.934-2.835-7.983-8.085-8-13.776v-24c0-4.418-3.582-8-8-8s-8,3.582-8,8v24
			c0.055,14.547,9.915,27.227,24,30.864V480c0,4.418,3.582,8,8,8s8-3.582,8-8v-41.136c14.085-3.637,23.945-16.317,24-30.864v-24
			C88,379.582,84.418,376,80,376z"/>
		<path fill="#A7A9AC" d="M400,168v283.6l-3.28-1.36c-90.11-37.28-191.33-37.28-281.44,0L112,451.6V168c0-79.529,64.471-144,144-144
			S400,88.471,400,168z"/>
		<path fill="#939598" d="M357.84,66.16C326.033,33.957,280.766,18.87,236,25.552C307.139,35.346,360.103,96.19,360,168v269.328
			c12.459,3.653,24.717,7.963,36.72,12.912l3.28,1.36V168C400.024,129.802,384.856,93.164,357.84,66.16L357.84,66.16z"/>
		<path fill="#8B5E3C" d="M400,451.6l-3.296-1.36c-90.098-37.282-191.31-37.282-281.408,0L112,451.6L24,488h464l-88-36.416V451.6z"
			/>
		<path fill="#754C29" d="M400,451.584l-3.296-1.36C345.857,429.197,290.941,419.842,236,422.848
			c41.492,2.245,82.303,11.502,120.704,27.376l3.296,1.36L448,488h40L400,451.584z"/>
		<g>
			<path fill="#414042" d="M168,256c4.418,0,8-3.582,8-8v-40h3.72l29.6,44.44c2.452,3.676,7.42,4.668,11.096,2.216
				s4.668-7.42,2.216-11.096l0,0l-24.152-36.232c17.302-3.603,28.407-20.549,24.805-37.851C220.198,154.652,207.143,144.021,192,144
				h-24c-4.418,0-8,3.582-8,8v96C160,252.418,163.582,256,168,256L168,256z M176,160h16c8.837,0,16,7.163,16,16s-7.163,16-16,16h-16
				V160z"/>
			<path fill="#414042" d="M256,256c4.418,0,8-3.582,8-8v-96c0-4.418-3.582-8-8-8s-8,3.582-8,8v96C248,252.418,251.582,256,256,256z
				"/>
			<path fill="#414042" d="M296,256c4.418,0,8-3.582,8-8v-40h16c17.673,0,32-14.327,32-32s-14.327-32-32-32h-24
				c-4.418,0-8,3.582-8,8v96C288,252.418,291.582,256,296,256z M304,160h16c8.837,0,16,7.163,16,16s-7.163,16-16,16h-16V160z"/>
		</g>
		<path fill="#6D6E71" d="M168,304h176c4.418,0,8-3.582,8-8s-3.582-8-8-8H168c-4.418,0-8,3.582-8,8S163.582,304,168,304z"/>
		<path fill="#6D6E71" d="M320,320H192c-4.418,0-8,3.582-8,8s3.582,8,8,8h128c4.418,0,8-3.582,8-8S324.418,320,320,320z"/>
	</g>
	<g>
		
			<linearGradient id="SVGID_1_" gradientUnits="userSpaceOnUse" x1="85.3333" y1="375.7844" x2="234.1542" y2="524.6053" gradientTransform="matrix(1.0039 0 0 1.0039 232.6473 -54.4636)">
			<stop  offset="0" style="stop-color:#18CFFC"/>
			<stop  offset="1" style="stop-color:#4A98F7"/>
		</linearGradient>
		<circle fill="url(#SVGID_1_)" cx="378.004" cy="382.477" r="123.268"/>
		
			<linearGradient id="SVGID_2_" gradientUnits="userSpaceOnUse" x1="163.5603" y1="570.4312" x2="119.3788" y2="252.1756" gradientTransform="matrix(1.0039 0 0 1.0039 232.6473 -54.4636)">
			<stop  offset="0" style="stop-color:#18CFFC;stop-opacity:0"/>
			<stop  offset="1" style="stop-color:#65E1DC"/>
		</linearGradient>
		<path fill="url(#SVGID_2_)" d="M464.8,317.641c-4.23-3.107-8.715-5.957-13.415-8.545c-2.588-4.7-5.438-9.186-8.545-13.415
			c-17.254-23.489-40.281-36.425-64.836-36.425c-24.556,0-47.582,12.936-64.836,36.425c-3.107,4.23-5.957,8.715-8.545,13.415
			c-4.7,2.588-9.185,5.438-13.415,8.545c-23.488,17.254-36.424,40.28-36.424,64.836s12.936,47.582,36.425,64.836
			c4.23,3.107,8.715,5.957,13.415,8.545c2.588,4.7,5.438,9.185,8.545,13.415c17.255,23.489,40.281,36.425,64.836,36.425
			c24.556,0,47.582-12.936,64.836-36.425c3.107-4.23,5.957-8.715,8.545-13.415c4.7-2.588,9.185-5.438,13.415-8.545
			c23.489-17.255,36.425-40.281,36.425-64.836S488.289,334.896,464.8,317.641z M378.004,499.897c-6.767,0-13.94-10.08-19.61-27.281
			c6.427,0.756,12.978,1.148,19.61,1.148s13.183-0.392,19.611-1.148C391.944,489.817,384.771,499.897,378.004,499.897z
			 M378.004,467.963c-7.332,0-14.507-0.496-21.47-1.437c-3.864-13.664-6.67-30.066-8.275-47.975
			c9.613,0.687,19.585,1.041,29.745,1.041s20.133-0.354,29.745-1.041c-1.605,17.908-4.411,34.31-8.275,47.975
			C392.511,467.467,385.336,467.963,378.004,467.963L378.004,467.963z M378.004,265.057c6.767,0,13.94,10.08,19.611,27.281
			c-6.427-0.756-12.978-1.148-19.611-1.148s-13.183,0.392-19.61,1.148C364.064,275.138,371.237,265.057,378.004,265.057z
			 M378.004,296.991c7.332,0,14.507,0.496,21.47,1.437c3.864,13.664,6.67,30.066,8.275,47.975
			c-9.613-0.687-19.586-1.041-29.745-1.041c-10.16,0-20.133,0.354-29.745,1.041c1.605-17.908,4.411-34.311,8.275-47.975
			C363.497,297.488,370.672,296.991,378.004,296.991L378.004,296.991z M346.689,382.477c0-10.343,0.373-20.478,1.092-30.223
			c9.745-0.719,19.881-1.092,30.223-1.092s20.478,0.373,30.223,1.092c0.719,9.745,1.092,19.881,1.092,30.223
			c0,10.343-0.373,20.478-1.092,30.223c-9.745,0.719-19.881,1.092-30.223,1.092s-20.478-0.373-30.223-1.092
			C347.062,402.955,346.689,392.82,346.689,382.477z M341.93,412.223c-17.908-1.605-34.311-4.411-47.975-8.275
			c-0.941-6.963-1.437-14.138-1.437-21.47s0.496-14.507,1.437-21.47c13.664-3.864,30.066-6.67,47.975-8.275
			c-0.687,9.613-1.041,19.585-1.041,29.745C340.888,392.637,341.242,402.61,341.93,412.223z M414.078,352.732
			c17.908,1.605,34.31,4.411,47.975,8.275c0.941,6.963,1.437,14.138,1.437,21.47s-0.496,14.507-1.437,21.47
			c-13.664,3.864-30.066,6.67-47.975,8.275c0.687-9.613,1.041-19.585,1.041-29.745S414.766,362.344,414.078,352.732L414.078,352.732
			z M413.613,346.868c-1.528-17.553-4.19-33.739-7.855-47.458c15.127,2.68,29.115,7.496,41.327,13.987
			c6.49,12.212,11.307,26.2,13.986,41.326C447.353,351.058,431.166,348.396,413.613,346.868z M342.394,346.868
			c-17.553,1.528-33.739,4.19-47.458,7.855c2.679-15.127,7.496-29.115,13.986-41.326c12.212-6.49,26.2-11.307,41.326-13.986
			C346.585,313.128,343.922,329.315,342.394,346.868z M287.865,402.087c-17.201-5.67-27.281-12.843-27.281-19.61
			c0-6.767,10.08-13.94,27.281-19.61c-0.756,6.427-1.148,12.978-1.148,19.61C286.717,389.109,287.109,395.661,287.865,402.087z
			 M342.394,418.087c1.528,17.553,4.19,33.739,7.855,47.458c-15.127-2.679-29.115-7.496-41.326-13.986
			c-6.49-12.212-11.307-26.2-13.986-41.327C308.655,413.896,324.841,416.559,342.394,418.087z M413.613,418.087
			c17.553-1.528,33.739-4.19,47.458-7.855c-2.679,15.127-7.496,29.115-13.986,41.326c-12.212,6.491-26.2,11.307-41.327,13.987
			C409.423,451.826,412.086,435.64,413.613,418.087L413.613,418.087z M468.143,362.867c17.201,5.671,27.28,12.843,27.28,19.61
			s-10.08,13.939-27.28,19.61c0.756-6.427,1.148-12.978,1.148-19.61S468.899,369.294,468.143,362.867L468.143,362.867z
			 M494.054,369.414c-5.676-4.84-14.673-9.191-26.787-12.914c-2.11-13.356-5.844-26.082-11.07-37.737
			C476.03,331.677,489.823,349.411,494.054,369.414L494.054,369.414z M441.719,304.285c-11.655-5.227-24.381-8.961-37.738-11.07
			c-3.723-12.114-8.074-21.112-12.914-26.787C411.07,270.658,428.804,284.451,441.719,304.285L441.719,304.285z M364.94,266.427
			c-4.84,5.676-9.191,14.673-12.914,26.787c-13.356,2.11-26.082,5.844-37.737,11.07C327.204,284.451,344.937,270.658,364.94,266.427
			z M299.811,318.762c-5.227,11.655-8.961,24.381-11.07,37.737c-12.114,3.723-21.112,8.074-26.787,12.914
			C266.185,349.411,279.978,331.677,299.811,318.762z M261.953,395.541c5.676,4.84,14.673,9.191,26.787,12.914
			c2.11,13.356,5.844,26.082,11.07,37.738C279.978,433.277,266.185,415.544,261.953,395.541z M314.289,460.67
			c11.655,5.227,24.381,8.961,37.737,11.07c3.723,12.114,8.074,21.112,12.914,26.787
			C344.937,494.297,327.204,480.503,314.289,460.67z M391.067,498.528c4.84-5.676,9.191-14.673,12.914-26.787
			c13.357-2.11,26.083-5.844,37.738-11.07C428.804,480.503,411.07,494.297,391.067,498.528L391.067,498.528z M456.197,446.192
			c5.227-11.655,8.961-24.381,11.07-37.737c12.114-3.723,21.111-8.074,26.787-12.914
			C489.823,415.543,476.03,433.277,456.197,446.192z"/>
		
			<linearGradient id="SVGID_3_" gradientUnits="userSpaceOnUse" x1="171.3033" y1="461.7544" x2="48.9658" y2="339.4169" gradientTransform="matrix(1.0039 0 0 1.0039 232.6473 -54.4636)">
			<stop  offset="0" style="stop-color:#18CFFC;stop-opacity:0"/>
			<stop  offset="1" style="stop-color:#65E1DC"/>
		</linearGradient>
		<circle fill="url(#SVGID_3_)" cx="378.004" cy="382.477" r="110.033"/>
		
			<linearGradient id="SVGID_4_" gradientUnits="userSpaceOnUse" x1="66.761" y1="441.6376" x2="260.223" y2="578.9074" gradientTransform="matrix(1.0039 0 0 1.0039 232.6473 -54.4636)">
			<stop  offset="0" style="stop-color:#92F37F"/>
			<stop  offset="1" style="stop-color:#4AB272"/>
		</linearGradient>
		<path fill="url(#SVGID_4_)" d="M366.485,387.61l4.772,4.772c1.746,1.746,2.726,4.113,2.726,6.581c0,5.14,4.167,9.307,9.307,9.307
			c5.36,0,9.706,4.345,9.706,9.706c0,6.97-1.454,13.864-4.27,20.24l-17.181,38.908c-2.352,5.326-9.32,6.628-13.437,2.511
			c-6.001-6.001-9.372-14.139-9.372-22.625v-4.526c0-11.798-4.687-23.114-13.03-31.457l-0.509-0.509
			c-7.851-7.851-12.262-18.5-12.262-29.603v-1.622c0-7.702,6.244-13.946,13.946-13.946
			C347.985,375.348,358.634,379.759,366.485,387.61L366.485,387.61z"/>
		
			<linearGradient id="SVGID_5_" gradientUnits="userSpaceOnUse" x1="106.2201" y1="386.0263" x2="299.6815" y2="523.2957" gradientTransform="matrix(1.0039 0 0 1.0039 232.6473 -54.4636)">
			<stop  offset="0" style="stop-color:#92F37F"/>
			<stop  offset="1" style="stop-color:#4AB272"/>
		</linearGradient>
		<path fill="url(#SVGID_5_)" d="M335.608,266.696c-30.863,11.305-55.943,34.599-69.605,64.241
			c-1.619,3.513-2.421,7.348-2.421,11.215c0,7.205,2.862,14.115,7.957,19.21l2.52,2.52c11.29,11.29,26.603,17.633,42.569,17.633
			c2.385,0,4.319-1.934,4.319-4.319s-1.934-4.319-4.319-4.319h-13.276c-6.123,0-11.087-4.964-11.087-11.087
			s4.964-11.087,11.087-11.087h10.37c12.434,0,24.358-4.939,33.15-13.731l16.01-16.01c3.486-3.486,8.215-5.445,13.145-5.445
			c7.133,0,13.636-4.081,16.739-10.503c3.803-7.871-1.932-17.01-10.673-17.01h-20.657c-6.074,0-10.997-4.923-10.997-10.997
			C350.438,269.342,342.805,264.06,335.608,266.696L335.608,266.696z"/>
		
			<linearGradient id="SVGID_6_" gradientUnits="userSpaceOnUse" x1="114.6954" y1="396.118" x2="59.8897" y2="341.3123" gradientTransform="matrix(1.0039 0 0 1.0039 232.6473 -54.4636)">
			<stop  offset="0" style="stop-color:#92F37F;stop-opacity:0"/>
			<stop  offset="1" style="stop-color:#FFEE83"/>
		</linearGradient>
		<path fill="url(#SVGID_6_)" d="M382.092,288.003h-20.657c-6.074,0-10.997-4.923-10.997-10.997c0-0.361-0.022-0.714-0.055-1.064
			c-40.271,10.412-71.597,43.053-80.109,84.054c0.407,0.467,0.825,0.926,1.265,1.367l2.52,2.52
			c11.29,11.29,26.603,17.633,42.569,17.633c2.385,0,4.319-1.934,4.319-4.319s-1.934-4.319-4.319-4.319h-13.276
			c-6.123,0-11.087-4.964-11.087-11.087c0-6.123,4.964-11.087,11.087-11.087h10.37c12.434,0,24.358-4.939,33.15-13.731l16.01-16.01
			c3.486-3.486,8.215-5.445,13.145-5.445c7.133,0,13.636-4.081,16.739-10.503C396.568,297.142,390.833,288.003,382.092,288.003
			L382.092,288.003z"/>
		
			<linearGradient id="SVGID_7_" gradientUnits="userSpaceOnUse" x1="211.8247" y1="445.7169" x2="298.5209" y2="460.9689" gradientTransform="matrix(1.0039 0 0 1.0039 232.6473 -54.4636)">
			<stop  offset="0" style="stop-color:#92F37F"/>
			<stop  offset="1" style="stop-color:#4AB272"/>
		</linearGradient>
		<path fill="url(#SVGID_7_)" d="M498.403,355.917c-1.703-7.751-8.633-13.234-16.57-13.234h-17.377h-9.289
			c-15.788,0-28.586,12.799-28.586,28.586v3.478c0,13.867,11.242,25.108,25.109,25.108c7.051,0,12.766,5.716,12.766,12.767v33.338
			c0,8.687,11.28,12.148,16.108,4.925c10.033-15.009,16.858-32.347,19.495-51.03c0.798-5.675,1.213-11.481,1.213-17.378
			C501.272,373.357,500.281,364.471,498.403,355.917L498.403,355.917z"/>
		
			<linearGradient id="SVGID_8_" gradientUnits="userSpaceOnUse" x1="225.5698" y1="367.5864" x2="312.2664" y2="382.8384" gradientTransform="matrix(1.0039 0 0 1.0039 232.6473 -54.4636)">
			<stop  offset="0" style="stop-color:#92F37F"/>
			<stop  offset="1" style="stop-color:#4AB272"/>
		</linearGradient>
		<path fill="url(#SVGID_8_)" d="M488.036,326.852h-36.821c-6.586,0-11.926-5.339-11.926-11.926S444.628,303,451.215,303h21.018
			C478.378,310.276,483.695,318.276,488.036,326.852L488.036,326.852z"/>
		
			<linearGradient id="SVGID_9_" gradientUnits="userSpaceOnUse" x1="167.3654" y1="448.2485" x2="336.1418" y2="134.3482" gradientTransform="matrix(1.0039 0 0 1.0039 232.6473 -54.4636)">
			<stop  offset="0" style="stop-color:#0469BC;stop-opacity:0"/>
			<stop  offset="1" style="stop-color:#0469BC"/>
		</linearGradient>
		<path fill="url(#SVGID_9_)" d="M433.145,272.209c8.314,16.593,13,35.319,13,55.142c0,68.079-55.189,123.268-123.268,123.268
			c-19.823,0-38.549-4.686-55.142-13c20.239,40.394,62.012,68.127,110.268,68.127c68.079,0,123.268-55.189,123.268-123.268
			C501.272,334.221,473.539,292.448,433.145,272.209z"/>
	</g>
</g>
</svg>
