<?xml version="1.0" encoding="utf-8"?>
<!-- Generator: Adobe Illustrator 17.0.0, SVG Export Plug-In . SVG Version: 6.00 Build 0)  -->
<!DOCTYPE svg PUBLIC "-//W3C//DTD SVG 1.1//EN" "http://www.w3.org/Graphics/SVG/1.1/DTD/svg11.dtd">
<svg version="1.1" id="Capa_1" xmlns="http://www.w3.org/2000/svg" xmlns:xlink="http://www.w3.org/1999/xlink" x="0px" y="0px"
	 width="512px" height="512px" viewBox="0 0 512 512" enable-background="new 0 0 512 512" xml:space="preserve">
<g>
	<path fill="#FF5C5C" d="M512,141.379c0-74.23-60.833-134.62-135.606-134.62c-60.443,0-94.275,28.618-121.355,73.676
		C227.69,34.364,195.019,6.759,135.466,6.759C60.769,6.759,0,67.149,0,141.379c0,65.369,31.562,130.818,102.337,212.216
		l11.812-10.271c24.383,19.838,28.708,29.602,62.272,41.885c28.434,10.405,58.402,16.48,88.604,18.371
		c26.199,1.64,52.408,0.153,76.936-9.88c10.525-4.305,20.354-10.236,28.744-17.933c9.324-8.554,15.633-19.771,21.109-31.022
		c6.312-12.969,11.707-28.443,22.787-38.208c5.868-5.172,12.918-8.438,19.426-12.495l14.183,10.407
		C491.134,245.949,512,192.609,512,141.379L512,141.379z"/>
	<path fill="#FF3838" d="M376.394,6.759c-60.443,0-94.275,28.618-121.355,73.676c-0.026-0.045-0.054-0.088-0.08-0.132v322.482
		c3.351,0.314,6.707,0.585,10.066,0.795c26.199,1.64,52.408,0.153,76.936-9.88c10.525-4.305,20.354-10.236,28.744-17.933
		c9.324-8.554,15.633-19.771,21.109-31.022c6.312-12.969,11.707-28.443,22.787-38.208c5.868-5.172,12.918-8.438,19.426-12.495
		l14.183,10.407c42.924-58.5,63.79-111.84,63.79-163.07C512,67.149,451.167,6.759,376.394,6.759L376.394,6.759z"/>
	<g>
		<path fill="#E4F3FF" d="M307.459,216.815h-37.5v-37.5h-30v37.5h-37.5v30h37.5v37.5h30v-37.5h37.5V216.815z"/>
		<path fill="#C3DAFD" d="M269.959,216.815v-37.5h-15v105h15v-37.5h37.5v-30H269.959z"/>
		<path fill="#B6DC45" d="M232.836,505.236c-89.197-0.003-149.81-67.687-138.229-156.879l2.009-17.553
			c7.967-0.886,19.258-3.087,35.594-3.087c89.785,0,149.902,68.031,138.367,156.864l-2.018,17.525l-11.609,1.524
			C243.492,505.397,232.735,505.24,232.836,505.236L232.836,505.236z"/>
		<path fill="#98B939" d="M270.728,483.291l-6.472-6.462l0.01-0.01L192.1,404.765l-21.196,21.23
			c15.605,15.584,71.325,71.232,78.556,78.454c6.408-0.587,8.635-0.998,13.658-1.627l6.056-6.066
			C269.618,492.907,270.642,484.002,270.728,483.291L270.728,483.291z"/>
		<path fill="#73CA7A" d="M256.438,502.539l-11.608-1.524l-2.223-19.279c-14.567-112.033,60.907-197.827,174.485-197.827
			c20.097,0,34.23,2.657,42.038,3.511l2.209,19.31C477.294,429.483,385.305,519.453,256.438,502.539z"/>
		<path fill="#62A872" d="M342.782,382.21c-0.317,0.317,6.977-6.968-100.12,99.995l2.169,18.81
			c10.208,1.315,13.1,1.787,19.063,2.384c9.911-9.899,88.785-88.674,100.085-99.96L342.782,382.21z"/>
	</g>
</g>
<g>
	
		<linearGradient id="SVGID_1_" gradientUnits="userSpaceOnUse" x1="29.5222" y1="269.6703" x2="178.3431" y2="120.8494" gradientTransform="matrix(1.0039 0 0 -1.0039 288.6726 593.5118)">
		<stop  offset="0" style="stop-color:#18CFFC"/>
		<stop  offset="1" style="stop-color:#4A98F7"/>
	</linearGradient>
	<circle fill="url(#SVGID_1_)" cx="378.004" cy="382.477" r="123.268"/>
	
		<linearGradient id="SVGID_2_" gradientUnits="userSpaceOnUse" x1="107.7493" y1="75.0264" x2="63.5677" y2="393.282" gradientTransform="matrix(1.0039 0 0 -1.0039 288.6726 593.5118)">
		<stop  offset="0" style="stop-color:#18CFFC;stop-opacity:0"/>
		<stop  offset="1" style="stop-color:#65E1DC"/>
	</linearGradient>
	<path fill="url(#SVGID_2_)" d="M464.8,317.641c-4.23-3.107-8.715-5.957-13.415-8.545c-2.588-4.7-5.438-9.186-8.545-13.415
		c-17.254-23.489-40.281-36.425-64.836-36.425c-24.556,0-47.582,12.936-64.836,36.425c-3.107,4.23-5.957,8.715-8.545,13.415
		c-4.7,2.588-9.185,5.438-13.415,8.545c-23.488,17.254-36.424,40.28-36.424,64.836s12.936,47.582,36.425,64.836
		c4.23,3.107,8.715,5.957,13.415,8.545c2.588,4.7,5.438,9.185,8.545,13.415c17.255,23.489,40.281,36.425,64.836,36.425
		c24.556,0,47.582-12.936,64.836-36.425c3.107-4.23,5.957-8.715,8.545-13.415c4.7-2.588,9.185-5.438,13.415-8.545
		c23.489-17.255,36.425-40.281,36.425-64.836S488.289,334.896,464.8,317.641z M378.004,499.897c-6.767,0-13.94-10.08-19.61-27.281
		c6.427,0.756,12.978,1.148,19.61,1.148s13.183-0.392,19.611-1.148C391.944,489.817,384.771,499.897,378.004,499.897z
		 M378.004,467.963c-7.332,0-14.507-0.496-21.47-1.437c-3.864-13.664-6.67-30.066-8.275-47.975
		c9.613,0.687,19.585,1.041,29.745,1.041s20.133-0.354,29.745-1.041c-1.605,17.908-4.411,34.31-8.275,47.975
		C392.511,467.467,385.336,467.963,378.004,467.963L378.004,467.963z M378.004,265.057c6.767,0,13.94,10.08,19.611,27.281
		c-6.427-0.756-12.978-1.148-19.611-1.148s-13.183,0.392-19.61,1.148C364.064,275.138,371.237,265.057,378.004,265.057z
		 M378.004,296.991c7.332,0,14.507,0.496,21.47,1.437c3.864,13.664,6.67,30.066,8.275,47.975
		c-9.613-0.687-19.586-1.041-29.745-1.041c-10.16,0-20.133,0.354-29.745,1.041c1.605-17.908,4.411-34.311,8.275-47.975
		C363.497,297.488,370.672,296.991,378.004,296.991L378.004,296.991z M346.689,382.477c0-10.343,0.373-20.478,1.092-30.223
		c9.745-0.719,19.881-1.092,30.223-1.092s20.478,0.373,30.223,1.092c0.719,9.745,1.092,19.881,1.092,30.223
		c0,10.343-0.373,20.478-1.092,30.223c-9.745,0.719-19.881,1.092-30.223,1.092s-20.478-0.373-30.223-1.092
		C347.062,402.955,346.689,392.82,346.689,382.477z M341.93,412.223c-17.908-1.605-34.311-4.411-47.975-8.275
		c-0.941-6.963-1.437-14.138-1.437-21.47s0.496-14.507,1.437-21.47c13.664-3.864,30.066-6.67,47.975-8.275
		c-0.687,9.613-1.041,19.585-1.041,29.745C340.888,392.637,341.242,402.61,341.93,412.223z M414.078,352.732
		c17.908,1.605,34.31,4.411,47.975,8.275c0.941,6.963,1.437,14.138,1.437,21.47c0,7.332-0.496,14.507-1.437,21.47
		c-13.664,3.864-30.066,6.67-47.975,8.275c0.687-9.613,1.041-19.585,1.041-29.745S414.766,362.344,414.078,352.732L414.078,352.732z
		 M413.613,346.868c-1.528-17.553-4.19-33.739-7.855-47.458c15.127,2.68,29.115,7.496,41.327,13.987
		c6.49,12.212,11.307,26.2,13.986,41.326C447.353,351.058,431.166,348.396,413.613,346.868z M342.394,346.868
		c-17.553,1.528-33.739,4.19-47.458,7.855c2.679-15.127,7.496-29.115,13.986-41.326c12.212-6.49,26.2-11.307,41.326-13.986
		C346.585,313.128,343.922,329.315,342.394,346.868z M287.865,402.087c-17.201-5.67-27.281-12.843-27.281-19.61
		c0-6.767,10.08-13.94,27.281-19.61c-0.756,6.427-1.148,12.978-1.148,19.61C286.717,389.109,287.109,395.661,287.865,402.087z
		 M342.394,418.087c1.528,17.553,4.19,33.739,7.855,47.458c-15.127-2.679-29.115-7.496-41.326-13.986
		c-6.49-12.212-11.307-26.2-13.986-41.327C308.655,413.896,324.841,416.559,342.394,418.087z M413.613,418.087
		c17.553-1.528,33.739-4.19,47.458-7.855c-2.679,15.127-7.496,29.115-13.986,41.326c-12.212,6.491-26.2,11.307-41.327,13.987
		C409.423,451.826,412.086,435.64,413.613,418.087L413.613,418.087z M468.143,362.867c17.201,5.671,27.28,12.843,27.28,19.61
		s-10.08,13.939-27.28,19.61c0.756-6.427,1.148-12.978,1.148-19.61S468.899,369.294,468.143,362.867L468.143,362.867z
		 M494.054,369.414c-5.676-4.84-14.673-9.191-26.787-12.914c-2.11-13.356-5.844-26.082-11.07-37.737
		C476.03,331.677,489.823,349.411,494.054,369.414L494.054,369.414z M441.719,304.285c-11.655-5.227-24.381-8.961-37.738-11.07
		c-3.723-12.114-8.074-21.112-12.914-26.787C411.07,270.658,428.804,284.451,441.719,304.285L441.719,304.285z M364.94,266.427
		c-4.84,5.676-9.191,14.673-12.914,26.787c-13.356,2.11-26.082,5.844-37.737,11.07C327.204,284.451,344.937,270.658,364.94,266.427z
		 M299.811,318.762c-5.227,11.655-8.961,24.381-11.07,37.737c-12.114,3.723-21.112,8.074-26.787,12.914
		C266.185,349.411,279.978,331.677,299.811,318.762z M261.953,395.541c5.676,4.84,14.673,9.191,26.787,12.914
		c2.11,13.356,5.844,26.082,11.07,37.738C279.978,433.277,266.185,415.544,261.953,395.541z M314.289,460.67
		c11.655,5.227,24.381,8.961,37.737,11.07c3.723,12.114,8.074,21.112,12.914,26.787C344.937,494.297,327.204,480.503,314.289,460.67
		z M391.067,498.528c4.84-5.676,9.191-14.673,12.914-26.787c13.357-2.11,26.083-5.844,37.738-11.07
		C428.804,480.503,411.07,494.297,391.067,498.528L391.067,498.528z M456.197,446.192c5.227-11.655,8.961-24.381,11.07-37.737
		c12.114-3.723,21.111-8.074,26.787-12.914C489.823,415.543,476.03,433.277,456.197,446.192z"/>
	
		<linearGradient id="SVGID_3_" gradientUnits="userSpaceOnUse" x1="115.4922" y1="183.7003" x2="-6.8453" y2="306.0378" gradientTransform="matrix(1.0039 0 0 -1.0039 288.6726 593.5118)">
		<stop  offset="0" style="stop-color:#18CFFC;stop-opacity:0"/>
		<stop  offset="1" style="stop-color:#65E1DC"/>
	</linearGradient>
	<circle fill="url(#SVGID_3_)" cx="378.004" cy="382.477" r="110.033"/>
	
		<linearGradient id="SVGID_4_" gradientUnits="userSpaceOnUse" x1="10.9512" y1="203.8174" x2="204.4131" y2="66.5476" gradientTransform="matrix(1.0039 0 0 -1.0039 288.6726 593.5118)">
		<stop  offset="0" style="stop-color:#92F37F"/>
		<stop  offset="1" style="stop-color:#4AB272"/>
	</linearGradient>
	<path fill="url(#SVGID_4_)" d="M366.485,387.61l4.772,4.772c1.746,1.746,2.726,4.113,2.726,6.581c0,5.14,4.167,9.307,9.307,9.307
		c5.36,0,9.706,4.345,9.706,9.706c0,6.97-1.454,13.864-4.27,20.24l-17.181,38.908c-2.352,5.326-9.32,6.628-13.437,2.511
		c-6.001-6.001-9.372-14.139-9.372-22.625v-4.526c0-11.798-4.687-23.114-13.03-31.457l-0.509-0.509
		c-7.851-7.851-12.262-18.5-12.262-29.603v-1.622c0-7.702,6.244-13.946,13.946-13.946
		C347.985,375.348,358.634,379.759,366.485,387.61L366.485,387.61z"/>
	
		<linearGradient id="SVGID_5_" gradientUnits="userSpaceOnUse" x1="50.4094" y1="259.4275" x2="243.8708" y2="122.1581" gradientTransform="matrix(1.0039 0 0 -1.0039 288.6726 593.5118)">
		<stop  offset="0" style="stop-color:#92F37F"/>
		<stop  offset="1" style="stop-color:#4AB272"/>
	</linearGradient>
	<path fill="url(#SVGID_5_)" d="M335.608,266.696c-30.863,11.305-55.943,34.599-69.605,64.241
		c-1.619,3.513-2.421,7.348-2.421,11.215c0,7.205,2.862,14.115,7.957,19.21l2.52,2.52c11.29,11.29,26.603,17.633,42.569,17.633
		c2.385,0,4.319-1.934,4.319-4.319s-1.934-4.319-4.319-4.319h-13.276c-6.123,0-11.087-4.964-11.087-11.087
		s4.964-11.087,11.087-11.087h10.37c12.434,0,24.358-4.939,33.15-13.731l16.01-16.01c3.486-3.486,8.215-5.445,13.145-5.445
		c7.133,0,13.636-4.081,16.739-10.503c3.803-7.871-1.932-17.01-10.673-17.01h-20.657c-6.074,0-10.997-4.923-10.997-10.997
		C350.438,269.342,342.805,264.06,335.608,266.696L335.608,266.696z"/>
	
		<linearGradient id="SVGID_6_" gradientUnits="userSpaceOnUse" x1="58.8845" y1="249.3368" x2="4.0788" y2="304.1425" gradientTransform="matrix(1.0039 0 0 -1.0039 288.6726 593.5118)">
		<stop  offset="0" style="stop-color:#92F37F;stop-opacity:0"/>
		<stop  offset="1" style="stop-color:#FFEE83"/>
	</linearGradient>
	<path fill="url(#SVGID_6_)" d="M382.092,288.003h-20.657c-6.074,0-10.997-4.923-10.997-10.997c0-0.361-0.022-0.714-0.055-1.064
		c-40.271,10.412-71.597,43.053-80.109,84.054c0.407,0.467,0.825,0.926,1.265,1.367l2.52,2.52
		c11.29,11.29,26.603,17.633,42.569,17.633c2.385,0,4.319-1.934,4.319-4.319c0-2.385-1.934-4.319-4.319-4.319h-13.276
		c-6.123,0-11.087-4.964-11.087-11.087c0-6.123,4.964-11.087,11.087-11.087h10.37c12.434,0,24.358-4.939,33.15-13.731l16.01-16.01
		c3.486-3.486,8.215-5.445,13.145-5.445c7.133,0,13.636-4.081,16.739-10.503C396.568,297.142,390.833,288.003,382.092,288.003
		L382.092,288.003z"/>
	
		<linearGradient id="SVGID_7_" gradientUnits="userSpaceOnUse" x1="156.0161" y1="199.7362" x2="242.7123" y2="184.4842" gradientTransform="matrix(1.0039 0 0 -1.0039 288.6726 593.5118)">
		<stop  offset="0" style="stop-color:#92F37F"/>
		<stop  offset="1" style="stop-color:#4AB272"/>
	</linearGradient>
	<path fill="url(#SVGID_7_)" d="M498.403,355.917c-1.703-7.751-8.633-13.234-16.57-13.234h-17.377h-9.289
		c-15.788,0-28.586,12.799-28.586,28.586v3.478c0,13.867,11.242,25.108,25.109,25.108c7.051,0,12.766,5.716,12.766,12.767v33.338
		c0,8.687,11.28,12.148,16.108,4.925c10.033-15.009,16.858-32.347,19.495-51.03c0.798-5.675,1.213-11.481,1.213-17.378
		C501.272,373.357,500.281,364.471,498.403,355.917L498.403,355.917z"/>
	
		<linearGradient id="SVGID_8_" gradientUnits="userSpaceOnUse" x1="169.761" y1="277.8652" x2="256.4576" y2="262.6132" gradientTransform="matrix(1.0039 0 0 -1.0039 288.6726 593.5118)">
		<stop  offset="0" style="stop-color:#92F37F"/>
		<stop  offset="1" style="stop-color:#4AB272"/>
	</linearGradient>
	<path fill="url(#SVGID_8_)" d="M488.036,326.852h-36.821c-6.586,0-11.926-5.339-11.926-11.926s5.339-11.926,11.926-11.926h21.018
		C478.378,310.276,483.695,318.276,488.036,326.852L488.036,326.852z"/>
	
		<linearGradient id="SVGID_9_" gradientUnits="userSpaceOnUse" x1="111.5582" y1="197.2093" x2="280.3346" y2="511.1096" gradientTransform="matrix(1.0039 0 0 -1.0039 288.6726 593.5118)">
		<stop  offset="0" style="stop-color:#0469BC;stop-opacity:0"/>
		<stop  offset="1" style="stop-color:#0469BC"/>
	</linearGradient>
	<path fill="url(#SVGID_9_)" d="M433.145,272.209c8.314,16.593,13,35.319,13,55.142c0,68.079-55.189,123.268-123.268,123.268
		c-19.823,0-38.549-4.686-55.142-13c20.239,40.394,62.012,68.127,110.268,68.127c68.079,0,123.268-55.189,123.268-123.268
		C501.272,334.221,473.539,292.448,433.145,272.209z"/>
</g>
</svg>
