<?xml version="1.0" encoding="utf-8"?>
<!-- Generator: Adobe Illustrator 17.0.0, SVG Export Plug-In . SVG Version: 6.00 Build 0)  -->
<!DOCTYPE svg PUBLIC "-//W3C//DTD SVG 1.1//EN" "http://www.w3.org/Graphics/SVG/1.1/DTD/svg11.dtd">
<svg version="1.1" id="Capa_1" xmlns="http://www.w3.org/2000/svg" xmlns:xlink="http://www.w3.org/1999/xlink" x="0px" y="0px"
	 width="512px" height="512px" viewBox="0 0 512 512" enable-background="new 0 0 512 512" xml:space="preserve">
<g>
	<g>
		<g>
			<path fill="#F3F0F3" d="M448.431,306.47h-33.936V119.609C414.494,53.551,360.944,0,294.886,0h-16.794
				c-66.058,0-119.608,53.551-119.608,119.609V306.47h-22.181v64.79l13.828-14.122c3.022-3.022,7.045-4.691,11.319-4.691
				c4.24,0,8.222,1.646,11.212,4.636c6.195,6.195,6.166,16.305-0.066,22.536l-33.365,33.365c-2.135,2.135-3.311,4.973-3.311,7.992
				V512h348.567c5.69,0,10.302-4.612,10.302-10.302v-148.87C494.789,327.225,474.034,306.47,448.431,306.47L448.431,306.47z"/>
		</g>
		<g>
			<path fill="#05E39C" d="M436.895,403.831h-16.998c-1.707,0-3.091-1.384-3.091-3.091v-16.998c0-1.707-1.384-3.091-3.091-3.091
				h-19.573c-1.707,0-3.091,1.384-3.091,3.091v16.998c0,1.707-1.384,3.091-3.091,3.091h-16.998c-1.707,0-3.091,1.384-3.091,3.091
				v19.573c0,1.707,1.384,3.091,3.091,3.091h16.998c1.707,0,3.091,1.384,3.091,3.091v16.998c0,1.707,1.384,3.091,3.091,3.091h19.573
				c1.707,0,3.091-1.384,3.091-3.091v-16.998c0-1.707,1.384-3.091,3.091-3.091h16.998c1.707,0,3.091-1.384,3.091-3.091v-19.573
				C439.985,405.215,438.602,403.831,436.895,403.831z"/>
		</g>
		<g>
			<path fill="#E2DEE2" d="M158.483,152.152c0-34.366,18.352-64.526,45.769-81.196c17.44-39.115,55.254-67.147,99.962-70.596
				C301.135,0.123,298.025,0,294.886,0h-16.794c-66.058,0-119.608,53.55-119.608,119.608L158.483,152.152z"/>
			<g>
				<path fill="#E2DEE2" d="M158.483,207.658v98.811h-21.181v36.854c6.71-3.776,14.448-5.939,22.695-5.939h18.484
					c8.534,0,15.453-6.918,15.453-15.453v-35.436C172.199,267.148,158.483,238.977,158.483,207.658L158.483,207.658z"/>
			</g>
		</g>
		<path fill="#CBC4CC" d="M264.033,313.209c-58.2,0-105.551-47.35-105.551-105.551v-55.507c0-52.358,42.596-94.954,94.954-94.954
			h66.104c52.357,0,94.954,42.596,94.954,94.954v55.507c0,58.201-47.35,105.551-105.552,105.551H264.033z"/>
		<path fill="#E2DEE2" d="M268.746,313.209h35.484V512h-35.484V313.209z"/>
		<path fill="#CBC4CC" d="M264.033,313.209c-58.2,0-105.551-47.35-105.551-105.551v-55.507c0-52.358,42.596-94.954,94.954-94.954
			h66.104c52.357,0,94.954,42.596,94.954,94.954v55.507c0,58.201-47.35,105.551-105.552,105.551H264.033z"/>
		<g>
			<path fill="#B5ADB6" d="M181.238,206.869v-53.555c0-32.054,20.672-59.353,49.378-69.314
				c17.103-16.579,40.401-26.802,66.045-26.802h-43.225c-52.357,0-94.954,42.596-94.954,94.954v55.507
				c0,58.201,47.35,105.551,105.551,105.551h43.225c-27.555,0-52.674-10.618-71.491-27.973
				C203.961,273.406,181.238,242.744,181.238,206.869z"/>
		</g>
		<g>
			<path fill="#F6A96C" d="M308.153,282.954h-43.33c-42.021,0-76.085-34.064-76.085-76.085v-53.555
				c0-36.374,29.487-65.86,65.86-65.86h63.779c36.374,0,65.86,29.487,65.86,65.86v53.555
				C384.238,248.889,350.174,282.954,308.153,282.954z"/>
			<path fill="#FFFFFF" d="M264.823,276.454h43.33c38.369,0,69.585-31.216,69.585-69.585V196.25h-63.435l-15.453-19.573h-24.724
				l-15.453,19.573h-63.435v10.619C195.238,245.238,226.454,276.454,264.823,276.454z"/>
			<path fill="#F3F0F3" d="M263.833,275.428c-25.477-12.297-43.055-38.375-43.055-68.56v-3.119h-24.539v3.119
				C196.238,244.354,226.472,274.895,263.833,275.428z"/>
			<path fill="#8AC9FE" d="M195.238,196.25h63.435l15.453-19.573h24.724l15.453,19.573h63.435v-42.936
				c0-14.658-5.352-28.082-14.189-38.449H209.427c-8.837,10.367-14.189,23.791-14.189,38.449L195.238,196.25z"/>
			<path fill="#60B7FF" d="M188.738,153.314v42.935h32.039v-42.935c0-14.356,4.607-27.628,12.404-38.449h-32.039
				C193.346,125.686,188.738,138.958,188.738,153.314z"/>
			<g>
				<path fill="#26A6FE" d="M203.967,122.365h165.042c-3.501-5.707-7.939-10.778-13.099-15H217.066
					C211.906,111.588,207.468,116.659,203.967,122.365L203.967,122.365z"/>
			</g>
			<g>
				<path fill="#26A6FE" d="M267.654,196.979l9.266-11.737c0.534-0.677,1.336-1.065,2.199-1.065h14.74
					c0.863,0,1.665,0.388,2.199,1.065l9.266,11.737c3.397,4.303,8.49,6.771,13.972,6.771h58.443v-15h-58.443
					c-0.863,0-1.664-0.389-2.199-1.066l-9.266-11.737c-3.397-4.303-8.49-6.771-13.972-6.771h-14.74
					c-5.483,0-10.576,2.468-13.973,6.771l-9.266,11.737c-0.535,0.677-1.336,1.066-2.199,1.066h-58.443v15h58.443
					C259.164,203.75,264.256,201.282,267.654,196.979L267.654,196.979z"/>
			</g>
			<g>
				<g>
					<path fill="#26A6FE" d="M243.432,170.784c-4.142,0-7.5-3.358-7.5-7.5v-22.11c0-4.142,3.358-7.5,7.5-7.5s7.5,3.358,7.5,7.5
						v22.11C250.932,167.426,247.574,170.784,243.432,170.784z"/>
				</g>
				<g>
					<path fill="#26A6FE" d="M329.545,170.784c-4.142,0-7.5-3.358-7.5-7.5v-22.11c0-4.142,3.358-7.5,7.5-7.5s7.5,3.358,7.5,7.5
						v22.11C337.045,167.426,333.687,170.784,329.545,170.784z"/>
				</g>
			</g>
			<g>
				<g>
					<path fill="#E2DEE2" d="M333.876,225.254H239.1c-4.142,0-7.5-3.358-7.5-7.5s3.358-7.5,7.5-7.5h94.776
						c4.142,0,7.5,3.358,7.5,7.5S338.019,225.254,333.876,225.254z"/>
				</g>
				<g>
					<path fill="#E2DEE2" d="M329.364,252.168h-85.75c-4.142,0-7.5-3.358-7.5-7.5s3.358-7.5,7.5-7.5h85.75
						c4.142,0,7.5,3.358,7.5,7.5S333.506,252.168,329.364,252.168z"/>
				</g>
			</g>
		</g>
		<g>
			<path fill="#0ED290" d="M404.157,442.113c-1.707,0-3.091-1.384-3.091-3.091v-16.998c0-1.707-1.384-3.091-3.091-3.091h-16.998
				c-1.707,0-3.091-1.384-3.091-3.091V403.83h-6.924c-1.707,0-3.091,1.384-3.091,3.091v19.573c0,1.707,1.384,3.091,3.091,3.091
				h16.998c1.707,0,3.091,1.384,3.091,3.091v16.998c0,1.707,1.384,3.091,3.091,3.091h19.573c1.707,0,3.091-1.384,3.091-3.091v-7.561
				H404.157z"/>
		</g>
		<path fill="#05E39C" d="M173.368,356.376c-6.598-6.598-17.322-6.568-23.952,0.062l-12.113,12.371v-95.87
			c0.015-5.822-4.735-10.573-10.558-10.556l-4.649,0.013c-5.821,0.016-10.597,4.792-10.613,10.613v73.54l-5.574,0.016v-83.356
			c0.017-5.821-4.735-10.573-10.556-10.556l-4.651,0.013c-5.823,0.015-10.598,4.792-10.614,10.613v83.355l-5.599,0.015v-83.358
			c0.015-5.82-4.736-10.571-10.556-10.557l-4.651,0.014c-5.82,0.012-10.595,4.788-10.612,10.612v83.358l-5.641,0.013v-69.05
			c0.017-5.822-4.734-10.574-10.557-10.557l-4.647,0.013c-5.823,0.015-10.596,4.789-10.613,10.613v223.93
			c-0.01,5.697,4.213,10.32,9.909,10.32H136.92v-91.025c0-2.732,1.085-5.353,3.017-7.284l33.365-33.365
			C179.933,373.695,179.962,362.97,173.368,356.376L173.368,356.376z"/>
		<g>
			<path fill="#0ED290" d="M45.647,501.68V346.725l-2.619,0.006v-69.05c0.017-5.822-4.734-10.574-10.557-10.557l-4.647,0.013
				c-5.823,0.015-10.596,4.789-10.613,10.613v223.93c-0.01,5.697,4.213,10.32,9.909,10.32h28.435
				C49.86,512,45.637,507.377,45.647,501.68L45.647,501.68z"/>
		</g>
	</g>
	<g>
		<g>
			<path fill="#E2DEE2" d="M308.153,290.454h-43.33c-46.089,0-83.585-37.496-83.585-83.585v-53.555
				c0-40.451,32.909-73.36,73.36-73.36h63.779c40.451,0,73.36,32.909,73.36,73.36v53.555
				C391.738,252.958,354.242,290.454,308.153,290.454z M254.599,94.954c-32.18,0-58.36,26.18-58.36,58.36v53.555
				c0,37.818,30.767,68.585,68.585,68.585h43.33c37.818,0,68.585-30.767,68.585-68.585v-53.555c0-32.18-26.18-58.36-58.36-58.36
				L254.599,94.954z"/>
		</g>
	</g>
</g>
<g>
	<path fill="#FFD250" d="M499.987,335.316H247.933c-2.486,0-4.501,2.015-4.501,4.501v162.035c0,2.486,2.016,4.501,4.501,4.501
		h252.055c2.486,0,4.501-2.016,4.501-4.501V339.817C504.489,337.331,502.473,335.316,499.987,335.316z"/>
	<path fill="#963C3C" d="M337.952,353.32V488.35c0,2.486,2.016,4.501,4.501,4.501h144.031c2.486,0,4.501-2.016,4.501-4.501V353.32
		c0-2.486-2.016-4.501-4.501-4.501H342.453C339.968,348.819,337.952,350.834,337.952,353.32z"/>
	<path fill="#5AA587" d="M290.692,348.819h-29.257c-2.486,0-4.501,2.016-4.501,4.501V488.35c0,2.486,2.016,4.501,4.501,4.501h29.257
		V348.819z"/>
	<path fill="#FF7350" d="M319.949,348.819h-29.256v144.031h29.256c2.486,0,4.501-2.016,4.501-4.501V353.32
		C324.45,350.834,322.434,348.819,319.949,348.819z"/>
	<g>
		<path fill="#FFD250" d="M444.095,456.901c-0.151-1.006,0.735-2.305,2.103-4.172c0.495-0.675,1.21-1.652,1.403-2.12
			c-0.127-0.009-0.303,0.001-0.433,0.008c-0.757,0.037-1.903,0.089-2.904-1.022c-0.392-0.435-0.58-0.98-0.544-1.575
			c0.075-1.209,1.062-2.397,1.674-3.026c-1.579-1.109-3.088-2.261-4.479-3.652c-2.659-2.659-5.691-3.939-9.039-3.869
			c-0.31,3.33,1.406,5.52,3.238,7.825c0.54,0.679,1.078,1.356,1.567,2.064c2.409,3.488,1.905,10.223,1.6,10.936
			c-0.346,0.809-2.251,2.601-4.864,2.252c-1.202-0.158-2.585,0.246-3.457,1.008c-0.375,0.328-0.822,0.873-0.822,1.605
			c0,0.037,0.003,0.222,0.06,0.256c0.351,0.212,1.663-0.202,2.601-0.709c0.259-0.141,0.581-0.099,0.799,0.103
			c1.847,1.73,3.702,0.235,3.906,0.059c0.253-0.217,0.627-0.224,0.885-0.016c1.891,1.523,3.861-0.142,3.944-0.214
			c0.232-0.2,0.572-0.224,0.83-0.056c0.82,0.538,1.57,0.691,2.24,0.462c0.584-0.203,0.894-0.642,0.931-0.749
			c0.017-0.279-0.358-1.721-0.607-2.675C444.468,458.623,444.199,457.588,444.095,456.901z"/>
		<path fill="#FFD250" d="M464.569,393.131c-0.57-0.043-0.982,0.08-1.264,0.359c-0.518,0.511-0.475,1.433-0.474,1.442
			c0.011,0.205-0.07,0.405-0.22,0.545c-0.151,0.139-0.353,0.211-0.558,0.18c-1.024-0.134-2.538-1.215-5.348-3.274
			c-4.464-3.272-11.211-8.217-17.647-9.03c-7.482-0.95-14.14,1.436-15.832,5.666c-1.883,4.709,2.12,9,2.16,9.043
			c0.203,0.216,0.248,0.537,0.109,0.799c-1.055,1.988-0.256,3.456,0.465,4.26c0.226-0.664,0.563-1.117,1.028-1.396
			c1.123-0.671,2.589-0.116,4.617,0.652c1.198,0.453,2.556,0.967,4.14,1.355c4.061,0.995,9.013,0.108,13.383-0.675
			c1.544-0.277,3.034-0.543,4.419-0.719c3.485-0.444,6.979,1.1,7.939,3.521c0.466,1.173,0.714,3.526-2.846,6.115
			c-6.402,4.657-35.597,2.508-37.317,2.377c-0.038,0.004-0.076,0.007-0.157,0.012c0.638,0.717,1.387,1.416,1.714,1.503
			c0.332,0.089,0.549,0.409,0.507,0.751c-0.042,0.342-0.33,0.6-0.674,0.605l-2.991,0.045l0.275,2.878
			c0.02,0.212-0.059,0.422-0.215,0.568c-0.156,0.146-0.371,0.208-0.58,0.179c-0.117-0.019-2.699-0.432-4.483-1.424l-3.378,2.131
			c-0.111,0.07-0.24,0.106-0.369,0.106c-0.075,0-0.15-0.012-0.222-0.037c-0.197-0.067-0.354-0.219-0.426-0.415l-1.289-3.504
			l-1.528,3.057c-0.112,0.224-0.335,0.369-0.584,0.381c-0.248,0.026-0.485-0.11-0.618-0.322l-1.31-2.088
			c-0.599,0.749-1.56,1.838-2.542,2.518c-0.179,0.126-0.407,0.157-0.615,0.086c-0.208-0.071-0.369-0.236-0.435-0.445l-0.686-2.166
			c-0.607,0.768-1.486,1.786-2.416,2.549c-0.199,0.165-0.474,0.203-0.712,0.099c-0.238-0.103-0.397-0.331-0.413-0.588l-0.221-3.483
			c-0.786,0.401-1.856,0.923-2.449,1.108c-0.27,0.085-0.567-0.006-0.744-0.227c-0.178-0.222-0.201-0.529-0.059-0.776
			c1.064-1.848,2.041-4.155,2.115-5.302c-0.706,0.845-1.693,1.654-2.797,2.551c-2.348,1.912-5.271,4.29-7.422,8.452
			c-1.502,2.909-2.581,7.983-0.679,12.714c1.624,4.036,5.119,7.047,10.355,8.981c-0.175-0.764-0.31-1.514-0.323-2.219
			c-0.068-3.583,0.676-6.854,0.708-6.992c0.086-0.372,0.455-0.607,0.827-0.517c0.372,0.086,0.603,0.456,0.518,0.827
			c-0.007,0.032-0.736,3.248-0.672,6.655c0.032,1.668,0.75,3.726,1.442,5.715c0.921,2.645,1.874,5.38,1.46,7.682
			c-0.564,3.129-4.459,3.922-8.075,3.318c-1.028-0.173-1.963,0.081-2.635,0.708c-0.682,0.636-1.031,1.611-0.935,2.608
			c0.045,0.47,0.221,0.564,0.278,0.596c0.435,0.235,1.458-0.085,2.011-0.374c0.278-0.146,0.623-0.086,0.836,0.152
			c1.45,1.624,3.403,0.004,3.485-0.067c0.28-0.236,0.698-0.215,0.95,0.054c0.546,0.582,1.125,0.872,1.769,0.887
			c1.177,0.072,2.295-0.977,2.307-0.986c0.203-0.198,0.509-0.25,0.767-0.133c2.276,1.042,3.47,0.436,3.519,0.408
			c1.975-1.684,0.834-5.678,0.822-5.719c-0.054-0.183-0.03-0.379,0.066-0.543c0.096-0.164,0.256-0.281,0.441-0.324
			c2.766-0.634,4.312-2.409,5.06-3.586c-1.366-0.013-2.453-0.493-3.092-1.492c-1.03-1.614-0.535-4.043,1.261-6.19
			c3.074-3.673,4.953-11.107,4.671-14.135c-0.035-0.379,0.244-0.715,0.624-0.751c0.369-0.038,0.715,0.244,0.751,0.624
			c0.246,2.652-0.949,8.152-3.132,12.299c2.765-0.765,5.288-1.884,7.92-3.085c2.617-1.194,5.324-2.428,8.576-3.447
			c5.497-1.721,10.345-0.528,14.416,3.544c1.972,1.972,4.125,3.416,6.618,5.09c1.095,0.735,2.234,1.5,3.416,2.351
			c3.205,2.307,3.148,4.233,3.088,6.272c-0.018,0.622-0.038,1.264,0.032,1.96c0.331,3.312-2.302,3.835-3.568,4.087
			c-0.173,0.034-0.336,0.066-0.478,0.101c-0.179,0.045-0.393,0.089-0.629,0.137c-1.285,0.261-3.228,0.655-3.705,2.3
			c-0.086,0.295-0.053,0.398-0.053,0.398c0.203,0.092,1.255-0.146,2.093-0.527c0.178-0.082,0.38-0.083,0.559-0.006
			c0.179,0.076,0.317,0.226,0.381,0.409c0.244,0.716,0.625,0.838,0.75,0.879c0.869,0.271,2.29-0.528,2.719-0.833
			c0.267-0.188,0.626-0.168,0.867,0.053c0.712,0.651,1.371,0.937,1.963,0.857c0.792-0.11,1.273-0.856,1.278-0.864
			c0.114-0.184,0.309-0.304,0.524-0.324c0.219-0.012,0.429,0.066,0.575,0.225c0.002,0.003,0.605,0.64,1.841,1.03
			c0.81,0.253,1.015-0.039,1.081-0.136c0.342-0.5,0.219-1.774-0.448-2.608c-0.875-1.094-1.281-2.758-1.035-4.238
			c0.226-1.363,0.962-2.474,2.124-3.214c2.13-1.356,2.617-2.817,2.481-3.095c-0.039-0.019-0.271-0.049-0.456-0.074
			c-0.95-0.126-2.541-0.336-4.177-3.357c-1.445-2.666-0.047-6.887,1.571-11.777c0.821-2.476,1.669-5.039,2.192-7.551
			c1.448-6.951-3.103-12.47-3.149-12.524c-0.235-0.28-0.211-0.696,0.057-0.947c3.194-2.997,4.568-5.775,4.08-8.257
			c-0.507-2.588-3.014-4.398-5.005-5.16c-2.482-0.951-7.011-0.411-11.392,0.11c-3.661,0.435-7.121,0.847-9.355,0.381
			c-1.151-0.242-1.994-0.787-2.505-1.621c-0.421-0.687-0.524-1.44-0.521-2.028c-1.109,0.417-1.859,1.445-1.868,1.457
			c-0.126,0.177-0.331,0.284-0.548,0.289c-0.272-0.011-0.426-0.095-0.559-0.267c-0.564-0.73-0.792-1.534-0.673-2.393
			c0.152-1.111,0.869-2.066,1.456-2.681c-2.568-0.902-4.537,1.251-4.628,1.353c-0.224,0.249-0.594,0.301-0.878,0.131
			c-1.239-0.762-2.007-2.257-1.958-3.808c0.047-1.465,0.803-2.693,2.073-3.368c0.87-0.462,1.706-0.547,2.48-0.255
			c0.736,0.277,1.253,0.85,1.578,1.337c0.94-1.072,1.019-2.922,1.019-2.943c0.006-0.185,0.083-0.36,0.219-0.486
			c0.135-0.126,0.322-0.205,0.5-0.185c1.634,0.067,2.903,0.658,3.77,1.753c1.185,1.5,1.296,3.582,1.227,4.871
			c2.61-1.332,2.279-4.407,2.262-4.551c-0.028-0.238,0.068-0.472,0.254-0.621c0.186-0.148,0.434-0.194,0.661-0.111
			c2.77,0.977,3.778,3.447,4.015,5.285c0.784-0.749,0.796-1.709,0.796-1.721c0-0.315,0.214-0.59,0.519-0.668
			c0.308-0.077,0.625,0.061,0.777,0.338c1.068,1.953,2.698,3.169,3.89,3.849l-0.821-1.99c-0.111-0.27-0.041-0.58,0.175-0.776
			c0.217-0.196,0.534-0.234,0.79-0.095c1.366,0.736,2.449,1.568,3.595,2.451c1.382,1.064,2.811,2.163,4.824,3.109
			c1.966,0.924,3.291,0.748,4.054,0.439c0.79-0.319,1.242-0.882,1.389-1.268c0.277-0.729,0.358-1.775-0.087-2.469
			C465.722,393.423,465.238,393.175,464.569,393.131z"/>
		<path fill="#FFD250" d="M383.113,403.051c0.002,0.001,0.002,0.002,0.002,0.002c0.004,0.001,0.006,0.001,0.007,0.001
			c0.051,0.017,5.21,1.645,9.894,1.924c0.257,0.015,0.485,0.173,0.589,0.409c0.104,0.236,0.069,0.511-0.092,0.712l-0.164,0.203
			c0.929-0.139,2.098-0.268,3.244-0.273c-0.47-0.559-1.054-1.27-1.654-2.014c-1.253-0.023-5.836-0.222-9.566-2.02
			c-0.906-0.44-2.472-1.198-3.217-0.814c-0.129,0.066-0.341,0.377-0.305,0.759C381.896,402.425,382.343,402.82,383.113,403.051z"/>
		<path fill="#FFD250" d="M398.657,393.079c-0.072,0-0.137,0.008-0.195,0.025c-0.301,0.09-0.453,0.43-0.494,0.695
			c-0.05,0.34,0.036,0.796,0.43,1.06c0.515,0.342,1.066,0.108,1.379-0.201c0.099-0.096,0.572-0.603,0.223-1.156l-0.001-0.002
			C399.46,393.252,398.988,393.079,398.657,393.079z"/>
		<path fill="#FFD250" d="M391.886,409.712c0.334,0.796,0.853,1.414,1.281,1.828c0.163-0.352,0.411-0.718,0.787-0.992
			c0.368-0.268,1.006-0.53,1.942-0.335c0.015,0.001,0.028,0.004,0.042,0.006c0.027,0.006,0.048,0.004,0.075,0.01
			c0.024,0.006,0.039,0.025,0.063,0.032c0.033,0.012,0.068,0.013,0.1,0.031c0.024,0.013,0.039,0.035,0.06,0.05
			c0.352,0.15,0.646,0.391,0.801,0.755c0.523,1.22-0.397,3.587-1.209,5.272c0.574-0.284,1.123-0.572,1.419-0.73
			c0.206-0.111,0.456-0.11,0.661,0.006c0.206,0.114,0.339,0.325,0.353,0.559l0.195,3.078c1.079-1.137,1.929-2.372,1.94-2.389
			c0.149-0.218,0.407-0.328,0.67-0.293c0.262,0.039,0.477,0.223,0.557,0.474l0.787,2.486c1.102-1.013,2.062-2.37,2.073-2.387
			c0.134-0.189,0.352-0.289,0.582-0.293c0.23,0.006,0.444,0.127,0.567,0.323l1.186,1.892l1.693-3.386
			c0.123-0.247,0.355-0.402,0.656-0.381c0.275,0.015,0.513,0.192,0.609,0.451l1.545,4.202l3.015-1.903
			c0.228-0.146,0.518-0.142,0.746,0.007c0.984,0.644,2.495,1.06,3.447,1.273l-0.257-2.701c-0.018-0.192,0.045-0.382,0.173-0.526
			c0.128-0.143,0.311-0.227,0.503-0.23l1.725-0.026c-0.415-0.42-0.758-0.827-0.926-1.033c-0.113-0.137-0.157-0.304-0.15-0.469
			c-1.271-0.054-3.042-0.281-4.814-1.045l-1.054,1.625c-0.101,0.156-0.259,0.263-0.44,0.3c-0.045,0.01-0.092,0.015-0.138,0.015
			c-0.136,0-0.27-0.04-0.384-0.117l-3.985-2.674l-0.732,1.994c-0.084,0.229-0.283,0.396-0.523,0.44
			c-0.24,0.047-0.484-0.041-0.645-0.224c-0.685-0.785-1.76-1.989-2.399-2.649c-0.576,0.555-1.587,1.451-2.667,2.051
			c-0.176,0.098-0.386,0.113-0.574,0.044c-0.189-0.069-0.338-0.217-0.408-0.406l-1.093-2.932c-0.133-0.357,0.048-0.755,0.406-0.888
			c0.355-0.133,0.755,0.05,0.888,0.406l0.796,2.139c1.156-0.803,2.121-1.837,2.133-1.85c0.246-0.265,0.656-0.297,0.937-0.07
			c0.402,0.322,1.492,1.522,2.253,2.376l0.635-1.73c0.072-0.199,0.234-0.353,0.435-0.418c0.199-0.069,0.421-0.037,0.598,0.083
			l4.133,2.773l0.999-1.54c0.192-0.297,0.577-0.4,0.887-0.242c1.835,0.917,3.815,1.139,5.079,1.173
			c-0.771-1.441-0.839-3.269-0.844-3.698c-1.033-0.456-2.302-1.144-3.579-2.194l-0.497,1.227c-0.08,0.196-0.245,0.345-0.45,0.403
			c-0.203,0.057-0.424,0.02-0.595-0.104l-1.994-1.447l-0.194,1.494c-0.031,0.232-0.175,0.432-0.386,0.533
			c-0.209,0.101-0.456,0.091-0.657-0.032c-0.069-0.041-1.71-1.044-2.687-2.144c-0.253-0.285-0.227-0.721,0.058-0.974
			c0.281-0.253,0.718-0.229,0.974,0.058c0.413,0.465,0.992,0.926,1.474,1.276l0.2-1.539c0.032-0.242,0.188-0.448,0.411-0.545
			c0.224-0.097,0.482-0.067,0.679,0.075l2.219,1.61l0.531-1.311c0.086-0.211,0.27-0.366,0.493-0.414
			c0.221-0.048,0.455,0.015,0.62,0.172c1.72,1.619,3.582,2.493,4.739,2.922c-0.396-1.842-0.546-4.151-0.554-4.273
			c-0.001-0.017,0.007-0.032,0.007-0.049c-1.075-0.593-2.595-1.615-3.909-3.22c-0.006,0.85-0.075,1.716-0.284,2.263
			c-0.072,0.189-0.222,0.336-0.411,0.404c-0.191,0.066-0.401,0.048-0.574-0.049c-0.083-0.048-1.585-0.91-2.702-2.169
			c-0.193,0.694-0.425,1.425-0.62,1.751c-0.187,0.309-0.577,0.423-0.9,0.262c-0.066-0.032-1.123-0.568-2.065-1.386
			c-0.092,0.919-0.234,1.957-0.435,2.463c-0.072,0.184-0.221,0.326-0.407,0.393c-0.186,0.064-0.391,0.049-0.564-0.044
			c-0.063-0.034-1.26-0.691-2.379-1.523l-0.303,1.151c-0.053,0.197-0.188,0.361-0.372,0.448c-0.185,0.086-0.396,0.088-0.581,0.005
			c-0.083-0.038-2.056-0.945-3.18-2.318c-0.242-0.295-0.199-0.73,0.097-0.97c0.294-0.242,0.73-0.199,0.97,0.097
			c0.537,0.656,1.359,1.205,1.952,1.549l0.354-1.345c0.062-0.234,0.24-0.418,0.471-0.486c0.23-0.072,0.48-0.012,0.659,0.15
			c0.659,0.597,1.552,1.183,2.186,1.572c0.135-0.852,0.24-2.083,0.285-2.882c0.018-0.308,0.238-0.568,0.538-0.634
			c0.304-0.068,0.611,0.074,0.757,0.344c0.379,0.699,1.291,1.379,1.978,1.81c0.189-0.59,0.421-1.461,0.596-2.212
			c0.067-0.289,0.31-0.501,0.605-0.53c0.295-0.037,0.575,0.132,0.696,0.402c0.431,0.955,1.475,1.828,2.221,2.362
			c0.081-1.006,0.006-2.436-0.086-3.33c-0.034-0.332,0.174-0.641,0.495-0.734c0.328-0.089,0.663,0.059,0.81,0.358
			c1.388,2.815,3.842,4.374,5.119,5.03c0.696-7.615-1.536-10.528-1.56-10.557c-0.125-0.157-0.177-0.363-0.14-0.56
			c0.038-0.197,0.157-0.37,0.331-0.471c1.24-0.717,1.992-2.028,2.453-3.299c-2.805,2.72-7.25,3.764-9.415,4.126l1.057,1.288
			c0.161,0.197,0.201,0.467,0.104,0.702c-0.098,0.235-0.316,0.397-0.57,0.422c-2.653,0.265-4.589-0.086-5.892-0.526l0.451,0.833
			c0.119,0.218,0.11,0.484-0.021,0.694c-0.131,0.211-0.372,0.353-0.614,0.323c-2.161-0.092-4.052-0.983-5.607-1.77
			c-0.074,0.507-0.324,1.001-0.741,1.409c-0.51,0.498-1.159,0.756-1.803,0.756c-0.456,0-0.908-0.13-1.305-0.395
			c-0.78-0.521-1.174-1.445-1.029-2.412c0.134-0.888,0.694-1.583,1.463-1.813c1.028-0.305,2.203,0.289,3.688,1.046
			c1.179,0.601,2.585,1.316,4.117,1.637l-0.854-1.578c-0.159-0.294-0.086-0.658,0.175-0.868c0.262-0.206,0.632-0.2,0.885,0.019
			c0.015,0.013,1.733,1.424,5.63,1.351l-0.983-1.198c-0.162-0.197-0.201-0.468-0.104-0.703c0.099-0.235,0.319-0.397,0.573-0.421
			c0.074-0.007,5.737-0.581,9.22-3.388c-1.134,0.332-2.012,0.279-2.08,0.278c-0.191-0.015-0.368-0.109-0.486-0.259
			c-1.596-2.005-3.229-2.625-4.052-2.817c-0.462,1.457-1.582,2.637-1.637,2.693c-0.148,0.153-0.359,0.229-0.57,0.208
			c-0.212-0.022-0.402-0.141-0.515-0.322c-1.231-1.984-3.005-2.506-4.036-2.635c0.126,1.466-0.898,2.671-1.581,3.172
			c-0.265,0.192-0.627,0.175-0.869-0.041c-2.961-2.647-5.248-1.864-6.173-1.335c0.292,0.726,0.155,1.319-0.043,1.719
			c-1.414,2.865-10.16,3.441-11.9,3.527c-0.216,0.015-0.432-0.083-0.571-0.255c-0.139-0.172-0.187-0.399-0.131-0.611
			c0.127-0.477,0.042-0.992-0.239-1.452c-0.288-0.47-0.749-0.812-1.231-0.915c-0.455-0.096-1.322-0.034-1.841,0.534
			c-0.593,0.652-0.633,1.858-0.117,3.488c0.926,2.926,3.779,5.809,5.555,7.389c-0.016-0.364-0.006-0.632-0.002-0.699
			c0.015-0.295,0.216-0.547,0.5-0.628c0.285-0.083,0.587,0.026,0.756,0.268c0.588,0.845,1.29,1.416,1.817,1.766l0.346-2.207
			c0.048-0.305,0.294-0.542,0.601-0.578c0.305-0.026,0.601,0.137,0.718,0.423c0.625,1.518,4.583,6.272,6.055,7.975
			c0.189,0.217,0.222,0.529,0.083,0.782c-0.138,0.251-0.418,0.387-0.703,0.352c-2.522-0.359-6.227,0.48-6.263,0.488
			c-0.286,0.066-0.583-0.057-0.739-0.305c-0.155-0.249-0.137-0.569,0.047-0.799l0.51-0.635c-3.501-0.364-6.91-1.284-8.289-1.687
			l-1.158,3.146l3.12-0.312c0.235-0.03,0.477,0.08,0.621,0.274c0.146,0.194,0.178,0.449,0.086,0.674l-0.588,1.438l2.57-0.68
			c0.341-0.094,0.69,0.088,0.819,0.413c0.341,0.863,0.758,1.429,1.092,1.78l0.724-1.6c0.114-0.25,0.363-0.424,0.638-0.405
			C391.534,409.293,391.779,409.458,391.886,409.712z"/>
		<path fill="#FFD250" d="M382.95,444.994c2.721,1.817,4.921-0.256,6.096-1.852c-2.507-1.829-4.332-4.079-5.41-6.758
			c-0.352-0.875-0.581-1.761-0.76-2.644c-0.256-0.201-4.042-3.199-7.213-6.705c-0.162,0.423-0.375,0.758-0.547,0.985
			c0.223,0.906,0.006,1.646-0.273,2.12c0.192,0.646,0.038,1.287-0.186,1.754c0.48,0.724,0.567,1.433,0.26,2.114
			c-0.07,0.156-0.165,0.3-0.264,0.441c0.395,0.476,1.015,1.566,1.015,3.76c0,1.475,0.546,2.36,0.954,2.815
			c0.238-0.206,0.499-0.322,0.785-0.352c0.87-0.097,1.585,0.648,2.563,1.674C380.736,443.151,381.687,444.152,382.95,444.994z"/>
		<path fill="#FFD250" d="M369.415,426.289c-0.051,0-0.103-0.001-0.153-0.001c-0.992-0.009-1.899-0.108-2.735-0.269
			c-0.081,0.23,0.091,0.9,0.27,1.038c0.176,0.135,0.294,0.358,0.288,0.58c-0.006,0.221-0.101,0.438-0.284,0.563
			c-0.118,0.083-0.468,0.396-0.473,0.701c-0.005,0.298,0.347,0.605,0.557,0.763c0.153,0.115,0.252,0.289,0.272,0.48
			c0.02,0.191-0.04,0.382-0.167,0.527c-0.089,0.105-0.342,0.489-0.298,0.811c0.009,0.068,0.038,0.277,0.397,0.521
			c0.156,0.106,0.262,0.271,0.293,0.457c0.031,0.186-0.016,0.376-0.13,0.527c0.001,0-0.193,0.283-0.119,0.564
			c0.083,0.312,0.471,0.551,0.781,0.697c0.581,0.273,1.416,0.449,2.288,0.483c0.026-0.005,0.054-0.001,0.081-0.002
			c0.734,0.021,1.488-0.05,2.132-0.288c0.632-0.233,1.051-0.571,1.246-1.004c0.061-0.135,0.188-0.416-0.355-1.049
			c-0.212-0.248-0.222-0.609-0.024-0.869c0.001-0.002,0.461-0.634,0.177-1.139c-0.152-0.271-0.106-0.608,0.113-0.827
			c0.04-0.045,0.469-0.549,0.13-1.454c-0.098-0.261-0.03-0.554,0.173-0.745c0.025-0.025,0.649-0.675,0.635-1.662
			c-0.085-0.103-0.169-0.206-0.251-0.31C372.923,425.952,371.285,426.289,369.415,426.289z"/>
		<path fill="#FFD250" d="M375.726,378.196c-2.79,1.501-8.74,6.205-8.912,19.085l0.153,21.704c0.018,0.031,0.045,0.062,0.06,0.091
			c0.36,0.679,0.19,1.56-0.012,2.17c1.724,0.616,3.874,0.363,4.795,0.135c-0.184-0.538-0.329-1.407,0.294-2.391
			C372.007,393.107,374.476,382.095,375.726,378.196z"/>
		<path fill="#FFD250" d="M376.013,421.689c0-1.103-0.832-1.962-1.655-2.24c-0.17-0.059-0.751-0.22-1.017,0.13
			c-0.499,0.652-0.322,1.113-0.152,1.56c0.095,0.248,0.193,0.504,0.119,0.797c-0.093,0.374-0.434,0.527-0.546,0.578
			c-0.936,0.425-4.496,0.982-6.955-0.288c-0.333-0.173-0.468-0.58-0.303-0.918c0.26-0.532,0.448-1.312,0.304-1.584
			c-0.012-0.022-0.044-0.084-0.238-0.11c-0.184-0.025-0.366-0.038-0.547-0.038c-0.84,0-1.619,0.264-2.04,0.715
			c-0.339,0.363-0.445,0.825-0.323,1.411c0.409,1.975,2.881,3.173,6.614,3.207c2.64-0.009,4.911-0.632,6.045-1.757
			C375.78,422.695,376.013,422.203,376.013,421.689z"/>
		<path fill="#FFD250" d="M370.074,438.059c0.16-0.211,0.423-0.312,0.683-0.258c0.48,0.1,1.672,0.353,2.356-0.177
			c0.239-0.184,0.293-0.684,0.11-1.01c-0.063-0.113-0.254-0.451-0.973-0.176c-0.68,0.262-1.657,0.546-2.27-0.006
			c-0.123-0.11-0.2-0.239-0.26-0.371c-0.185-0.016-0.368-0.026-0.549-0.054c-0.059,0.152-0.14,0.3-0.278,0.425
			c-0.611,0.551-1.588,0.268-2.269,0.006c-0.716-0.272-0.911,0.064-0.973,0.176c-0.184,0.326-0.131,0.827,0.108,1.009
			c0.685,0.528,1.878,0.278,2.27,0.196c0.254-0.051,0.566,0.037,0.729,0.245c0.162,0.211,0.23,0.485,0.111,0.721
			c-0.155,0.311-0.831,1.632-1.491,2.457c0.863,1.261,1.61,3.509-0.14,5.51c-0.143,0.162-0.365,0.243-0.571,0.234
			c-0.216-0.016-0.412-0.133-0.529-0.315c-0.099-0.151-0.45-0.57-0.837-0.645c-0.117-0.022-0.301-0.032-0.569,0.151
			c-0.181,0.125-0.282,0.538-0.13,0.99c0.272,0.809,1.119,1.257,2.312,1.202c0.271-0.027,0.565,0.16,0.675,0.434
			c0.109,0.274,0.032,0.587-0.192,0.779l-1.125,0.965l1.837,0.447c0.244,0.059,0.435,0.246,0.502,0.488
			c0.003,0.012,0.277,0.99,0.827,1.816c0.548-0.825,0.823-1.804,0.825-1.816c0.066-0.242,0.259-0.429,0.502-0.488l1.837-0.447
			l-1.126-0.965c-0.224-0.191-0.301-0.505-0.192-0.779c0.109-0.274,0.382-0.458,0.675-0.434c1.18,0.052,2.04-0.393,2.313-1.203
			c0.152-0.451,0.051-0.864-0.13-0.989c-0.271-0.184-0.458-0.175-0.573-0.15c-0.4,0.081-0.759,0.529-0.834,0.644
			c-0.117,0.183-0.314,0.299-0.529,0.315c-0.224,0.012-0.429-0.07-0.571-0.234c-1.749-2-1.001-4.248-0.139-5.51
			c-0.66-0.825-1.336-2.145-1.491-2.457C369.887,438.55,369.914,438.268,370.074,438.059z"/>
	</g>
	<path fill="#464655" d="M467.169,393.123c-0.369-0.574-1.103-1.277-2.511-1.369c-0.978-0.07-1.763,0.193-2.333,0.763
		c-0.459,0.457-0.68,1.024-0.785,1.503c-0.941-0.495-2.447-1.598-4.02-2.751c-4.579-3.356-11.499-8.428-18.291-9.287
		c-5.509-0.7-11.775,0.399-15.22,3.596c0.052-0.423,0.067-0.706,0.069-0.754c0.001-0.009-0.007-0.016-0.007-0.025
		c0.001-0.129-0.035-0.249-0.1-0.357c-0.014-0.023-0.029-0.04-0.046-0.062c-0.076-0.099-0.172-0.185-0.299-0.232
		c-0.002-0.001-0.004-0.004-0.006-0.005h-0.002c-0.13-0.045-0.261-0.038-0.386-0.009c-0.024,0.006-0.045,0.01-0.068,0.017
		c-0.12,0.042-0.226,0.113-0.308,0.215c-0.006,0.007-0.015,0.007-0.02,0.014c-1.431,1.921-3.395,2.174-4.119,2.198
		c-2.584-3.068-5.314-3.163-5.432-3.166c-0.396,0.026-0.647,0.245-0.698,0.588c-0.108,0.729-0.532,1.45-0.89,1.951
		c-2.277-2.83-5.482-2.547-5.624-2.535c-0.222,0.021-0.419,0.149-0.53,0.342c-0.11,0.192-0.122,0.426-0.03,0.63
		c0.411,0.904-0.087,1.691-0.484,2.128c-4.482-3.592-7.931-0.665-7.967-0.633c-0.263,0.23-0.313,0.623-0.113,0.911
		c0.334,0.484,0.275,0.752,0.186,0.932c-0.725,1.469-5.986,2.428-9.926,2.709c-0.021-0.554-0.19-1.106-0.499-1.612
		c-0.489-0.798-1.261-1.36-2.12-1.544c-0.954-0.208-2.296,0.012-3.151,0.956c-0.956,1.051-1.093,2.677-0.411,4.833
		c1.067,3.369,4.269,6.538,6.136,8.169c-0.455-0.168-0.906-0.352-1.343-0.562c-1.099-0.535-2.94-1.431-4.301-0.724
		c-0.686,0.355-1.126,1.244-1.046,2.112c0.04,0.435,0.283,1.412,1.557,2.036l-1.532,4.161c-0.082,0.223-0.043,0.473,0.102,0.66
		c0.145,0.188,0.376,0.29,0.614,0.264l3.076-0.307l-0.679,1.659c-0.099,0.243-0.053,0.521,0.12,0.717
		c0.173,0.196,0.435,0.283,0.695,0.211l3.339-0.884c0.863,1.772,2.013,2.392,2.067,2.419c0.17,0.09,0.366,0.104,0.545,0.041
		c0.179-0.062,0.326-0.195,0.404-0.368l0.532-1.178c0.552,0.772,1.148,1.284,1.516,1.566c-0.224,0.186-0.446,0.368-0.689,0.566
		c-2.318,1.887-5.493,4.471-7.776,8.889c-1.146,2.218-2.039,5.603-1.772,9.203c-1.662-1.397-4.796-4.168-7.103-7.005
		c0.278-0.19,0.573-0.369,0.796-0.589c0.721-0.714,1.102-1.56,1.102-2.443c0-1.835-1.344-3.126-2.592-3.548
		c-0.465-0.157-0.912-0.18-1.319-0.111c-0.04-30.072,3.385-39.278,4.08-40.829c0.11-0.245,0.067-0.533-0.11-0.736
		c-0.176-0.202-0.456-0.284-0.714-0.208c-0.452,0.133-11.071,3.45-11.305,21.02l0.148,20.962c-1.441-0.152-2.81,0.258-3.607,1.109
		c-0.453,0.484-0.935,1.334-0.667,2.634c0.357,1.725,1.749,2.998,3.884,3.698c-0.059,0.226-0.079,0.482-0.05,0.769
		c0.033,0.337,0.138,0.754,0.333,1.116c-0.261,0.311-0.517,0.755-0.53,1.302c-0.012,0.527,0.197,1.022,0.625,1.476
		c-0.169,0.341-0.316,0.801-0.251,1.311c0.039,0.304,0.167,0.707,0.527,1.097c-0.101,0.301-0.164,0.694-0.056,1.127
		c0.111,0.447,0.389,0.832,0.801,1.16c-1.056-0.196-1.799,0.281-2.146,0.901c-0.522,0.931-0.311,2.178,0.471,2.779
		c0.637,0.489,1.394,0.646,2.084,0.61c-0.351,0.595-0.723,1.144-0.956,1.327c-0.152,0.118-0.248,0.293-0.264,0.484
		c-0.017,0.191,0.047,0.381,0.176,0.524c0.072,0.08,1.577,1.775,0.681,3.536c-0.277-0.227-0.635-0.44-1.062-0.527
		c-0.554-0.113-1.115,0.015-1.625,0.366c-0.729,0.5-0.999,1.555-0.658,2.567c0.262,0.776,0.914,1.57,2.027,1.937l-0.968,0.83
		c-0.197,0.168-0.282,0.433-0.222,0.685c0.06,0.251,0.256,0.448,0.507,0.509l2.768,0.675c0.212,0.608,0.697,1.783,1.507,2.593
		c0.13,0.129,0.375,0.202,0.559,0.202c0.184,0,0.358-0.072,0.488-0.202c0.81-0.81,1.296-1.984,1.507-2.593l2.768-0.675
		c0.251-0.061,0.447-0.257,0.507-0.509c0.06-0.252-0.026-0.517-0.222-0.685l-0.968-0.83c1.113-0.368,1.766-1.162,2.027-1.937
		c0.342-1.013,0.071-2.069-0.658-2.567c-0.511-0.351-1.075-0.477-1.626-0.366c-0.426,0.086-0.783,0.298-1.061,0.526
		c-0.881-1.752,0.611-3.458,0.683-3.538c0.127-0.143,0.191-0.332,0.173-0.523c-0.017-0.191-0.113-0.366-0.263-0.483
		c-0.233-0.181-0.603-0.73-0.954-1.325c0.689,0.006,1.442-0.119,2.082-0.613c0.14-0.108,0.24-0.255,0.342-0.399
		c0.049,3.028,1.968,4.226,2.051,4.277c0.327,0.195,0.746,0.092,0.943-0.233c0.163-0.265,0.26-0.316,0.258-0.319
		c0.243,0.013,0.923,0.73,1.421,1.253c0.812,0.854,1.823,1.918,3.214,2.845c1.019,0.68,1.983,0.948,2.868,0.948
		c2.484,0,4.345-2.096,5.139-3.173c1.547,0.97,3.301,1.813,5.301,2.496c0.068,0.023,0.138,0.033,0.207,0.034
		c0.239,0.775,0.499,1.554,0.768,2.327c0.863,2.476,1.755,5.038,1.405,6.983c-0.453,2.52-4.441,2.546-6.49,2.201
		c-1.458-0.238-2.811,0.136-3.804,1.061c-0.993,0.927-1.504,2.329-1.365,3.75c0.096,0.993,0.593,1.46,0.995,1.676
		c0.921,0.495,2.166,0.125,2.843-0.152c1.554,1.353,3.412,0.785,4.536,0.07c0.691,0.578,1.462,0.881,2.297,0.899
		c0.028,0.001,0.055,0.001,0.083,0.001c1.261,0,2.322-0.664,2.853-1.07c2.672,1.081,4.2,0.275,4.468,0.11
		c2.17-1.83,1.813-5.12,1.53-6.55c4.459-1.35,5.896-5.225,5.958-5.397c0.086-0.242,0.032-0.511-0.142-0.701
		c-0.175-0.188-0.442-0.264-0.687-0.198c-1.375,0.369-2.46,0.118-2.977-0.691c-0.7-1.095-0.246-2.886,1.156-4.562
		c0.294-0.352,0.573-0.741,0.845-1.146c3.446-0.77,6.389-2.11,9.505-3.531c2.579-1.176,5.247-2.392,8.417-3.386
		c0.889-0.279,1.752-0.443,2.604-0.553c-0.257,3.738,1.66,6.201,3.543,8.57c0.52,0.654,1.04,1.307,1.511,1.989
		c2.019,2.924,1.632,9.055,1.468,9.608c-0.143,0.315-1.496,1.692-3.415,1.429c-1.594-0.212-3.378,0.313-4.548,1.337
		c-0.834,0.73-1.294,1.669-1.294,2.643c0,0.83,0.399,1.242,0.734,1.442c0.999,0.594,2.653-0.041,3.539-0.466
		c0.828,0.64,1.678,0.876,2.464,0.876c0.977,0,1.856-0.364,2.472-0.768c1.85,1.169,3.787,0.484,4.867-0.252
		c1.353,0.734,2.441,0.589,3.142,0.313c0.228-0.089,0.436-0.202,0.625-0.33c0.028,0.029,0.054,0.068,0.082,0.092
		c0.734,0.632,2.093,0.295,2.962-0.02c0.396,0.655,0.919,0.95,1.332,1.081c1.278,0.407,2.745-0.293,3.483-0.73
		c0.896,0.692,1.786,0.984,2.675,0.859c0.784-0.109,1.376-0.53,1.757-0.899c0.406,0.292,1.023,0.652,1.856,0.915
		c0.368,0.117,0.691,0.164,0.974,0.164c0.962,0,1.463-0.548,1.66-0.834c0.798-1.165,0.382-3.138-0.509-4.251
		c-0.526-0.657-0.962-1.886-0.752-3.15c0.113-0.674,0.463-1.615,1.503-2.277c1.874-1.192,3.104-2.806,3.133-4.111
		c0.012-0.539-0.192-0.984-0.578-1.253c-0.34-0.238-0.721-0.289-1.09-0.337c-0.821-0.109-1.844-0.244-3.145-2.647
		c-1.159-2.142,0.214-6.291,1.669-10.685c0.832-2.514,1.693-5.114,2.232-7.703c1.335-6.409-1.883-11.572-3.048-13.18
		c3.24-3.187,4.599-6.246,4.039-9.097c-0.616-3.142-3.545-5.294-5.865-6.183c-2.805-1.075-7.505-0.516-12.05,0.029
		c-3.544,0.424-6.895,0.827-8.908,0.4c-0.761-0.159-1.302-0.489-1.608-0.983c-0.532-0.858-0.247-1.986-0.244-1.998
		c0.056-0.211,0.007-0.438-0.129-0.608c-0.137-0.17-0.364-0.278-0.565-0.257c-1.322,0.053-2.376,0.79-3.026,1.398
		c-0.038-0.185-0.044-0.375-0.017-0.572c0.179-1.326,1.706-2.485,1.721-2.496c0.183-0.137,0.287-0.357,0.275-0.586
		c-0.011-0.228-0.134-0.436-0.33-0.556c-2.81-1.712-5.434-0.444-6.777,0.746c-0.568-0.556-0.91-1.406-0.883-2.262
		c0.017-0.562,0.216-1.595,1.339-2.193c0.508-0.271,0.945-0.33,1.341-0.184c0.663,0.247,1.103,1.062,1.218,1.356
		c0.072,0.188,0.226,0.336,0.416,0.402c0.191,0.069,0.402,0.048,0.576-0.054c1.538-0.897,2.03-2.782,2.186-3.828
		c0.905,0.147,1.594,0.531,2.096,1.164c1.406,1.773,0.831,4.897,0.825,4.928c-0.045,0.234,0.034,0.473,0.208,0.635
		c0.173,0.162,0.419,0.222,0.649,0.162c3.122-0.837,4.122-3.372,4.276-5.247c2.388,1.487,2.225,4.562,2.216,4.706
		c-0.015,0.238,0.092,0.467,0.285,0.605c0.193,0.139,0.443,0.169,0.663,0.081c1.143-0.463,1.775-1.218,2.126-1.914
		c2.174,2.85,5.195,3.839,5.34,3.887c0.256,0.078,0.534,0.007,0.717-0.191c0.181-0.197,0.233-0.482,0.131-0.73l-0.675-1.635
		c0.549,0.387,1.078,0.794,1.621,1.213c1.441,1.108,2.93,2.255,5.078,3.265c2.416,1.135,4.137,0.881,5.159,0.471
		c1.019-0.413,1.827-1.181,2.161-2.057C467.775,395.805,467.922,394.295,467.169,393.123z M466.096,396.337
		c-0.146,0.385-0.598,0.948-1.389,1.268c-0.763,0.309-2.088,0.485-4.054-0.44c-2.013-0.946-3.443-2.046-4.824-3.109
		c-1.146-0.882-2.228-1.715-3.595-2.451c-0.255-0.138-0.572-0.101-0.79,0.095c-0.217,0.195-0.287,0.506-0.175,0.776l0.821,1.99
		c-1.192-0.68-2.822-1.896-3.89-3.849c-0.151-0.277-0.468-0.415-0.777-0.338c-0.305,0.078-0.519,0.353-0.519,0.668
		c0,0.012-0.012,0.973-0.796,1.721c-0.238-1.838-1.245-4.307-4.015-5.285c-0.227-0.083-0.475-0.037-0.661,0.111
		c-0.186,0.149-0.282,0.384-0.254,0.621c0.017,0.143,0.348,3.219-2.262,4.551c0.07-1.289-0.041-3.372-1.227-4.871
		c-0.867-1.096-2.135-1.686-3.77-1.753c-0.177-0.02-0.365,0.059-0.5,0.185c-0.136,0.126-0.214,0.301-0.219,0.486
		c0,0.021-0.08,1.871-1.019,2.943c-0.325-0.486-0.842-1.06-1.578-1.337c-0.774-0.292-1.609-0.207-2.48,0.255
		c-1.271,0.675-2.026,1.903-2.073,3.368c-0.048,1.552,0.719,3.047,1.958,3.808c0.284,0.172,0.653,0.119,0.878-0.131
		c0.091-0.102,2.059-2.255,4.628-1.353c-0.587,0.616-1.304,1.571-1.456,2.681c-0.119,0.859,0.109,1.664,0.673,2.393
		c0.132,0.172,0.287,0.256,0.559,0.267c0.217-0.004,0.421-0.111,0.548-0.289c0.009-0.012,0.758-1.04,1.868-1.457
		c-0.005,0.587,0.099,1.34,0.521,2.028c0.511,0.834,1.354,1.379,2.505,1.621c2.234,0.467,5.694,0.054,9.355-0.381
		c4.381-0.521,8.91-1.062,11.392-0.11c1.992,0.763,4.498,2.572,5.005,5.16c0.488,2.482-0.886,5.261-4.08,8.257
		c-0.268,0.25-0.292,0.667-0.057,0.947c0.045,0.055,4.597,5.573,3.149,12.524c-0.523,2.513-1.371,5.075-2.192,7.551
		c-1.618,4.889-3.015,9.11-1.571,11.777c1.636,3.022,3.227,3.231,4.177,3.357c0.185,0.024,0.416,0.055,0.456,0.074
		c0.137,0.278-0.35,1.739-2.481,3.095c-1.163,0.74-1.897,1.851-2.124,3.214c-0.246,1.48,0.16,3.144,1.035,4.238
		c0.667,0.834,0.79,2.109,0.448,2.608c-0.067,0.097-0.271,0.389-1.081,0.136c-1.235-0.391-1.839-1.028-1.841-1.03
		c-0.146-0.16-0.355-0.238-0.575-0.226c-0.217,0.02-0.411,0.14-0.524,0.324c-0.006,0.008-0.486,0.754-1.278,0.864
		c-0.592,0.08-1.251-0.206-1.963-0.857c-0.241-0.22-0.6-0.24-0.867-0.053c-0.429,0.304-1.85,1.104-2.719,0.833
		c-0.125-0.04-0.506-0.163-0.75-0.879c-0.064-0.184-0.202-0.333-0.381-0.409c-0.179-0.076-0.381-0.075-0.559,0.006
		c-0.838,0.381-1.891,0.62-2.093,0.528c0,0-0.033-0.104,0.053-0.399c0.477-1.645,2.419-2.039,3.705-2.3
		c0.236-0.048,0.45-0.092,0.629-0.137c0.142-0.035,0.304-0.067,0.478-0.101c1.266-0.251,3.899-0.776,3.568-4.087
		c-0.07-0.696-0.05-1.338-0.032-1.96c0.06-2.039,0.117-3.965-3.088-6.272c-1.182-0.852-2.321-1.616-3.416-2.351
		c-2.493-1.674-4.646-3.118-6.618-5.09c-4.07-4.072-8.919-5.266-14.416-3.544c-3.252,1.019-5.959,2.253-8.576,3.447
		c-2.632,1.201-5.156,2.32-7.92,3.085c2.182-4.148,3.377-9.648,3.132-12.299c-0.036-0.379-0.382-0.661-0.751-0.624
		c-0.379,0.036-0.658,0.372-0.624,0.751c0.282,3.028-1.597,10.462-4.671,14.135c-1.796,2.147-2.291,4.577-1.261,6.19
		c0.64,1,1.725,1.479,3.092,1.492c-0.747,1.177-2.294,2.952-5.06,3.586c-0.185,0.043-0.345,0.16-0.441,0.324
		c-0.096,0.164-0.12,0.36-0.066,0.543c0.012,0.04,1.153,4.036-0.822,5.719c-0.049,0.029-1.244,0.633-3.519-0.408
		c-0.257-0.117-0.563-0.066-0.767,0.133c-0.012,0.009-1.129,1.057-2.307,0.986c-0.644-0.015-1.223-0.304-1.769-0.887
		c-0.251-0.268-0.669-0.29-0.95-0.054c-0.082,0.071-2.035,1.692-3.485,0.067c-0.213-0.238-0.557-0.298-0.836-0.152
		c-0.554,0.289-1.577,0.609-2.011,0.374c-0.058-0.032-0.233-0.126-0.278-0.596c-0.096-0.997,0.253-1.972,0.935-2.608
		c0.672-0.627,1.608-0.881,2.635-0.708c3.616,0.604,7.511-0.19,8.075-3.318c0.414-2.302-0.539-5.036-1.46-7.682
		c-0.694-1.99-1.41-4.048-1.442-5.715c-0.065-3.406,0.665-6.623,0.672-6.655c0.086-0.371-0.146-0.741-0.518-0.827
		c-0.372-0.09-0.741,0.145-0.827,0.517c-0.032,0.137-0.777,3.409-0.708,6.992c0.014,0.705,0.148,1.456,0.323,2.219
		c-5.236-1.934-8.731-4.945-10.355-8.981c-1.903-4.731-0.823-9.805,0.679-12.714c2.151-4.162,5.073-6.54,7.422-8.452
		c1.104-0.898,2.092-1.707,2.797-2.551c-0.074,1.147-1.05,3.454-2.115,5.302c-0.142,0.246-0.119,0.554,0.059,0.776
		c0.177,0.222,0.474,0.312,0.744,0.227c0.593-0.185,1.664-0.707,2.449-1.108l0.221,3.483c0.016,0.258,0.176,0.485,0.413,0.588
		c0.238,0.104,0.513,0.066,0.712-0.099c0.93-0.763,1.808-1.78,2.416-2.549l0.686,2.166c0.066,0.208,0.227,0.374,0.435,0.445
		c0.208,0.07,0.435,0.039,0.615-0.086c0.983-0.68,1.943-1.77,2.543-2.518l1.31,2.088c0.133,0.212,0.37,0.349,0.618,0.322
		c0.249-0.012,0.473-0.157,0.584-0.381l1.528-3.057l1.289,3.504c0.072,0.196,0.228,0.348,0.426,0.415
		c0.072,0.025,0.147,0.037,0.222,0.037c0.129,0,0.257-0.036,0.369-0.106l3.378-2.131c1.785,0.992,4.367,1.405,4.483,1.424
		c0.208,0.027,0.424-0.033,0.58-0.18c0.156-0.146,0.235-0.355,0.215-0.567l-0.275-2.878l2.991-0.045
		c0.344-0.006,0.632-0.264,0.674-0.605c0.042-0.342-0.174-0.662-0.507-0.751c-0.326-0.087-1.075-0.787-1.714-1.503
		c0.081-0.006,0.118-0.009,0.157-0.012c1.72,0.131,30.915,2.28,37.317-2.377c3.56-2.589,3.312-4.943,2.846-6.115
		c-0.961-2.421-4.454-3.965-7.939-3.521c-1.385,0.177-2.875,0.443-4.419,0.719c-4.37,0.783-9.322,1.67-13.383,0.675
		c-1.584-0.388-2.941-0.902-4.14-1.355c-2.028-0.768-3.494-1.323-4.617-0.652c-0.466,0.278-0.803,0.732-1.028,1.396
		c-0.721-0.804-1.52-2.272-0.465-4.26c0.139-0.262,0.095-0.583-0.109-0.799c-0.04-0.043-4.044-4.334-2.16-9.043
		c1.692-4.229,8.35-6.617,15.832-5.666c6.437,0.814,13.183,5.759,17.647,9.03c2.81,2.059,4.324,3.14,5.348,3.274
		c0.205,0.03,0.407-0.041,0.558-0.18c0.15-0.139,0.23-0.34,0.22-0.545c-0.001-0.009-0.043-0.931,0.474-1.442
		c0.282-0.279,0.694-0.402,1.264-0.359c0.669,0.044,1.153,0.292,1.44,0.738C466.454,394.562,466.374,395.609,466.096,396.337z
		 M444.406,463.047c-0.669,0.23-1.419,0.076-2.24-0.462c-0.258-0.169-0.598-0.145-0.83,0.056c-0.083,0.072-2.055,1.737-3.944,0.214
		c-0.258-0.208-0.631-0.2-0.885,0.016c-0.205,0.176-2.059,1.67-3.906-0.059c-0.218-0.203-0.54-0.244-0.799-0.104
		c-0.939,0.507-2.251,0.921-2.601,0.709c-0.058-0.034-0.06-0.219-0.06-0.256c0-0.731,0.447-1.277,0.822-1.605
		c0.871-0.762,2.255-1.166,3.457-1.008c2.614,0.349,4.519-1.443,4.864-2.252c0.305-0.713,0.81-7.447-1.6-10.936
		c-0.489-0.708-1.027-1.386-1.567-2.065c-1.832-2.305-3.548-4.495-3.238-7.825c3.348-0.07,6.38,1.21,9.039,3.869
		c1.391,1.391,2.9,2.544,4.479,3.652c-0.612,0.629-1.599,1.817-1.674,3.026c-0.037,0.595,0.152,1.139,0.544,1.575
		c1.001,1.111,2.147,1.06,2.904,1.022c0.131-0.007,0.305-0.017,0.433-0.008c-0.193,0.468-0.908,1.445-1.403,2.12
		c-1.368,1.867-2.254,3.166-2.103,4.172c0.103,0.686,0.373,1.721,0.634,2.722c0.249,0.954,0.625,2.396,0.607,2.675
		C445.301,462.404,444.991,462.844,444.406,463.047z M447.311,453.544c1.326-1.81,2-2.79,1.61-3.569
		c-0.4-0.801-1.218-0.766-1.817-0.736c-0.642,0.031-1.251,0.058-1.814-0.568c-0.146-0.163-0.206-0.337-0.192-0.565
		c0.048-0.788,0.937-1.811,1.449-2.313c0.396,0.269,0.79,0.537,1.194,0.809c1.083,0.727,2.21,1.483,3.378,2.325
		c2.61,1.879,2.572,3.166,2.516,5.113c-0.019,0.634-0.04,1.353,0.039,2.138c0.191,1.916-0.901,2.285-2.464,2.595
		c-0.197,0.039-0.382,0.076-0.545,0.117c-0.162,0.04-0.355,0.08-0.569,0.123c-0.997,0.202-2.59,0.543-3.698,1.576
		c-0.091-0.374-0.202-0.807-0.335-1.312c-0.251-0.967-0.512-1.966-0.605-2.579C445.382,456.177,446.637,454.465,447.311,453.544z
		 M377.408,440.672c-0.287,0.031-0.547,0.146-0.785,0.352c-0.408-0.455-0.954-1.339-0.954-2.815c0-2.193-0.621-3.284-1.015-3.76
		c0.098-0.141,0.194-0.285,0.264-0.441c0.307-0.681,0.22-1.39-0.26-2.114c0.224-0.468,0.378-1.108,0.186-1.754
		c0.279-0.474,0.496-1.215,0.273-2.12c0.173-0.227,0.385-0.562,0.547-0.985c3.171,3.504,6.957,6.503,7.213,6.705
		c0.179,0.883,0.408,1.768,0.76,2.644c1.077,2.679,2.903,4.929,5.41,6.758c-1.175,1.596-3.374,3.67-6.096,1.852
		c-1.263-0.842-2.215-1.844-2.98-2.648C378.993,441.319,378.278,440.574,377.408,440.672z M371.636,446.751
		c0.142,0.164,0.347,0.245,0.571,0.234c0.216-0.016,0.412-0.133,0.529-0.315c0.075-0.115,0.434-0.563,0.834-0.644
		c0.115-0.025,0.301-0.034,0.573,0.15c0.18,0.125,0.282,0.538,0.129,0.989c-0.273,0.81-1.133,1.255-2.313,1.203
		c-0.292-0.024-0.566,0.16-0.675,0.434c-0.109,0.274-0.032,0.587,0.192,0.779l1.126,0.965l-1.837,0.447
		c-0.244,0.059-0.435,0.246-0.502,0.488c-0.003,0.012-0.277,0.99-0.826,1.816c-0.549-0.825-0.823-1.804-0.827-1.816
		c-0.066-0.242-0.259-0.429-0.502-0.488l-1.837-0.447l1.125-0.965c0.224-0.192,0.301-0.505,0.192-0.779
		c-0.11-0.274-0.403-0.461-0.675-0.434c-1.194,0.056-2.04-0.393-2.312-1.202c-0.152-0.452-0.051-0.865,0.13-0.99
		c0.267-0.183,0.452-0.173,0.569-0.151c0.387,0.075,0.738,0.494,0.837,0.645c0.117,0.183,0.314,0.299,0.529,0.315
		c0.206,0.009,0.428-0.072,0.571-0.234c1.75-2,1.002-4.248,0.14-5.51c0.66-0.825,1.336-2.145,1.491-2.457
		c0.119-0.236,0.05-0.511-0.111-0.721c-0.163-0.208-0.474-0.297-0.729-0.245c-0.392,0.083-1.585,0.332-2.27-0.196
		c-0.238-0.183-0.291-0.683-0.108-1.009c0.062-0.113,0.257-0.448,0.973-0.176c0.681,0.262,1.659,0.545,2.269-0.006
		c0.139-0.125,0.22-0.273,0.278-0.425c0.181,0.028,0.365,0.037,0.549,0.054c0.059,0.133,0.137,0.261,0.26,0.371
		c0.614,0.551,1.59,0.268,2.27,0.006c0.718-0.275,0.91,0.064,0.973,0.176c0.184,0.326,0.13,0.827-0.11,1.01
		c-0.685,0.53-1.877,0.277-2.356,0.177c-0.26-0.054-0.523,0.048-0.683,0.258c-0.16,0.209-0.187,0.491-0.069,0.727
		c0.155,0.311,0.831,1.632,1.491,2.457C370.634,442.503,369.887,444.752,371.636,446.751z M373.874,427.358
		c-0.203,0.191-0.271,0.484-0.173,0.745c0.34,0.906-0.089,1.409-0.13,1.454c-0.219,0.218-0.265,0.556-0.113,0.827
		c0.284,0.505-0.176,1.137-0.177,1.139c-0.197,0.26-0.188,0.621,0.024,0.869c0.543,0.633,0.416,0.914,0.355,1.049
		c-0.195,0.433-0.614,0.771-1.246,1.004c-0.645,0.238-1.399,0.309-2.132,0.288c-0.027,0.001-0.054-0.003-0.081,0.002
		c-0.871-0.035-1.707-0.21-2.288-0.483c-0.31-0.146-0.698-0.385-0.781-0.697c-0.075-0.281,0.119-0.564,0.119-0.564
		c0.113-0.151,0.16-0.342,0.129-0.527c-0.032-0.186-0.137-0.351-0.293-0.457c-0.359-0.244-0.388-0.453-0.397-0.521
		c-0.044-0.322,0.209-0.706,0.298-0.811c0.126-0.145,0.187-0.336,0.167-0.527c-0.02-0.191-0.119-0.365-0.272-0.48
		c-0.211-0.158-0.561-0.467-0.557-0.763c0.005-0.305,0.355-0.618,0.473-0.701c0.184-0.125,0.278-0.342,0.285-0.563
		c0.006-0.222-0.111-0.446-0.288-0.58c-0.179-0.138-0.35-0.807-0.27-1.038c0.836,0.161,1.742,0.26,2.735,0.269
		c0.051,0,0.102,0.001,0.153,0.001c1.87,0,3.507-0.338,4.842-0.904c0.083,0.104,0.167,0.207,0.251,0.31
		C374.523,426.683,373.899,427.333,373.874,427.358z M369.274,424.909c-3.732-0.034-6.205-1.233-6.614-3.207
		c-0.121-0.587-0.015-1.048,0.323-1.411c0.421-0.451,1.2-0.715,2.04-0.715c0.18,0,0.364,0.012,0.547,0.038
		c0.194,0.026,0.226,0.088,0.238,0.11c0.145,0.271-0.044,1.052-0.304,1.584c-0.165,0.338-0.031,0.745,0.303,0.918
		c2.46,1.269,6.019,0.712,6.955,0.288c0.113-0.051,0.453-0.205,0.546-0.578c0.074-0.293-0.024-0.549-0.119-0.796
		c-0.17-0.447-0.347-0.908,0.152-1.56c0.266-0.349,0.846-0.188,1.017-0.129c0.823,0.278,1.655,1.137,1.655,2.24
		c0,0.513-0.234,1.006-0.694,1.463C374.185,424.276,371.914,424.9,369.274,424.909z M371.81,421.381
		c-0.921,0.228-3.071,0.482-4.795-0.135c0.202-0.61,0.373-1.49,0.012-2.17c-0.016-0.029-0.042-0.061-0.06-0.091l-0.153-21.704
		c0.172-12.88,6.122-17.585,8.912-19.085c-1.25,3.899-3.719,14.91-3.622,40.793C371.481,419.974,371.627,420.843,371.81,421.381z
		 M390.62,409.695l-0.724,1.6c-0.333-0.351-0.751-0.918-1.092-1.78c-0.128-0.325-0.478-0.507-0.818-0.413l-2.57,0.68l0.588-1.438
		c0.092-0.224,0.059-0.48-0.086-0.674c-0.143-0.195-0.385-0.304-0.621-0.274l-3.12,0.312l1.158-3.146
		c1.378,0.402,4.787,1.323,8.289,1.687l-0.51,0.635c-0.184,0.23-0.202,0.55-0.047,0.799c0.157,0.249,0.453,0.372,0.739,0.305
		c0.037-0.008,3.741-0.847,6.263-0.488c0.286,0.035,0.565-0.101,0.703-0.352c0.138-0.252,0.105-0.564-0.083-0.782
		c-1.473-1.703-5.43-6.457-6.055-7.975c-0.118-0.287-0.414-0.449-0.718-0.423c-0.307,0.037-0.553,0.273-0.601,0.578l-0.346,2.207
		c-0.527-0.349-1.229-0.921-1.817-1.766c-0.169-0.243-0.471-0.352-0.756-0.268c-0.284,0.081-0.484,0.333-0.5,0.628
		c-0.004,0.067-0.015,0.335,0.002,0.699c-1.776-1.581-4.628-4.463-5.555-7.389c-0.517-1.631-0.476-2.836,0.117-3.488
		c0.518-0.569,1.386-0.631,1.841-0.534c0.483,0.103,0.944,0.446,1.231,0.915c0.281,0.46,0.366,0.974,0.239,1.452
		c-0.057,0.213-0.009,0.44,0.131,0.611c0.138,0.172,0.355,0.271,0.571,0.255c1.739-0.086,10.486-0.662,11.899-3.527
		c0.197-0.401,0.336-0.994,0.043-1.719c0.925-0.528,3.211-1.311,6.173,1.335c0.242,0.217,0.604,0.234,0.869,0.041
		c0.682-0.501,1.707-1.706,1.581-3.172c1.031,0.13,2.806,0.652,4.036,2.635c0.113,0.182,0.303,0.3,0.515,0.322
		c0.211,0.021,0.421-0.055,0.57-0.208c0.055-0.057,1.174-1.236,1.637-2.693c0.823,0.192,2.457,0.812,4.052,2.817
		c0.119,0.15,0.295,0.244,0.486,0.259c0.067,0.001,0.946,0.054,2.08-0.278c-3.484,2.807-9.146,3.381-9.22,3.388
		c-0.254,0.024-0.474,0.186-0.573,0.421c-0.098,0.235-0.059,0.507,0.103,0.703l0.983,1.198c-3.898,0.072-5.615-1.338-5.63-1.351
		c-0.252-0.219-0.624-0.224-0.885-0.019c-0.261,0.209-0.334,0.574-0.175,0.868l0.854,1.578c-1.533-0.321-2.938-1.036-4.117-1.637
		c-1.485-0.756-2.659-1.351-3.688-1.046c-0.769,0.23-1.329,0.924-1.463,1.813c-0.145,0.968,0.25,1.892,1.029,2.412
		c0.397,0.265,0.85,0.395,1.305,0.395c0.643,0,1.293-0.257,1.803-0.756c0.417-0.407,0.667-0.901,0.741-1.409
		c1.554,0.787,3.446,1.677,5.607,1.77c0.243,0.03,0.483-0.113,0.614-0.323c0.132-0.211,0.14-0.476,0.021-0.694l-0.451-0.833
		c1.304,0.44,3.24,0.79,5.892,0.526c0.253-0.025,0.472-0.187,0.57-0.422c0.097-0.235,0.057-0.505-0.104-0.702l-1.057-1.288
		c2.165-0.361,6.61-1.406,9.415-4.126c-0.461,1.272-1.214,2.582-2.453,3.299c-0.173,0.101-0.293,0.274-0.331,0.471
		c-0.037,0.197,0.015,0.403,0.14,0.56c0.023,0.03,2.256,2.943,1.56,10.557c-1.277-0.656-3.731-2.215-5.119-5.03
		c-0.147-0.298-0.482-0.447-0.81-0.358c-0.321,0.092-0.529,0.402-0.495,0.734c0.092,0.894,0.167,2.324,0.086,3.33
		c-0.745-0.534-1.79-1.408-2.221-2.362c-0.121-0.271-0.402-0.44-0.696-0.402c-0.295,0.029-0.537,0.242-0.605,0.53
		c-0.174,0.751-0.407,1.621-0.596,2.212c-0.687-0.43-1.599-1.111-1.978-1.81c-0.146-0.271-0.453-0.413-0.757-0.344
		c-0.301,0.066-0.52,0.326-0.538,0.634c-0.045,0.798-0.15,2.03-0.285,2.882c-0.634-0.389-1.527-0.975-2.186-1.572
		c-0.179-0.162-0.429-0.222-0.659-0.15c-0.23,0.068-0.409,0.252-0.471,0.486l-0.354,1.345c-0.593-0.344-1.415-0.893-1.952-1.549
		c-0.241-0.295-0.676-0.339-0.97-0.097c-0.295,0.241-0.339,0.676-0.097,0.97c1.124,1.374,3.096,2.281,3.18,2.318
		c0.186,0.083,0.396,0.081,0.581-0.005c0.184-0.087,0.32-0.251,0.372-0.448l0.303-1.151c1.119,0.833,2.316,1.489,2.379,1.524
		c0.173,0.093,0.378,0.108,0.564,0.044c0.186-0.067,0.334-0.211,0.407-0.393c0.202-0.506,0.344-1.543,0.435-2.463
		c0.942,0.819,2,1.354,2.066,1.386c0.323,0.161,0.713,0.047,0.9-0.262c0.195-0.326,0.426-1.057,0.62-1.751
		c1.117,1.258,2.619,2.121,2.702,2.169c0.173,0.098,0.384,0.115,0.574,0.049c0.19-0.068,0.34-0.216,0.411-0.404
		c0.208-0.547,0.277-1.412,0.284-2.263c1.314,1.605,2.834,2.627,3.909,3.22c0,0.017-0.008,0.032-0.007,0.049
		c0.007,0.121,0.158,2.431,0.554,4.273c-1.158-0.429-3.02-1.302-4.739-2.922c-0.165-0.157-0.399-0.219-0.62-0.172
		c-0.223,0.048-0.407,0.203-0.493,0.414l-0.531,1.311l-2.219-1.61c-0.196-0.142-0.453-0.172-0.679-0.075
		c-0.224,0.096-0.38,0.303-0.411,0.545l-0.2,1.539c-0.482-0.349-1.061-0.811-1.474-1.276c-0.255-0.287-0.692-0.311-0.974-0.058
		c-0.285,0.253-0.311,0.689-0.058,0.974c0.977,1.099,2.618,2.102,2.687,2.143c0.2,0.123,0.447,0.133,0.657,0.032
		c0.211-0.101,0.355-0.301,0.387-0.533l0.194-1.494l1.994,1.447c0.17,0.124,0.391,0.161,0.595,0.104
		c0.205-0.059,0.37-0.208,0.45-0.403l0.497-1.227c1.277,1.05,2.546,1.739,3.579,2.194c0.005,0.429,0.072,2.257,0.844,3.698
		c-1.264-0.033-3.245-0.255-5.079-1.173c-0.31-0.158-0.694-0.055-0.887,0.242l-0.999,1.54l-4.133-2.773
		c-0.176-0.119-0.398-0.152-0.598-0.083c-0.201,0.065-0.362,0.219-0.435,0.418l-0.635,1.73c-0.761-0.854-1.851-2.055-2.253-2.376
		c-0.281-0.226-0.691-0.195-0.937,0.07c-0.012,0.012-0.977,1.046-2.133,1.85l-0.796-2.139c-0.133-0.355-0.532-0.539-0.888-0.406
		c-0.357,0.133-0.539,0.531-0.406,0.888l1.093,2.932c0.07,0.189,0.219,0.337,0.408,0.406c0.188,0.069,0.398,0.054,0.574-0.044
		c1.081-0.6,2.092-1.496,2.667-2.051c0.64,0.66,1.715,1.864,2.399,2.649c0.161,0.184,0.405,0.271,0.645,0.224
		c0.24-0.044,0.438-0.211,0.523-0.44l0.732-1.994l3.985,2.674c0.115,0.076,0.249,0.117,0.384,0.117c0.045,0,0.092-0.005,0.138-0.015
		c0.182-0.037,0.34-0.145,0.44-0.3l1.054-1.625c1.771,0.765,3.543,0.991,4.814,1.045c-0.007,0.164,0.037,0.331,0.15,0.469
		c0.168,0.206,0.511,0.611,0.926,1.033l-1.725,0.026c-0.192,0.003-0.375,0.086-0.503,0.23c-0.128,0.143-0.191,0.333-0.173,0.526
		l0.257,2.701c-0.952-0.214-2.463-0.629-3.447-1.273c-0.228-0.149-0.518-0.152-0.746-0.007l-3.015,1.903l-1.545-4.202
		c-0.095-0.259-0.334-0.435-0.609-0.451c-0.3-0.021-0.533,0.134-0.656,0.381l-1.693,3.386l-1.186-1.892
		c-0.123-0.196-0.336-0.317-0.567-0.323c-0.23,0.004-0.448,0.104-0.582,0.293c-0.012,0.017-0.972,1.373-2.073,2.387l-0.787-2.486
		c-0.08-0.251-0.295-0.435-0.557-0.474c-0.263-0.035-0.521,0.075-0.67,0.293c-0.011,0.016-0.861,1.251-1.94,2.389l-0.195-3.078
		c-0.015-0.234-0.147-0.445-0.353-0.559c-0.205-0.115-0.455-0.117-0.661-0.006c-0.297,0.159-0.845,0.447-1.419,0.73
		c0.812-1.685,1.733-4.052,1.209-5.272c-0.156-0.364-0.45-0.605-0.801-0.755c-0.022-0.015-0.037-0.037-0.06-0.05
		c-0.032-0.017-0.067-0.018-0.1-0.031c-0.023-0.007-0.039-0.026-0.063-0.032c-0.028-0.007-0.048-0.005-0.075-0.01
		c-0.014-0.002-0.028-0.005-0.042-0.006c-0.936-0.195-1.573,0.066-1.942,0.335c-0.376,0.275-0.625,0.64-0.787,0.992
		c-0.429-0.414-0.947-1.031-1.281-1.828c-0.106-0.253-0.352-0.42-0.626-0.423C390.983,409.27,390.735,409.445,390.62,409.695z
		 M385.374,401.995c3.73,1.798,8.314,1.997,9.566,2.02c0.6,0.745,1.184,1.456,1.654,2.014c-1.146,0.005-2.315,0.134-3.244,0.273
		l0.164-0.203c0.162-0.201,0.197-0.476,0.092-0.712c-0.104-0.235-0.332-0.393-0.589-0.409c-4.684-0.278-9.843-1.906-9.894-1.924
		c-0.002-0.001-0.004,0-0.006-0.001c0,0-0.002-0.002-0.004-0.002c-0.769-0.232-1.217-0.627-1.261-1.111
		c-0.035-0.382,0.177-0.692,0.305-0.759C382.901,400.797,384.468,401.556,385.374,401.995z M391.892,402.384
		c0.149-0.107,0.259-0.261,0.288-0.444l0.202-1.294c0.414,0.602,0.915,1.268,1.432,1.939
		C393.28,402.549,392.624,402.485,391.892,402.384z M390.678,402.189c-0.337-0.062-0.683-0.135-1.033-0.216
		c0.031-0.148,0.013-0.306-0.058-0.448c-0.02-0.039-0.038-0.081-0.056-0.124C389.967,401.759,390.371,402.016,390.678,402.189z
		 M399.777,394.657c-0.314,0.309-0.864,0.544-1.379,0.201c-0.395-0.263-0.48-0.719-0.43-1.06c0.04-0.265,0.193-0.605,0.494-0.695
		c0.058-0.017,0.123-0.026,0.195-0.026c0.331,0,0.803,0.173,1.342,0.42L400,393.5C400.349,394.055,399.876,394.561,399.777,394.657z
		 M426.01,404.985c0.197,0.126,0.447,0.141,0.662,0.042c0.213-0.099,0.36-0.302,0.391-0.535c0.115-0.868,0.327-1.4,0.631-1.583
		c0.55-0.33,1.881,0.175,3.421,0.758c1.173,0.445,2.634,0.997,4.298,1.405c4.344,1.064,9.45,0.15,13.954-0.657
		c1.522-0.272,2.988-0.534,4.351-0.709c2.85-0.363,5.755,0.83,6.482,2.662c0.549,1.382-0.295,2.977-2.376,4.49
		c-5.768,4.194-33.388,2.332-36.204,2.13c-0.749-0.713-1.042-2.174-1.129-3.136c0.455,0.145,0.761,0.218,0.8,0.226
		c0.047,0.01,0.094,0.015,0.142,0.015c0.197,0,0.389-0.086,0.522-0.238c0.164-0.191,0.212-0.453,0.126-0.689
		c-0.43-1.174-0.667-3.344-0.765-4.454c0.183,0.05,0.375,0.032,0.537-0.068c0.179-0.11,0.298-0.298,0.323-0.507
		c0.816-6.931-0.607-10.545-1.353-11.899c0.181-0.138,0.35-0.288,0.512-0.444c0.05,3.276,1.95,5.91,2.727,6.851
		C422.676,401.788,424.69,404.149,426.01,404.985z"/>
	<path fill="#FFD250" d="M356.805,369.46c-0.268-5.558-1.587-14.547-5.805-14.753c-2.377-0.11-3.548,1.354-3.597,1.416
		c-0.139,0.181-0.368,0.282-0.589,0.271l-1.612-0.097l0.289,1.068c0.069,0.257-0.018,0.534-0.222,0.707
		c-0.098,0.083-2.377,2.062-0.99,4.583c1.056,1.921,4.471,2.83,6.964,3.493c1.113,0.297,2.075,0.553,2.699,0.858
		C355.056,367.55,356.03,368.467,356.805,369.46z"/>
	<path fill="#464655" d="M351.067,353.328c-2.425-0.119-3.935,1.09-4.503,1.668l-2.236-0.134c-0.212-0.017-0.435,0.082-0.576,0.253
		c-0.14,0.172-0.19,0.401-0.132,0.615l0.429,1.593c-1.096,1.119-2.385,3.442-0.98,5.996c1.34,2.438,5.085,3.434,7.818,4.162
		c1.044,0.277,1.945,0.518,2.449,0.763c1.616,0.79,2.914,2.588,3.59,4.008c0.116,0.244,0.361,0.393,0.623,0.393
		c0.049,0,0.099-0.006,0.149-0.016c0.314-0.069,0.537-0.346,0.54-0.667C358.246,371.217,358.335,353.683,351.067,353.328z
		 M351.243,366.147c-2.493-0.663-5.907-1.572-6.964-3.493c-1.387-2.52,0.892-4.5,0.99-4.583c0.203-0.173,0.291-0.449,0.222-0.707
		l-0.289-1.068l1.612,0.097c0.222,0.012,0.45-0.09,0.589-0.271c0.048-0.063,1.22-1.527,3.597-1.416
		c4.218,0.206,5.537,9.195,5.805,14.753c-0.776-0.992-1.75-1.91-2.863-2.454C353.318,366.699,352.356,366.443,351.243,366.147z"/>
	<path fill="#FFD250" d="M472.133,369.46c0.268-5.558,1.587-14.547,5.805-14.753c2.377-0.11,3.548,1.354,3.597,1.416
		c0.139,0.181,0.368,0.282,0.589,0.271l1.612-0.097l-0.289,1.068c-0.069,0.257,0.018,0.534,0.222,0.707
		c0.098,0.083,2.377,2.062,0.99,4.583c-1.056,1.921-4.471,2.83-6.964,3.493c-1.113,0.297-2.075,0.553-2.699,0.858
		C473.883,367.55,472.908,368.467,472.133,369.46z"/>
	<path fill="#464655" d="M470.699,371.963c0.004,0.321,0.227,0.598,0.54,0.667c0.05,0.011,0.099,0.016,0.149,0.016
		c0.262,0,0.507-0.149,0.623-0.393c0.676-1.419,1.974-3.217,3.59-4.008c0.504-0.246,1.405-0.486,2.449-0.763
		c2.734-0.728,6.478-1.724,7.818-4.162c1.405-2.554,0.116-4.877-0.98-5.996l0.429-1.593c0.058-0.215,0.008-0.444-0.132-0.615
		c-0.14-0.172-0.364-0.271-0.576-0.253l-2.236,0.134c-0.568-0.577-2.077-1.786-4.503-1.668
		C470.604,353.683,470.692,371.217,470.699,371.963z M474.996,367.005c-1.113,0.545-2.088,1.463-2.863,2.454
		c0.268-5.558,1.587-14.547,5.805-14.753c2.377-0.11,3.548,1.354,3.597,1.416c0.139,0.18,0.368,0.282,0.589,0.271l1.612-0.097
		l-0.289,1.068c-0.069,0.257,0.018,0.534,0.222,0.707c0.098,0.083,2.377,2.062,0.99,4.583c-1.056,1.921-4.471,2.83-6.964,3.493
		C476.582,366.443,475.62,366.699,474.996,367.005z"/>
	<path fill="#FFD250" d="M472.133,472.21c0.268,5.558,1.587,14.547,5.805,14.753c2.377,0.11,3.548-1.354,3.597-1.417
		c0.139-0.181,0.368-0.282,0.589-0.271l1.612,0.097l-0.289-1.068c-0.069-0.258,0.018-0.534,0.222-0.707
		c0.098-0.083,2.377-2.062,0.99-4.583c-1.056-1.921-4.471-2.83-6.964-3.493c-1.113-0.297-2.075-0.553-2.699-0.858
		C473.883,474.12,472.908,473.202,472.133,472.21z"/>
	<path fill="#464655" d="M477.871,488.341c2.425,0.119,3.935-1.09,4.503-1.668l2.236,0.134c0.212,0.017,0.435-0.082,0.576-0.253
		c0.14-0.172,0.19-0.401,0.132-0.615l-0.429-1.593c1.096-1.119,2.385-3.442,0.98-5.996c-1.34-2.438-5.085-3.434-7.818-4.162
		c-1.044-0.277-1.945-0.518-2.449-0.763c-1.616-0.79-2.914-2.588-3.59-4.008c-0.116-0.244-0.361-0.393-0.623-0.393
		c-0.049,0-0.099,0.006-0.149,0.016c-0.314,0.069-0.537,0.346-0.54,0.667C470.692,470.453,470.604,487.987,477.871,488.341z
		 M477.696,475.523c2.493,0.663,5.907,1.572,6.964,3.493c1.387,2.52-0.892,4.5-0.99,4.583c-0.203,0.173-0.291,0.449-0.222,0.707
		l0.289,1.068l-1.612-0.097c-0.222-0.012-0.45,0.09-0.589,0.271c-0.048,0.063-1.22,1.527-3.597,1.416
		c-4.218-0.206-5.537-9.195-5.805-14.753c0.776,0.992,1.75,1.91,2.863,2.454C475.62,474.97,476.582,475.226,477.696,475.523z"/>
	<path fill="#FFD250" d="M356.805,472.21c-0.268,5.558-1.587,14.547-5.805,14.753c-2.377,0.11-3.548-1.354-3.597-1.417
		c-0.139-0.181-0.368-0.282-0.589-0.271l-1.612,0.097l0.289-1.068c0.069-0.258-0.018-0.534-0.222-0.707
		c-0.098-0.083-2.377-2.062-0.99-4.583c1.056-1.921,4.471-2.83,6.964-3.493c1.113-0.297,2.075-0.553,2.699-0.858
		C355.056,474.12,356.03,473.202,356.805,472.21z"/>
	<path fill="#464655" d="M358.239,469.706c-0.004-0.321-0.227-0.598-0.54-0.667c-0.05-0.011-0.099-0.016-0.149-0.016
		c-0.262,0-0.507,0.149-0.623,0.393c-0.676,1.419-1.974,3.217-3.59,4.008c-0.504,0.246-1.405,0.486-2.449,0.763
		c-2.734,0.728-6.478,1.724-7.818,4.162c-1.405,2.554-0.116,4.877,0.98,5.996l-0.429,1.593c-0.058,0.215-0.008,0.444,0.132,0.615
		c0.14,0.172,0.364,0.271,0.576,0.253l2.236-0.134c0.568,0.577,2.077,1.786,4.503,1.668
		C358.335,487.987,358.246,470.453,358.239,469.706z M353.942,474.665c1.113-0.545,2.088-1.463,2.863-2.454
		c-0.268,5.558-1.587,14.547-5.805,14.753c-2.377,0.11-3.548-1.354-3.597-1.416c-0.139-0.181-0.368-0.282-0.589-0.271l-1.612,0.097
		l0.289-1.068c0.069-0.257-0.018-0.534-0.222-0.707c-0.098-0.083-2.377-2.062-0.99-4.583c1.056-1.921,4.471-2.83,6.964-3.493
		C352.356,475.226,353.318,474.97,353.942,474.665z"/>
</g>
</svg>
