<?xml version="1.0" encoding="utf-8"?>
<!-- Generator: Adobe Illustrator 17.0.0, SVG Export Plug-In . SVG Version: 6.00 Build 0)  -->
<!DOCTYPE svg PUBLIC "-//W3C//DTD SVG 1.1//EN" "http://www.w3.org/Graphics/SVG/1.1/DTD/svg11.dtd">
<svg version="1.1" id="Capa_1" xmlns="http://www.w3.org/2000/svg" xmlns:xlink="http://www.w3.org/1999/xlink" x="0px" y="0px"
	 width="512px" height="512px" viewBox="0 0 512 512" enable-background="new 0 0 512 512" xml:space="preserve">
<g>
	<path fill="#FFDE55" d="M350.184,264.013l-21.213,21.213l0.126,0.125l-53.782,55.073h0.001l-10.607,10.607l115.602,115.601
		L469.104,459l-2.547-78.614L350.184,264.013z"/>
	<path fill="#FF641A" d="M494.062,407.892l-27.506-27.506l-86.246,86.246l27.506,27.506C419.335,505.656,434.649,512,450.939,512
		c16.289,0,31.604-6.343,43.123-17.862C517.84,470.359,517.84,431.67,494.062,407.892z"/>
	<path fill="#FFF5F5" d="M66.449,66.345c-68.46,68.46-68.46,179.455,0,247.914c34.23,34.23,79.093,51.345,123.957,51.345
		L222.104,191L190.406,15C145.543,15,100.679,32.115,66.449,66.345z"/>
	<path fill="#EBEBF0" d="M314.363,66.345C280.134,32.115,235.27,15,190.406,15v350.604c44.864,0,89.727-17.115,123.957-51.345
		C382.823,245.799,382.823,134.804,314.363,66.345z"/>
	<path fill="#09607D" d="M77.056,303.652c-30.277-30.277-46.951-70.532-46.951-113.351S46.779,107.227,77.056,76.95
		S147.588,30,190.406,30l10.698-16L190.406,0c-50.831,0-98.62,19.795-134.563,55.738C19.899,91.681,0.104,139.47,0.104,190.302
		s19.795,98.621,55.738,134.563c35.943,35.943,83.732,55.738,134.563,55.738L200.104,366l-9.698-15.396
		C147.588,350.604,107.333,333.929,77.056,303.652z"/>
	<path fill="#04303E" d="M324.97,55.738C289.026,19.795,241.238,0,190.406,0v30c42.818,0,83.073,16.674,113.351,46.951
		c30.277,30.277,46.951,70.532,46.951,113.351s-16.674,83.073-46.951,113.351c-30.277,30.277-70.532,46.951-113.351,46.951v30
		c50.832,0,98.62-19.795,134.563-55.738s55.738-83.732,55.738-134.563S360.913,91.681,324.97,55.738L324.97,55.738z"/>
</g>
<g>
	<path fill="#FFD250" d="M307.958,110.659H73.224c-2.315,0-4.192,1.877-4.192,4.191v150.901c0,2.315,1.877,4.192,4.192,4.192
		h234.735c2.315,0,4.192-1.877,4.192-4.192V114.851C312.15,112.536,310.273,110.659,307.958,110.659z"/>
	<path fill="#963C3C" d="M157.057,127.426v125.751c0,2.315,1.877,4.192,4.192,4.192h134.134c2.315,0,4.192-1.877,4.192-4.192
		V127.426c0-2.315-1.877-4.192-4.192-4.192H161.249C158.934,123.235,157.057,125.111,157.057,127.426z"/>
	<path fill="#5AA587" d="M113.045,123.235H85.799c-2.315,0-4.192,1.877-4.192,4.192v125.751c0,2.315,1.877,4.192,4.192,4.192h27.246
		V123.235z"/>
	<path fill="#FF7350" d="M140.291,123.235h-27.246v134.134h27.246c2.315,0,4.192-1.877,4.192-4.192V127.426
		C144.483,125.111,142.606,123.235,140.291,123.235z"/>
	<g>
		<path fill="#FFD250" d="M255.907,223.889c-0.141-0.937,0.684-2.147,1.959-3.885c0.461-0.628,1.127-1.538,1.307-1.974
			c-0.119-0.009-0.282,0.001-0.404,0.007c-0.705,0.034-1.772,0.083-2.704-0.952c-0.365-0.406-0.54-0.913-0.506-1.467
			c0.07-1.126,0.989-2.233,1.559-2.818c-1.471-1.033-2.876-2.105-4.171-3.401c-2.476-2.476-5.3-3.669-8.417-3.603
			c-0.289,3.101,1.31,5.141,3.015,7.287c0.503,0.632,1.004,1.263,1.459,1.923c2.244,3.248,1.774,9.52,1.49,10.184
			c-0.322,0.753-2.096,2.423-4.53,2.097c-1.119-0.147-2.407,0.229-3.219,0.939c-0.349,0.305-0.765,0.813-0.765,1.494
			c0,0.034,0.003,0.207,0.056,0.238c0.327,0.198,1.549-0.188,2.423-0.66c0.241-0.132,0.541-0.093,0.745,0.096
			c1.72,1.611,3.447,0.219,3.638,0.055c0.236-0.202,0.584-0.208,0.824-0.015c1.761,1.419,3.596-0.132,3.673-0.199
			c0.216-0.187,0.533-0.209,0.773-0.052c0.764,0.501,1.463,0.644,2.086,0.43c0.544-0.189,0.833-0.598,0.867-0.697
			c0.016-0.26-0.334-1.603-0.566-2.491C256.254,225.493,256.003,224.529,255.907,223.889z"/>
		<path fill="#FFD250" d="M274.973,164.501c-0.53-0.04-0.915,0.075-1.177,0.335c-0.482,0.476-0.443,1.334-0.442,1.343
			c0.01,0.191-0.066,0.377-0.205,0.507c-0.141,0.13-0.329,0.196-0.52,0.168c-0.953-0.125-2.364-1.131-4.98-3.049
			c-4.157-3.047-10.44-7.652-16.435-8.409c-6.968-0.885-13.169,1.338-14.744,5.277c-1.754,4.386,1.974,8.381,2.011,8.422
			c0.189,0.201,0.231,0.5,0.101,0.744c-0.983,1.852-0.238,3.218,0.433,3.967c0.21-0.618,0.525-1.04,0.958-1.3
			c1.046-0.625,2.411-0.108,4.3,0.607c1.116,0.422,2.38,0.9,3.855,1.262c3.782,0.927,8.394,0.101,12.464-0.628
			c1.438-0.258,2.825-0.505,4.115-0.67c3.246-0.414,6.499,1.025,7.393,3.279c0.434,1.092,0.665,3.284-2.65,5.695
			c-5.962,4.337-33.151,2.335-34.753,2.213c-0.036,0.003-0.071,0.006-0.146,0.011c0.594,0.668,1.292,1.319,1.596,1.4
			c0.31,0.083,0.511,0.381,0.472,0.699c-0.039,0.318-0.307,0.559-0.628,0.564l-2.785,0.042l0.256,2.68
			c0.019,0.198-0.055,0.393-0.2,0.529c-0.145,0.136-0.345,0.193-0.54,0.167c-0.109-0.018-2.513-0.402-4.175-1.326l-3.146,1.984
			c-0.104,0.066-0.223,0.098-0.343,0.098c-0.07,0-0.14-0.011-0.207-0.034c-0.184-0.063-0.33-0.204-0.396-0.387l-1.2-3.264
			l-1.423,2.847c-0.104,0.208-0.312,0.344-0.544,0.355c-0.231,0.024-0.452-0.103-0.576-0.3l-1.22-1.944
			c-0.558,0.697-1.453,1.712-2.368,2.345c-0.167,0.117-0.379,0.146-0.573,0.08c-0.193-0.066-0.344-0.22-0.405-0.414l-0.639-2.018
			c-0.566,0.715-1.384,1.663-2.25,2.374c-0.185,0.154-0.442,0.189-0.663,0.093c-0.221-0.096-0.37-0.308-0.385-0.548l-0.206-3.244
			c-0.732,0.373-1.729,0.859-2.281,1.032c-0.251,0.079-0.528-0.005-0.693-0.212c-0.166-0.207-0.188-0.492-0.055-0.722
			c0.991-1.721,1.9-3.869,1.97-4.938c-0.657,0.787-1.577,1.54-2.605,2.376c-2.187,1.781-4.908,3.995-6.912,7.871
			c-1.399,2.709-2.404,7.435-0.632,11.84c1.512,3.758,4.767,6.563,9.643,8.364c-0.163-0.711-0.288-1.41-0.301-2.067
			c-0.064-3.337,0.629-6.383,0.659-6.511c0.08-0.346,0.424-0.565,0.77-0.481c0.346,0.08,0.561,0.425,0.482,0.77
			c-0.007,0.03-0.686,3.025-0.626,6.198c0.03,1.553,0.698,3.47,1.343,5.322c0.858,2.463,1.746,5.011,1.359,7.154
			c-0.526,2.914-4.153,3.652-7.521,3.09c-0.957-0.161-1.828,0.075-2.453,0.659c-0.635,0.592-0.961,1.5-0.871,2.429
			c0.042,0.437,0.206,0.526,0.259,0.555c0.405,0.219,1.358-0.079,1.873-0.348c0.259-0.136,0.58-0.08,0.778,0.141
			c1.35,1.513,3.169,0.003,3.246-0.063c0.261-0.22,0.65-0.2,0.885,0.05c0.509,0.542,1.047,0.812,1.647,0.826
			c1.096,0.067,2.138-0.91,2.148-0.918c0.189-0.185,0.474-0.233,0.715-0.123c2.119,0.97,3.231,0.406,3.277,0.38
			c1.839-1.568,0.776-5.288,0.765-5.326c-0.05-0.17-0.028-0.353,0.062-0.505c0.09-0.153,0.238-0.262,0.411-0.302
			c2.576-0.591,4.016-2.244,4.712-3.34c-1.273-0.012-2.284-0.459-2.88-1.389c-0.959-1.503-0.499-3.765,1.175-5.765
			c2.863-3.421,4.613-10.344,4.35-13.164c-0.032-0.353,0.227-0.666,0.581-0.699c0.344-0.035,0.666,0.227,0.699,0.581
			c0.229,2.47-0.884,7.592-2.916,11.454c2.575-0.712,4.925-1.755,7.376-2.873c2.437-1.112,4.958-2.261,7.987-3.21
			c5.119-1.603,9.635-0.492,13.426,3.301c1.837,1.837,3.841,3.181,6.163,4.74c1.019,0.684,2.081,1.397,3.181,2.189
			c2.984,2.148,2.932,3.942,2.876,5.841c-0.017,0.579-0.035,1.177,0.03,1.825c0.308,3.084-2.144,3.572-3.323,3.806
			c-0.161,0.032-0.313,0.062-0.445,0.094c-0.167,0.042-0.366,0.083-0.586,0.127c-1.197,0.243-3.006,0.61-3.45,2.142
			c-0.08,0.274-0.049,0.37-0.049,0.37c0.189,0.086,1.169-0.136,1.949-0.491c0.166-0.076,0.354-0.077,0.52-0.006
			c0.167,0.071,0.295,0.21,0.355,0.381c0.227,0.667,0.582,0.781,0.698,0.819c0.809,0.253,2.133-0.492,2.532-0.775
			c0.248-0.175,0.583-0.157,0.807,0.049c0.663,0.606,1.277,0.872,1.828,0.798c0.738-0.103,1.186-0.797,1.19-0.805
			c0.106-0.171,0.287-0.283,0.488-0.302c0.204-0.011,0.4,0.061,0.536,0.21c0.001,0.003,0.564,0.596,1.714,0.959
			c0.755,0.236,0.945-0.036,1.007-0.126c0.319-0.465,0.204-1.652-0.417-2.429c-0.815-1.019-1.193-2.568-0.963-3.947
			c0.211-1.269,0.896-2.304,1.978-2.993c1.984-1.263,2.437-2.623,2.31-2.882c-0.037-0.018-0.252-0.046-0.424-0.069
			c-0.885-0.117-2.367-0.313-3.89-3.126c-1.346-2.483-0.044-6.414,1.463-10.967c0.764-2.306,1.555-4.692,2.041-7.032
			c1.349-6.473-2.89-11.613-2.933-11.663c-0.219-0.261-0.197-0.648,0.053-0.882c2.975-2.791,4.254-5.379,3.8-7.69
			c-0.472-2.41-2.807-4.096-4.661-4.806c-2.312-0.886-6.529-0.383-10.609,0.103c-3.409,0.405-6.632,0.789-8.712,0.355
			c-1.072-0.225-1.857-0.733-2.333-1.51c-0.392-0.64-0.488-1.341-0.485-1.888c-1.033,0.388-1.731,1.346-1.739,1.357
			c-0.118,0.165-0.308,0.265-0.51,0.269c-0.254-0.01-0.397-0.088-0.52-0.248c-0.526-0.68-0.737-1.429-0.627-2.229
			c0.142-1.034,0.809-1.924,1.356-2.497c-2.392-0.84-4.225,1.165-4.31,1.26c-0.209,0.232-0.553,0.281-0.817,0.122
			c-1.154-0.709-1.869-2.102-1.824-3.547c0.044-1.364,0.747-2.508,1.93-3.136c0.811-0.43,1.588-0.509,2.309-0.237
			c0.686,0.258,1.167,0.792,1.47,1.245c0.875-0.998,0.949-2.721,0.949-2.741c0.005-0.172,0.077-0.335,0.204-0.453
			c0.126-0.117,0.3-0.191,0.465-0.172c1.521,0.063,2.703,0.613,3.51,1.633c1.104,1.396,1.207,3.336,1.142,4.537
			c2.431-1.241,2.123-4.105,2.107-4.238c-0.026-0.221,0.064-0.439,0.237-0.578c0.173-0.138,0.404-0.181,0.616-0.104
			c2.579,0.91,3.518,3.21,3.739,4.922c0.73-0.697,0.741-1.591,0.741-1.603c0-0.293,0.199-0.55,0.483-0.623
			c0.287-0.072,0.582,0.057,0.723,0.314c0.995,1.819,2.512,2.951,3.623,3.584l-0.764-1.853c-0.104-0.251-0.038-0.54,0.163-0.722
			c0.202-0.182,0.498-0.217,0.736-0.088c1.273,0.685,2.281,1.461,3.348,2.283c1.287,0.991,2.618,2.015,4.492,2.896
			c1.831,0.861,3.065,0.697,3.775,0.409c0.736-0.297,1.157-0.821,1.293-1.18c0.258-0.679,0.334-1.653-0.081-2.299
			C276.047,164.773,275.596,164.542,274.973,164.501z"/>
		<path fill="#FFD250" d="M199.114,173.74c0.001,0,0.002,0.001,0.002,0.001c0.003,0.001,0.005,0,0.007,0.001
			c0.047,0.016,4.852,1.532,9.214,1.792c0.239,0.014,0.452,0.161,0.548,0.381c0.097,0.22,0.065,0.476-0.086,0.663l-0.152,0.189
			c0.865-0.13,1.954-0.25,3.021-0.254c-0.437-0.52-0.981-1.182-1.54-1.876c-1.167-0.021-5.435-0.207-8.909-1.881
			c-0.844-0.409-2.302-1.116-2.996-0.758c-0.12,0.062-0.317,0.351-0.284,0.707C197.981,173.156,198.398,173.524,199.114,173.74z"/>
		<path fill="#FFD250" d="M213.59,164.453c-0.067,0-0.128,0.007-0.181,0.024c-0.28,0.084-0.422,0.401-0.46,0.648
			c-0.047,0.316,0.034,0.741,0.401,0.987c0.48,0.319,0.992,0.101,1.284-0.188c0.092-0.09,0.533-0.561,0.208-1.077l-0.001-0.001
			C214.339,164.614,213.898,164.453,213.59,164.453z"/>
		<path fill="#FFD250" d="M207.285,179.943c0.311,0.742,0.794,1.317,1.193,1.702c0.151-0.328,0.383-0.669,0.733-0.924
			c0.343-0.25,0.937-0.493,1.808-0.312c0.014,0.001,0.026,0.004,0.039,0.005c0.025,0.006,0.045,0.003,0.07,0.01
			c0.022,0.005,0.037,0.023,0.059,0.029c0.031,0.011,0.064,0.012,0.093,0.028c0.022,0.012,0.036,0.032,0.056,0.047
			c0.328,0.14,0.601,0.364,0.746,0.703c0.487,1.136-0.37,3.341-1.126,4.91c0.534-0.264,1.046-0.532,1.322-0.68
			c0.192-0.104,0.425-0.102,0.616,0.005c0.192,0.106,0.315,0.303,0.329,0.52l0.181,2.866c1.005-1.059,1.796-2.209,1.806-2.225
			c0.139-0.203,0.379-0.305,0.624-0.273c0.244,0.036,0.444,0.208,0.519,0.442l0.733,2.315c1.026-0.944,1.92-2.207,1.931-2.223
			c0.125-0.176,0.328-0.269,0.542-0.273c0.215,0.006,0.414,0.119,0.528,0.301l1.105,1.762l1.577-3.153
			c0.115-0.23,0.331-0.375,0.611-0.355c0.256,0.014,0.478,0.179,0.567,0.42l1.439,3.913l2.808-1.772
			c0.213-0.136,0.482-0.132,0.695,0.007c0.916,0.6,2.323,0.987,3.21,1.186l-0.24-2.515c-0.017-0.179,0.042-0.356,0.161-0.49
			s0.289-0.212,0.469-0.214l1.607-0.024c-0.387-0.391-0.706-0.77-0.862-0.962c-0.105-0.127-0.146-0.283-0.14-0.436
			c-1.184-0.05-2.833-0.262-4.483-0.973l-0.981,1.514c-0.094,0.145-0.241,0.245-0.41,0.279c-0.042,0.01-0.086,0.014-0.129,0.014
			c-0.126,0-0.251-0.038-0.358-0.109l-3.711-2.49l-0.682,1.857c-0.078,0.213-0.264,0.369-0.487,0.41
			c-0.223,0.044-0.451-0.038-0.601-0.209c-0.638-0.731-1.639-1.852-2.235-2.467c-0.537,0.517-1.478,1.351-2.484,1.91
			c-0.164,0.091-0.36,0.105-0.535,0.041c-0.176-0.065-0.314-0.202-0.38-0.378l-1.018-2.731c-0.123-0.332,0.045-0.703,0.378-0.827
			c0.331-0.123,0.703,0.047,0.827,0.378l0.742,1.992c1.077-0.748,1.975-1.711,1.986-1.723c0.229-0.247,0.611-0.276,0.872-0.066
			c0.374,0.3,1.389,1.418,2.098,2.213l0.592-1.611c0.067-0.185,0.217-0.329,0.405-0.389c0.186-0.065,0.392-0.034,0.557,0.077
			l3.849,2.582l0.931-1.434c0.179-0.276,0.537-0.373,0.826-0.225c1.708,0.854,3.553,1.061,4.73,1.092
			c-0.718-1.342-0.782-3.044-0.786-3.444c-0.962-0.425-2.144-1.066-3.333-2.043l-0.462,1.143c-0.075,0.182-0.228,0.321-0.419,0.376
			c-0.189,0.053-0.395,0.019-0.554-0.097l-1.857-1.347l-0.181,1.391c-0.029,0.216-0.163,0.402-0.36,0.496
			c-0.195,0.094-0.425,0.085-0.612-0.03c-0.065-0.038-1.592-0.972-2.502-1.996c-0.236-0.265-0.212-0.671,0.054-0.907
			c0.262-0.236,0.669-0.213,0.907,0.054c0.385,0.433,0.924,0.862,1.373,1.188l0.187-1.433c0.029-0.225,0.175-0.417,0.383-0.507
			c0.209-0.09,0.449-0.063,0.632,0.07l2.066,1.499l0.495-1.221c0.08-0.196,0.251-0.34,0.459-0.386
			c0.206-0.045,0.424,0.014,0.577,0.16c1.602,1.508,3.336,2.322,4.414,2.721c-0.368-1.715-0.509-3.866-0.516-3.979
			c-0.001-0.016,0.006-0.03,0.006-0.046c-1.001-0.552-2.417-1.504-3.641-2.999c-0.006,0.792-0.07,1.598-0.264,2.107
			c-0.067,0.176-0.207,0.313-0.383,0.377c-0.178,0.061-0.373,0.045-0.534-0.046c-0.077-0.045-1.476-0.847-2.517-2.02
			c-0.179,0.646-0.396,1.327-0.577,1.631c-0.174,0.288-0.537,0.394-0.839,0.244c-0.061-0.03-1.046-0.529-1.924-1.291
			c-0.085,0.856-0.217,1.822-0.406,2.293c-0.067,0.171-0.206,0.304-0.379,0.366c-0.173,0.059-0.364,0.046-0.526-0.041
			c-0.059-0.032-1.174-0.643-2.215-1.419l-0.282,1.072c-0.049,0.183-0.175,0.336-0.346,0.417c-0.172,0.08-0.368,0.082-0.541,0.004
			c-0.077-0.035-1.915-0.88-2.962-2.159c-0.225-0.274-0.185-0.679,0.09-0.903c0.273-0.225,0.68-0.185,0.903,0.09
			c0.5,0.611,1.266,1.122,1.818,1.443l0.33-1.252c0.057-0.217,0.223-0.389,0.439-0.453c0.214-0.067,0.447-0.011,0.614,0.14
			c0.614,0.556,1.445,1.102,2.036,1.464c0.126-0.793,0.223-1.94,0.265-2.684c0.017-0.287,0.221-0.529,0.501-0.591
			c0.283-0.064,0.569,0.069,0.705,0.321c0.353,0.651,1.202,1.284,1.842,1.685c0.176-0.55,0.392-1.36,0.555-2.06
			c0.063-0.269,0.289-0.467,0.563-0.493c0.274-0.034,0.536,0.123,0.648,0.375c0.401,0.889,1.374,1.702,2.068,2.2
			c0.075-0.937,0.006-2.268-0.08-3.101c-0.032-0.31,0.162-0.597,0.461-0.684c0.305-0.083,0.617,0.055,0.755,0.333
			c1.293,2.622,3.578,4.074,4.767,4.684c0.648-7.091-1.43-9.804-1.453-9.832c-0.116-0.146-0.165-0.338-0.131-0.522
			c0.035-0.183,0.146-0.345,0.308-0.439c1.154-0.668,1.855-1.888,2.284-3.073c-2.613,2.533-6.752,3.506-8.768,3.842l0.984,1.2
			c0.15,0.183,0.188,0.434,0.097,0.653c-0.091,0.219-0.294,0.37-0.53,0.393c-2.471,0.247-4.274-0.08-5.487-0.49l0.42,0.775
			c0.111,0.203,0.103,0.451-0.02,0.647c-0.122,0.197-0.346,0.329-0.572,0.301c-2.013-0.086-3.774-0.915-5.221-1.648
			c-0.069,0.472-0.302,0.933-0.69,1.312c-0.475,0.464-1.08,0.704-1.68,0.704c-0.425,0-0.846-0.121-1.216-0.368
			c-0.726-0.485-1.094-1.346-0.959-2.246c0.125-0.827,0.647-1.474,1.363-1.688c0.958-0.284,2.051,0.269,3.435,0.974
			c1.098,0.559,2.407,1.226,3.834,1.524l-0.795-1.469c-0.148-0.273-0.08-0.613,0.163-0.808c0.244-0.192,0.589-0.187,0.824,0.018
			c0.014,0.012,1.614,1.326,5.243,1.258l-0.915-1.116c-0.151-0.183-0.188-0.436-0.096-0.655c0.092-0.219,0.297-0.37,0.534-0.392
			c0.069-0.006,5.342-0.541,8.587-3.155c-1.057,0.309-1.874,0.26-1.937,0.259c-0.178-0.014-0.342-0.101-0.453-0.241
			c-1.486-1.868-3.007-2.445-3.774-2.623c-0.431,1.357-1.473,2.455-1.524,2.508c-0.138,0.143-0.335,0.213-0.53,0.194
			c-0.198-0.021-0.374-0.132-0.48-0.3c-1.146-1.848-2.799-2.333-3.759-2.454c0.118,1.366-0.837,2.487-1.472,2.954
			c-0.247,0.179-0.584,0.163-0.809-0.038c-2.757-2.465-4.887-1.736-5.748-1.243c0.272,0.676,0.144,1.228-0.04,1.601
			c-1.317,2.668-9.462,3.205-11.082,3.285c-0.201,0.014-0.402-0.077-0.531-0.237c-0.13-0.16-0.174-0.371-0.122-0.569
			c0.119-0.444,0.039-0.924-0.223-1.352c-0.268-0.437-0.697-0.756-1.147-0.852c-0.424-0.09-1.231-0.032-1.714,0.498
			c-0.552,0.607-0.59,1.73-0.109,3.248c0.862,2.725,3.519,5.41,5.173,6.881c-0.015-0.339-0.005-0.588-0.001-0.651
			c0.014-0.274,0.201-0.509,0.465-0.585c0.265-0.077,0.547,0.024,0.704,0.25c0.548,0.787,1.201,1.319,1.692,1.645l0.322-2.056
			c0.045-0.284,0.273-0.505,0.559-0.538c0.284-0.024,0.559,0.127,0.669,0.394c0.582,1.414,4.268,5.841,5.639,7.427
			c0.176,0.202,0.207,0.492,0.077,0.728c-0.129,0.234-0.389,0.36-0.655,0.328c-2.349-0.335-5.799,0.447-5.833,0.454
			c-0.266,0.062-0.543-0.053-0.689-0.284c-0.145-0.232-0.128-0.53,0.044-0.744l0.475-0.592c-3.261-0.339-6.436-1.196-7.719-1.571
			l-1.078,2.93l2.906-0.29c0.219-0.028,0.444,0.074,0.578,0.255c0.136,0.181,0.166,0.418,0.08,0.628l-0.548,1.339l2.394-0.633
			c0.317-0.088,0.642,0.082,0.763,0.385c0.317,0.803,0.706,1.331,1.017,1.658l0.674-1.491c0.106-0.233,0.338-0.395,0.594-0.377
			C206.957,179.553,207.186,179.707,207.285,179.943z"/>
		<path fill="#FFD250" d="M198.963,212.801c2.534,1.692,4.583-0.238,5.677-1.725c-2.335-1.703-4.035-3.799-5.038-6.294
			c-0.328-0.815-0.541-1.64-0.708-2.463c-0.238-0.187-3.764-2.98-6.717-6.244c-0.151,0.394-0.349,0.706-0.51,0.917
			c0.208,0.844,0.006,1.533-0.254,1.974c0.179,0.602,0.035,1.198-0.173,1.634c0.447,0.674,0.528,1.334,0.242,1.969
			c-0.066,0.145-0.154,0.279-0.246,0.411c0.368,0.443,0.945,1.459,0.945,3.501c0,1.374,0.509,2.198,0.888,2.622
			c0.222-0.192,0.464-0.3,0.731-0.328c0.811-0.09,1.476,0.603,2.387,1.559C196.901,211.084,197.787,212.017,198.963,212.801z"/>
		<path fill="#FFD250" d="M186.358,195.381c-0.047,0-0.095-0.001-0.143-0.001c-0.924-0.009-1.769-0.101-2.547-0.25
			c-0.075,0.215,0.085,0.839,0.251,0.967c0.164,0.126,0.274,0.334,0.268,0.54c-0.006,0.206-0.094,0.408-0.265,0.525
			c-0.11,0.077-0.436,0.368-0.44,0.652c-0.004,0.277,0.323,0.564,0.519,0.711c0.143,0.107,0.235,0.269,0.254,0.447
			c0.019,0.178-0.038,0.356-0.156,0.491c-0.083,0.098-0.319,0.455-0.278,0.755c0.009,0.064,0.035,0.258,0.37,0.485
			c0.145,0.098,0.244,0.253,0.273,0.426c0.028,0.173-0.015,0.35-0.121,0.491c0.001,0-0.179,0.264-0.111,0.526
			c0.077,0.29,0.439,0.513,0.727,0.649c0.541,0.255,1.319,0.418,2.131,0.45c0.025-0.004,0.05,0,0.075-0.001
			c0.684,0.02,1.386-0.047,1.986-0.268c0.588-0.217,0.979-0.531,1.161-0.935c0.057-0.126,0.175-0.387-0.33-0.977
			c-0.198-0.231-0.207-0.567-0.022-0.809c0.001-0.001,0.429-0.591,0.165-1.061c-0.141-0.252-0.098-0.566,0.105-0.77
			c0.038-0.042,0.436-0.511,0.121-1.354c-0.091-0.243-0.028-0.516,0.161-0.694c0.023-0.023,0.604-0.628,0.592-1.548
			c-0.079-0.096-0.158-0.192-0.234-0.289C189.625,195.067,188.099,195.381,186.358,195.381z"/>
		<path fill="#FFD250" d="M192.235,150.593c-2.598,1.397-8.14,5.779-8.3,17.773l0.143,20.213c0.017,0.028,0.042,0.057,0.056,0.085
			c0.335,0.632,0.177,1.453-0.011,2.02c1.605,0.574,3.607,0.338,4.465,0.126c-0.171-0.501-0.307-1.311,0.274-2.227
			C188.772,164.479,191.071,154.224,192.235,150.593z"/>
		<path fill="#FFD250" d="M192.503,191.097c0-1.028-0.775-1.827-1.541-2.086c-0.159-0.055-0.699-0.205-0.947,0.121
			c-0.464,0.607-0.3,1.037-0.142,1.453c0.088,0.231,0.179,0.47,0.111,0.742c-0.087,0.348-0.404,0.491-0.509,0.538
			c-0.872,0.396-4.187,0.915-6.477-0.268c-0.31-0.161-0.436-0.54-0.282-0.855c0.242-0.495,0.417-1.222,0.283-1.475
			c-0.011-0.021-0.041-0.078-0.222-0.103c-0.171-0.024-0.341-0.035-0.51-0.035c-0.782,0-1.508,0.246-1.9,0.666
			c-0.315,0.338-0.414,0.768-0.301,1.314c0.381,1.839,2.683,2.955,6.159,2.987c2.459-0.009,4.574-0.589,5.629-1.636
			C192.286,192.034,192.503,191.576,192.503,191.097z"/>
		<path fill="#FFD250" d="M186.972,206.342c0.149-0.196,0.394-0.29,0.636-0.24c0.447,0.094,1.557,0.329,2.194-0.165
			c0.223-0.171,0.273-0.637,0.102-0.941c-0.059-0.105-0.237-0.42-0.906-0.164c-0.633,0.244-1.543,0.509-2.114-0.005
			c-0.114-0.103-0.187-0.223-0.242-0.346c-0.172-0.015-0.343-0.024-0.511-0.05c-0.055,0.142-0.13,0.279-0.259,0.396
			c-0.569,0.513-1.479,0.249-2.113,0.005c-0.667-0.254-0.848,0.059-0.906,0.164c-0.171,0.304-0.122,0.77,0.101,0.939
			c0.638,0.492,1.749,0.259,2.114,0.182c0.237-0.047,0.527,0.034,0.679,0.228c0.151,0.196,0.214,0.452,0.104,0.672
			c-0.145,0.289-0.774,1.519-1.389,2.288c0.803,1.175,1.499,3.268-0.131,5.131c-0.133,0.151-0.34,0.226-0.531,0.217
			c-0.201-0.015-0.384-0.123-0.492-0.293c-0.093-0.141-0.419-0.53-0.78-0.601c-0.109-0.021-0.281-0.029-0.53,0.141
			c-0.168,0.116-0.263,0.501-0.121,0.922c0.254,0.753,1.042,1.171,2.153,1.119c0.253-0.025,0.526,0.149,0.628,0.404
			c0.101,0.255,0.029,0.547-0.179,0.725l-1.047,0.898l1.71,0.416c0.227,0.055,0.406,0.229,0.468,0.454
			c0.003,0.011,0.258,0.922,0.77,1.691c0.51-0.769,0.766-1.68,0.769-1.691c0.062-0.225,0.241-0.399,0.468-0.454l1.71-0.416
			l-1.048-0.898c-0.208-0.178-0.28-0.47-0.179-0.725s0.356-0.426,0.628-0.404c1.099,0.049,1.9-0.366,2.154-1.12
			c0.142-0.42,0.047-0.805-0.121-0.921c-0.253-0.171-0.426-0.163-0.534-0.14c-0.373,0.076-0.707,0.492-0.776,0.6
			c-0.109,0.17-0.292,0.279-0.492,0.293c-0.208,0.011-0.399-0.066-0.531-0.217c-1.629-1.862-0.933-3.956-0.13-5.131
			c-0.615-0.768-1.244-1.998-1.389-2.288C186.798,206.8,186.823,206.537,186.972,206.342z"/>
	</g>
	<path fill="#464655" d="M277.395,164.494c-0.343-0.535-1.028-1.189-2.339-1.274c-0.911-0.066-1.642,0.179-2.173,0.711
		c-0.427,0.426-0.633,0.953-0.731,1.399c-0.877-0.461-2.279-1.489-3.744-2.562c-4.265-3.125-10.709-7.849-17.034-8.649
		c-5.13-0.652-10.965,0.371-14.174,3.349c0.048-0.394,0.063-0.657,0.065-0.702c0-0.009-0.007-0.015-0.007-0.024
		c0.001-0.12-0.032-0.232-0.093-0.332c-0.013-0.021-0.027-0.038-0.043-0.057c-0.071-0.093-0.16-0.172-0.278-0.216
		c-0.002-0.001-0.003-0.004-0.006-0.004h-0.002c-0.121-0.042-0.243-0.036-0.359-0.008c-0.022,0.005-0.042,0.009-0.064,0.016
		c-0.112,0.039-0.211,0.105-0.287,0.2c-0.005,0.006-0.014,0.007-0.019,0.013c-1.333,1.789-3.161,2.025-3.836,2.047
		c-2.406-2.857-4.949-2.946-5.058-2.948c-0.368,0.024-0.603,0.228-0.65,0.548c-0.101,0.679-0.495,1.35-0.829,1.817
		c-2.12-2.636-5.105-2.372-5.238-2.361c-0.207,0.02-0.39,0.139-0.493,0.319c-0.103,0.179-0.113,0.397-0.028,0.586
		c0.383,0.841-0.081,1.575-0.451,1.982c-4.174-3.345-7.386-0.62-7.419-0.59c-0.245,0.215-0.291,0.58-0.105,0.848
		c0.311,0.451,0.256,0.7,0.173,0.868c-0.675,1.368-5.575,2.261-9.244,2.523c-0.019-0.516-0.177-1.03-0.464-1.501
		c-0.455-0.743-1.175-1.266-1.974-1.438c-0.888-0.193-2.138,0.011-2.935,0.89c-0.89,0.979-1.018,2.493-0.383,4.501
		c0.993,3.137,3.975,6.089,5.715,7.608c-0.424-0.157-0.844-0.328-1.251-0.523c-1.024-0.499-2.738-1.333-4.005-0.674
		c-0.639,0.33-1.048,1.158-0.974,1.967c0.038,0.405,0.264,1.315,1.45,1.897l-1.426,3.875c-0.076,0.208-0.04,0.44,0.095,0.615
		c0.135,0.175,0.35,0.27,0.572,0.246l2.865-0.286l-0.632,1.545c-0.092,0.226-0.049,0.485,0.112,0.668
		c0.161,0.182,0.406,0.264,0.648,0.197l3.11-0.823c0.803,1.65,1.875,2.227,1.925,2.253c0.158,0.084,0.34,0.096,0.507,0.038
		c0.167-0.057,0.304-0.181,0.377-0.342l0.495-1.097c0.514,0.719,1.069,1.196,1.412,1.459c-0.209,0.173-0.415,0.343-0.642,0.527
		c-2.159,1.757-5.116,4.164-7.241,8.278c-1.067,2.066-1.899,5.218-1.651,8.57c-1.548-1.301-4.466-3.882-6.615-6.523
		c0.259-0.177,0.534-0.343,0.742-0.548c0.672-0.665,1.027-1.453,1.027-2.275c0-1.708-1.252-2.911-2.414-3.304
		c-0.433-0.146-0.849-0.168-1.228-0.103c-0.038-28.006,3.152-36.579,3.8-38.023c0.102-0.228,0.063-0.496-0.102-0.685
		c-0.164-0.188-0.425-0.264-0.665-0.194c-0.421,0.123-10.31,3.213-10.528,19.576l0.138,19.522c-1.342-0.142-2.617,0.24-3.359,1.033
		c-0.422,0.451-0.871,1.242-0.621,2.453c0.333,1.606,1.629,2.792,3.617,3.444c-0.055,0.211-0.073,0.449-0.047,0.716
		c0.031,0.314,0.129,0.702,0.31,1.039c-0.243,0.289-0.481,0.703-0.493,1.212c-0.011,0.491,0.184,0.952,0.582,1.374
		c-0.157,0.317-0.294,0.746-0.234,1.221c0.037,0.283,0.156,0.659,0.491,1.022c-0.094,0.28-0.153,0.647-0.052,1.05
		c0.103,0.416,0.362,0.774,0.746,1.08c-0.984-0.182-1.675,0.262-1.999,0.839c-0.486,0.867-0.289,2.028,0.439,2.588
		c0.593,0.456,1.298,0.602,1.941,0.568c-0.327,0.554-0.673,1.066-0.89,1.236c-0.141,0.11-0.231,0.273-0.246,0.451
		c-0.016,0.178,0.044,0.355,0.164,0.488c0.067,0.074,1.468,1.653,0.634,3.293c-0.258-0.212-0.592-0.41-0.989-0.49
		c-0.516-0.105-1.038,0.014-1.514,0.34c-0.679,0.465-0.931,1.448-0.613,2.391c0.244,0.722,0.851,1.462,1.887,1.804l-0.902,0.773
		c-0.183,0.157-0.263,0.404-0.207,0.638c0.056,0.234,0.238,0.417,0.472,0.474l2.578,0.628c0.198,0.566,0.649,1.66,1.404,2.415
		c0.121,0.121,0.349,0.188,0.52,0.188s0.334-0.067,0.454-0.188c0.755-0.755,1.207-1.848,1.404-2.415l2.578-0.628
		c0.234-0.057,0.416-0.24,0.472-0.474c0.056-0.235-0.024-0.481-0.207-0.638l-0.902-0.773c1.036-0.342,1.644-1.082,1.887-1.804
		c0.318-0.943,0.066-1.926-0.613-2.391c-0.476-0.327-1.001-0.444-1.514-0.34c-0.396,0.08-0.729,0.278-0.988,0.49
		c-0.821-1.632,0.569-3.22,0.636-3.294c0.119-0.133,0.178-0.31,0.161-0.487c-0.016-0.178-0.105-0.341-0.245-0.45
		c-0.217-0.169-0.561-0.68-0.888-1.234c0.642,0.006,1.343-0.111,1.939-0.571c0.131-0.1,0.223-0.238,0.319-0.371
		c0.046,2.82,1.833,3.936,1.91,3.983c0.304,0.181,0.695,0.085,0.878-0.217c0.151-0.247,0.242-0.294,0.24-0.297
		c0.226,0.012,0.86,0.68,1.323,1.167c0.756,0.795,1.698,1.786,2.993,2.65c0.949,0.633,1.847,0.883,2.671,0.883
		c2.313,0,4.046-1.952,4.785-2.955c1.441,0.904,3.074,1.688,4.936,2.324c0.064,0.022,0.128,0.03,0.192,0.032
		c0.222,0.721,0.465,1.447,0.716,2.167c0.804,2.306,1.635,4.692,1.308,6.503c-0.422,2.347-4.136,2.371-6.044,2.05
		c-1.358-0.221-2.618,0.126-3.542,0.988c-0.925,0.864-1.401,2.169-1.272,3.492c0.09,0.924,0.553,1.359,0.926,1.561
		c0.858,0.461,2.017,0.116,2.647-0.142c1.447,1.26,3.177,0.731,4.224,0.066c0.644,0.538,1.362,0.82,2.139,0.837
		c0.026,0.001,0.051,0.001,0.077,0.001c1.175,0,2.163-0.618,2.657-0.997c2.489,1.007,3.912,0.256,4.161,0.102
		c2.02-1.705,1.688-4.768,1.425-6.1c4.152-1.257,5.491-4.866,5.549-5.026c0.08-0.225,0.029-0.476-0.132-0.652
		c-0.163-0.175-0.412-0.246-0.64-0.185c-1.28,0.344-2.291,0.11-2.773-0.644c-0.652-1.019-0.229-2.688,1.077-4.248
		c0.274-0.328,0.533-0.69,0.787-1.067c3.209-0.717,5.95-1.965,8.851-3.289c2.402-1.095,4.886-2.228,7.839-3.153
		c0.828-0.26,1.632-0.412,2.425-0.515c-0.24,3.481,1.546,5.775,3.299,7.981c0.484,0.609,0.969,1.217,1.407,1.852
		c1.88,2.723,1.519,8.433,1.367,8.948c-0.133,0.293-1.394,1.576-3.18,1.331c-1.484-0.198-3.146,0.292-4.235,1.245
		c-0.777,0.68-1.205,1.555-1.205,2.462c0,0.773,0.371,1.157,0.684,1.343c0.931,0.553,2.471-0.038,3.296-0.434
		c0.771,0.596,1.563,0.816,2.295,0.816c0.91,0,1.728-0.339,2.303-0.715c1.723,1.088,3.527,0.451,4.533-0.235
		c1.26,0.684,2.273,0.548,2.926,0.292c0.212-0.083,0.406-0.189,0.582-0.307c0.026,0.027,0.05,0.064,0.076,0.086
		c0.684,0.588,1.949,0.275,2.758-0.019c0.368,0.61,0.856,0.885,1.241,1.007c1.19,0.379,2.556-0.273,3.244-0.68
		c0.834,0.645,1.663,0.916,2.491,0.8c0.73-0.101,1.281-0.493,1.636-0.837c0.378,0.272,0.953,0.607,1.729,0.852
		c0.342,0.109,0.643,0.153,0.907,0.153c0.896,0,1.363-0.51,1.546-0.777c0.743-1.085,0.356-2.922-0.474-3.959
		c-0.49-0.612-0.896-1.756-0.7-2.933c0.105-0.628,0.432-1.504,1.399-2.12c1.746-1.11,2.891-2.614,2.917-3.829
		c0.011-0.502-0.179-0.916-0.538-1.167c-0.317-0.222-0.671-0.269-1.015-0.314c-0.764-0.101-1.717-0.227-2.929-2.465
		c-1.08-1.995,0.199-5.859,1.555-9.951c0.775-2.341,1.577-4.763,2.079-7.174c1.243-5.968-1.754-10.777-2.839-12.274
		c3.018-2.968,4.283-5.817,3.762-8.472c-0.574-2.926-3.302-4.93-5.462-5.758c-2.612-1.001-6.989-0.481-11.222,0.027
		c-3.301,0.395-6.421,0.77-8.295,0.373c-0.708-0.148-1.212-0.456-1.497-0.915c-0.495-0.799-0.23-1.85-0.227-1.86
		c0.052-0.197,0.007-0.408-0.121-0.566c-0.128-0.158-0.339-0.259-0.526-0.24c-1.231,0.049-2.212,0.736-2.818,1.302
		c-0.035-0.172-0.041-0.349-0.016-0.533c0.167-1.235,1.589-2.314,1.603-2.325c0.17-0.128,0.267-0.332,0.256-0.546
		c-0.01-0.213-0.125-0.406-0.307-0.518c-2.617-1.594-5.061-0.414-6.312,0.695c-0.528-0.518-0.847-1.31-0.822-2.107
		c0.016-0.524,0.201-1.486,1.247-2.042c0.473-0.252,0.88-0.307,1.249-0.171c0.617,0.23,1.028,0.989,1.134,1.263
		c0.067,0.175,0.21,0.313,0.387,0.375c0.178,0.065,0.375,0.045,0.537-0.05c1.433-0.836,1.891-2.591,2.036-3.565
		c0.842,0.137,1.485,0.495,1.952,1.084c1.31,1.651,0.774,4.56,0.769,4.59c-0.042,0.217,0.032,0.441,0.193,0.592
		c0.161,0.151,0.39,0.207,0.604,0.151c2.908-0.779,3.839-3.141,3.982-4.886c2.224,1.385,2.072,4.248,2.064,4.383
		c-0.014,0.221,0.086,0.434,0.265,0.563c0.179,0.13,0.412,0.157,0.617,0.076c1.064-0.432,1.653-1.134,1.98-1.782
		c2.024,2.654,4.838,3.576,4.973,3.62c0.238,0.073,0.498,0.007,0.668-0.178c0.169-0.184,0.217-0.449,0.122-0.68l-0.628-1.523
		c0.511,0.36,1.004,0.74,1.51,1.13c1.342,1.032,2.728,2.1,4.729,3.04c2.25,1.057,3.853,0.82,4.805,0.439
		c0.949-0.384,1.702-1.1,2.013-1.916C277.96,166.992,278.096,165.586,277.395,164.494z M276.395,167.487
		c-0.136,0.359-0.557,0.883-1.293,1.18c-0.71,0.288-1.945,0.452-3.775-0.409c-1.875-0.881-3.206-1.905-4.492-2.896
		c-1.067-0.821-2.075-1.597-3.348-2.283c-0.237-0.129-0.533-0.094-0.736,0.088c-0.202,0.181-0.267,0.471-0.163,0.722l0.764,1.853
		c-1.11-0.633-2.628-1.765-3.623-3.584c-0.141-0.258-0.436-0.387-0.723-0.314c-0.284,0.073-0.483,0.329-0.483,0.623
		c0,0.011-0.011,0.906-0.741,1.603c-0.221-1.712-1.16-4.011-3.739-4.922c-0.212-0.077-0.443-0.034-0.616,0.104
		c-0.173,0.139-0.263,0.358-0.237,0.578c0.016,0.133,0.324,2.998-2.107,4.238c0.066-1.2-0.038-3.14-1.142-4.537
		c-0.807-1.021-1.989-1.57-3.51-1.633c-0.165-0.019-0.34,0.055-0.465,0.172c-0.126,0.117-0.199,0.28-0.204,0.453
		c0,0.02-0.074,1.743-0.949,2.741c-0.303-0.453-0.784-0.987-1.47-1.245c-0.721-0.272-1.499-0.192-2.309,0.237
		c-1.183,0.628-1.887,1.772-1.93,3.136c-0.045,1.445,0.67,2.837,1.824,3.547c0.264,0.16,0.608,0.111,0.817-0.122
		c0.085-0.095,1.918-2.1,4.31-1.26c-0.547,0.574-1.215,1.463-1.356,2.497c-0.111,0.8,0.101,1.549,0.627,2.229
		c0.123,0.16,0.267,0.238,0.52,0.248c0.202-0.003,0.392-0.104,0.51-0.269c0.009-0.011,0.706-0.969,1.739-1.357
		c-0.004,0.547,0.092,1.248,0.485,1.888c0.476,0.776,1.261,1.284,2.333,1.51c2.08,0.434,5.303,0.05,8.712-0.355
		c4.08-0.485,8.298-0.989,10.609-0.103c1.855,0.71,4.189,2.395,4.661,4.806c0.454,2.312-0.825,4.899-3.8,7.69
		c-0.249,0.233-0.272,0.621-0.053,0.882c0.042,0.051,4.281,5.19,2.933,11.663c-0.487,2.34-1.277,4.726-2.041,7.032
		c-1.507,4.553-2.808,8.484-1.463,10.967c1.524,2.814,3.005,3.009,3.89,3.126c0.172,0.022,0.387,0.051,0.425,0.069
		c0.127,0.259-0.326,1.62-2.31,2.882c-1.083,0.689-1.767,1.724-1.978,2.993c-0.229,1.378,0.149,2.928,0.963,3.947
		c0.622,0.776,0.736,1.964,0.417,2.428c-0.063,0.09-0.253,0.362-1.007,0.126c-1.151-0.364-1.713-0.957-1.714-0.959
		c-0.136-0.149-0.331-0.221-0.536-0.21c-0.202,0.019-0.383,0.131-0.488,0.302c-0.005,0.007-0.453,0.702-1.19,0.805
		c-0.551,0.075-1.165-0.192-1.828-0.798c-0.224-0.205-0.559-0.223-0.807-0.049c-0.399,0.283-1.723,1.028-2.532,0.775
		c-0.116-0.038-0.471-0.151-0.698-0.819c-0.059-0.171-0.188-0.31-0.355-0.381c-0.167-0.071-0.355-0.07-0.52,0.006
		c-0.781,0.355-1.761,0.577-1.949,0.492c0,0-0.031-0.097,0.049-0.371c0.444-1.532,2.253-1.899,3.45-2.142
		c0.22-0.045,0.419-0.085,0.586-0.127c0.132-0.032,0.283-0.063,0.445-0.094c1.179-0.234,3.631-0.722,3.323-3.806
		c-0.066-0.648-0.047-1.246-0.03-1.825c0.056-1.899,0.109-3.693-2.876-5.841c-1.101-0.793-2.162-1.505-3.181-2.189
		c-2.322-1.559-4.327-2.904-6.163-4.74c-3.791-3.793-8.306-4.904-13.426-3.301c-3.029,0.949-5.549,2.098-7.987,3.21
		c-2.452,1.119-4.802,2.161-7.376,2.873c2.032-3.863,3.145-8.985,2.916-11.454c-0.034-0.353-0.356-0.616-0.699-0.581
		c-0.353,0.034-0.613,0.346-0.581,0.699c0.263,2.82-1.488,9.743-4.35,13.163c-1.673,2-2.134,4.263-1.175,5.765
		c0.596,0.931,1.607,1.377,2.88,1.389c-0.696,1.096-2.136,2.749-4.712,3.34c-0.172,0.04-0.321,0.149-0.411,0.302
		c-0.09,0.152-0.112,0.335-0.062,0.505c0.011,0.038,1.074,3.758-0.765,5.326c-0.046,0.027-1.158,0.59-3.277-0.38
		c-0.24-0.109-0.525-0.061-0.715,0.123c-0.011,0.009-1.052,0.984-2.148,0.918c-0.6-0.014-1.139-0.283-1.647-0.826
		c-0.234-0.25-0.623-0.27-0.885-0.05c-0.076,0.066-1.895,1.576-3.246,0.063c-0.198-0.222-0.519-0.278-0.778-0.142
		c-0.516,0.269-1.468,0.567-1.873,0.348c-0.054-0.029-0.217-0.117-0.259-0.555c-0.09-0.928,0.236-1.837,0.871-2.429
		c0.626-0.584,1.497-0.82,2.453-0.659c3.368,0.562,6.995-0.177,7.521-3.09c0.386-2.143-0.502-4.69-1.359-7.154
		c-0.646-1.853-1.313-3.77-1.343-5.322c-0.06-3.172,0.619-6.168,0.626-6.198c0.08-0.345-0.136-0.69-0.482-0.77
		c-0.346-0.084-0.69,0.135-0.77,0.481c-0.03,0.128-0.723,3.174-0.659,6.511c0.013,0.657,0.138,1.356,0.301,2.067
		c-4.876-1.802-8.131-4.605-9.643-8.364c-1.772-4.406-0.767-9.131,0.632-11.84c2.003-3.876,4.725-6.09,6.912-7.871
		c1.028-0.836,1.948-1.589,2.605-2.376c-0.069,1.068-0.978,3.217-1.97,4.938c-0.132,0.229-0.111,0.516,0.055,0.722
		c0.165,0.207,0.442,0.29,0.693,0.212c0.552-0.172,1.549-0.659,2.281-1.032l0.206,3.244c0.015,0.24,0.164,0.452,0.385,0.548
		c0.222,0.097,0.478,0.061,0.663-0.093c0.866-0.71,1.684-1.658,2.25-2.374l0.639,2.018c0.061,0.194,0.212,0.348,0.405,0.414
		c0.194,0.066,0.406,0.037,0.573-0.08c0.915-0.633,1.81-1.648,2.368-2.345l1.22,1.944c0.123,0.198,0.345,0.325,0.576,0.3
		c0.232-0.011,0.44-0.146,0.544-0.355l1.423-2.847l1.2,3.264c0.067,0.182,0.213,0.324,0.396,0.387
		c0.067,0.024,0.137,0.034,0.207,0.034c0.12,0,0.239-0.034,0.343-0.098l3.146-1.984c1.662,0.924,4.067,1.308,4.175,1.326
		c0.194,0.026,0.395-0.031,0.54-0.167c0.145-0.136,0.218-0.331,0.2-0.529l-0.256-2.68l2.785-0.042
		c0.321-0.005,0.588-0.246,0.628-0.564c0.039-0.319-0.162-0.617-0.472-0.699c-0.304-0.081-1.001-0.733-1.596-1.4
		c0.076-0.005,0.11-0.009,0.146-0.011c1.602,0.122,28.79,2.123,34.753-2.213c3.316-2.411,3.084-4.603,2.65-5.695
		c-0.895-2.255-4.148-3.693-7.393-3.279c-1.29,0.165-2.678,0.412-4.115,0.67c-4.069,0.729-8.682,1.555-12.464,0.628
		c-1.475-0.361-2.739-0.84-3.855-1.262c-1.888-0.715-3.254-1.232-4.3-0.607c-0.434,0.259-0.748,0.682-0.958,1.3
		c-0.671-0.749-1.416-2.116-0.433-3.967c0.13-0.244,0.088-0.543-0.101-0.744c-0.038-0.04-3.766-4.036-2.011-8.422
		c1.576-3.939,7.776-6.162,14.744-5.277c5.995,0.758,12.277,5.363,16.435,8.409c2.617,1.918,4.027,2.924,4.98,3.049
		c0.191,0.028,0.379-0.038,0.52-0.168c0.14-0.13,0.215-0.316,0.205-0.507c-0.001-0.009-0.04-0.867,0.442-1.343
		c0.263-0.26,0.647-0.375,1.177-0.335c0.623,0.041,1.074,0.272,1.341,0.687C276.729,165.834,276.654,166.809,276.395,167.487z
		 M256.196,229.613c-0.623,0.214-1.322,0.071-2.086-0.43c-0.24-0.157-0.557-0.135-0.773,0.052c-0.077,0.067-1.914,1.618-3.673,0.199
		c-0.24-0.193-0.588-0.187-0.824,0.015c-0.191,0.164-1.918,1.555-3.638-0.055c-0.203-0.189-0.503-0.227-0.745-0.096
		c-0.875,0.472-2.096,0.858-2.423,0.66c-0.054-0.032-0.056-0.204-0.056-0.238c0-0.681,0.416-1.189,0.765-1.494
		c0.812-0.709,2.1-1.086,3.219-0.939c2.434,0.325,4.208-1.344,4.53-2.097c0.284-0.664,0.754-6.936-1.49-10.184
		c-0.455-0.659-0.956-1.291-1.459-1.923c-1.706-2.146-3.304-4.186-3.015-7.287c3.118-0.066,5.942,1.127,8.417,3.603
		c1.296,1.296,2.7,2.369,4.171,3.401c-0.57,0.586-1.49,1.692-1.559,2.818c-0.034,0.554,0.142,1.061,0.506,1.467
		c0.932,1.035,1.999,0.987,2.704,0.952c0.122-0.007,0.284-0.016,0.404-0.007c-0.18,0.436-0.846,1.346-1.307,1.974
		c-1.274,1.738-2.099,2.948-1.959,3.885c0.096,0.639,0.348,1.603,0.591,2.535c0.232,0.888,0.582,2.232,0.566,2.491
		C257.029,229.015,256.74,229.424,256.196,229.613z M258.901,220.763c1.235-1.685,1.862-2.598,1.499-3.324
		c-0.373-0.746-1.134-0.714-1.692-0.685c-0.598,0.028-1.165,0.054-1.689-0.529c-0.136-0.151-0.192-0.314-0.179-0.526
		c0.045-0.734,0.873-1.687,1.35-2.154c0.369,0.25,0.736,0.5,1.112,0.753c1.009,0.677,2.058,1.381,3.146,2.165
		c2.431,1.75,2.395,2.948,2.343,4.761c-0.018,0.591-0.038,1.26,0.036,1.991c0.178,1.784-0.84,2.128-2.295,2.417
		c-0.184,0.037-0.356,0.071-0.507,0.109c-0.151,0.038-0.331,0.074-0.53,0.115c-0.928,0.188-2.412,0.506-3.444,1.468
		c-0.085-0.348-0.189-0.751-0.312-1.222c-0.234-0.9-0.477-1.831-0.563-2.402C257.105,223.215,258.274,221.621,258.901,220.763z
		 M193.802,208.775c-0.267,0.028-0.51,0.136-0.731,0.328c-0.38-0.424-0.888-1.247-0.888-2.622c0-2.043-0.578-3.058-0.945-3.501
		c0.092-0.132,0.18-0.265,0.246-0.411c0.286-0.634,0.205-1.294-0.242-1.969c0.208-0.436,0.352-1.032,0.173-1.634
		c0.26-0.442,0.462-1.131,0.254-1.974c0.161-0.211,0.359-0.524,0.509-0.917c2.953,3.264,6.479,6.057,6.717,6.244
		c0.167,0.822,0.38,1.647,0.708,2.463c1.003,2.495,2.703,4.59,5.038,6.294c-1.094,1.486-3.142,3.417-5.677,1.725
		c-1.176-0.784-2.063-1.717-2.775-2.466C195.278,209.378,194.612,208.684,193.802,208.775z M188.426,214.437
		c0.132,0.152,0.323,0.228,0.531,0.217c0.201-0.015,0.384-0.123,0.492-0.293c0.07-0.107,0.404-0.525,0.776-0.6
		c0.107-0.024,0.281-0.032,0.534,0.14c0.168,0.116,0.263,0.501,0.121,0.921c-0.254,0.754-1.056,1.169-2.154,1.12
		c-0.272-0.022-0.527,0.149-0.628,0.404c-0.101,0.255-0.029,0.547,0.179,0.725l1.048,0.898l-1.71,0.416
		c-0.227,0.055-0.406,0.229-0.468,0.454c-0.003,0.011-0.258,0.922-0.769,1.691c-0.511-0.769-0.767-1.68-0.77-1.691
		c-0.062-0.225-0.241-0.399-0.468-0.454l-1.71-0.416l1.047-0.898c0.208-0.179,0.28-0.47,0.179-0.725
		c-0.102-0.255-0.376-0.429-0.628-0.404c-1.112,0.052-1.9-0.366-2.153-1.119c-0.142-0.421-0.047-0.806,0.121-0.922
		c0.248-0.17,0.421-0.161,0.53-0.141c0.36,0.07,0.687,0.46,0.78,0.601c0.109,0.17,0.292,0.279,0.492,0.293
		c0.192,0.009,0.398-0.067,0.531-0.217c1.63-1.862,0.934-3.956,0.131-5.131c0.615-0.768,1.244-1.998,1.389-2.288
		c0.111-0.22,0.047-0.476-0.104-0.672c-0.151-0.194-0.442-0.276-0.679-0.228c-0.365,0.077-1.476,0.31-2.114-0.182
		c-0.222-0.17-0.271-0.636-0.101-0.939c0.057-0.105,0.239-0.417,0.906-0.164c0.634,0.244,1.545,0.508,2.113-0.005
		c0.13-0.116,0.205-0.254,0.259-0.396c0.169,0.026,0.34,0.035,0.511,0.05c0.055,0.123,0.127,0.243,0.242,0.346
		c0.572,0.513,1.481,0.249,2.114,0.005c0.669-0.256,0.848,0.059,0.906,0.164c0.171,0.304,0.121,0.77-0.102,0.941
		c-0.638,0.493-1.748,0.258-2.194,0.165c-0.242-0.05-0.487,0.045-0.636,0.24c-0.149,0.195-0.174,0.457-0.065,0.677
		c0.145,0.289,0.774,1.519,1.389,2.288C187.493,210.481,186.797,212.575,188.426,214.437z M190.51,196.376
		c-0.189,0.178-0.253,0.451-0.161,0.694c0.316,0.844-0.083,1.312-0.121,1.354c-0.204,0.203-0.247,0.518-0.105,0.77
		c0.264,0.47-0.164,1.059-0.165,1.061c-0.184,0.242-0.175,0.578,0.022,0.809c0.505,0.59,0.387,0.851,0.33,0.977
		c-0.181,0.404-0.572,0.718-1.161,0.935c-0.601,0.222-1.302,0.288-1.986,0.268c-0.025,0.001-0.05-0.003-0.075,0.001
		c-0.811-0.032-1.59-0.196-2.131-0.45c-0.289-0.136-0.65-0.359-0.727-0.649c-0.07-0.262,0.111-0.526,0.111-0.526
		c0.105-0.141,0.149-0.318,0.121-0.491c-0.029-0.173-0.128-0.327-0.273-0.426c-0.335-0.227-0.361-0.422-0.37-0.485
		c-0.041-0.3,0.195-0.658,0.278-0.755c0.118-0.135,0.174-0.312,0.156-0.491c-0.019-0.178-0.111-0.34-0.254-0.447
		c-0.196-0.147-0.523-0.434-0.519-0.711c0.004-0.284,0.33-0.576,0.44-0.652c0.171-0.116,0.259-0.319,0.265-0.525
		c0.006-0.207-0.104-0.415-0.268-0.54c-0.167-0.128-0.326-0.752-0.251-0.967c0.778,0.15,1.623,0.242,2.547,0.25
		c0.047,0,0.095,0.001,0.143,0.001c1.742,0,3.266-0.314,4.509-0.842c0.077,0.096,0.156,0.193,0.234,0.289
		C191.115,195.748,190.533,196.353,190.51,196.376z M186.227,194.095c-3.476-0.032-5.779-1.148-6.159-2.987
		c-0.113-0.547-0.014-0.976,0.301-1.314c0.392-0.42,1.118-0.666,1.9-0.666c0.168,0,0.339,0.011,0.51,0.035
		c0.181,0.024,0.211,0.082,0.222,0.103c0.135,0.253-0.041,0.98-0.283,1.475c-0.154,0.314-0.028,0.694,0.282,0.855
		c2.291,1.182,5.605,0.663,6.477,0.268c0.105-0.047,0.422-0.191,0.509-0.538c0.069-0.273-0.022-0.511-0.111-0.742
		c-0.158-0.416-0.323-0.845,0.141-1.453c0.248-0.325,0.788-0.175,0.947-0.121c0.766,0.259,1.541,1.059,1.541,2.086
		c0,0.478-0.217,0.937-0.647,1.363C190.8,193.507,188.685,194.087,186.227,194.095z M188.589,190.811
		c-0.858,0.213-2.86,0.449-4.465-0.126c0.188-0.568,0.348-1.388,0.011-2.02c-0.015-0.027-0.039-0.057-0.056-0.085l-0.143-20.213
		c0.16-11.995,5.701-16.376,8.3-17.773c-1.164,3.631-3.463,13.885-3.373,37.99C188.282,189.5,188.418,190.31,188.589,190.811z
		 M206.106,179.927l-0.674,1.491c-0.31-0.327-0.699-0.855-1.017-1.658c-0.12-0.303-0.445-0.472-0.762-0.385l-2.394,0.633
		l0.548-1.339c0.085-0.209,0.055-0.447-0.08-0.628c-0.133-0.181-0.359-0.283-0.578-0.255l-2.906,0.29l1.078-2.93
		c1.283,0.375,4.458,1.232,7.719,1.571l-0.475,0.592c-0.171,0.214-0.188,0.512-0.044,0.744c0.146,0.232,0.422,0.346,0.689,0.284
		c0.034-0.007,3.484-0.789,5.833-0.454c0.266,0.032,0.526-0.094,0.655-0.328c0.129-0.235,0.098-0.526-0.077-0.728
		c-1.371-1.586-5.057-6.013-5.639-7.427c-0.11-0.267-0.385-0.418-0.669-0.394c-0.286,0.034-0.515,0.254-0.559,0.538l-0.322,2.056
		c-0.491-0.325-1.144-0.858-1.692-1.645c-0.157-0.226-0.439-0.328-0.704-0.25c-0.264,0.076-0.451,0.31-0.465,0.585
		c-0.003,0.063-0.014,0.312,0.001,0.651c-1.654-1.472-4.31-4.157-5.173-6.881c-0.481-1.519-0.443-2.641,0.109-3.248
		c0.482-0.53,1.291-0.587,1.715-0.498c0.45,0.096,0.879,0.415,1.147,0.852c0.262,0.429,0.341,0.907,0.223,1.352
		c-0.053,0.198-0.009,0.41,0.122,0.569c0.129,0.16,0.331,0.252,0.531,0.237c1.62-0.08,9.765-0.617,11.082-3.285
		c0.184-0.373,0.312-0.925,0.04-1.601c0.862-0.492,2.991-1.221,5.748,1.243c0.225,0.202,0.562,0.217,0.809,0.038
		c0.635-0.467,1.59-1.589,1.472-2.954c0.961,0.121,2.613,0.607,3.759,2.454c0.105,0.169,0.282,0.279,0.48,0.3
		c0.196,0.019,0.392-0.051,0.53-0.194c0.051-0.053,1.094-1.151,1.524-2.508c0.767,0.179,2.288,0.756,3.774,2.623
		c0.111,0.14,0.275,0.227,0.453,0.241c0.063,0.001,0.881,0.05,1.937-0.259c-3.245,2.614-8.518,3.149-8.587,3.155
		c-0.237,0.022-0.442,0.173-0.534,0.392c-0.091,0.219-0.055,0.472,0.096,0.655l0.915,1.116c-3.63,0.067-5.229-1.246-5.243-1.258
		c-0.235-0.204-0.581-0.209-0.824-0.018c-0.243,0.195-0.311,0.535-0.163,0.808l0.795,1.469c-1.427-0.299-2.736-0.964-3.834-1.524
		c-1.383-0.704-2.476-1.258-3.435-0.974c-0.716,0.214-1.238,0.861-1.363,1.688c-0.135,0.901,0.233,1.762,0.959,2.246
		c0.37,0.247,0.792,0.368,1.216,0.368c0.599,0,1.204-0.24,1.68-0.704c0.388-0.379,0.622-0.84,0.69-1.312
		c1.447,0.733,3.209,1.562,5.221,1.648c0.226,0.028,0.45-0.105,0.572-0.301c0.123-0.196,0.131-0.443,0.02-0.647l-0.42-0.775
		c1.214,0.409,3.017,0.736,5.487,0.49c0.236-0.024,0.439-0.174,0.53-0.393c0.09-0.219,0.053-0.47-0.097-0.653l-0.984-1.2
		c2.017-0.336,6.156-1.31,8.768-3.842c-0.43,1.184-1.13,2.405-2.284,3.073c-0.161,0.094-0.273,0.255-0.308,0.439
		c-0.034,0.184,0.014,0.376,0.131,0.522c0.022,0.028,2.101,2.741,1.453,9.832c-1.189-0.611-3.474-2.063-4.767-4.684
		c-0.137-0.278-0.449-0.416-0.755-0.333c-0.299,0.086-0.492,0.374-0.461,0.684c0.086,0.833,0.156,2.164,0.08,3.101
		c-0.694-0.498-1.667-1.311-2.068-2.2c-0.113-0.252-0.374-0.409-0.648-0.375c-0.274,0.027-0.5,0.225-0.563,0.493
		c-0.162,0.699-0.379,1.51-0.555,2.06c-0.64-0.401-1.489-1.034-1.842-1.685c-0.136-0.252-0.422-0.384-0.705-0.321
		c-0.28,0.062-0.484,0.304-0.501,0.591c-0.042,0.744-0.14,1.891-0.265,2.684c-0.591-0.362-1.422-0.908-2.036-1.464
		c-0.167-0.151-0.4-0.207-0.614-0.14c-0.215,0.064-0.381,0.235-0.439,0.453l-0.33,1.252c-0.552-0.321-1.318-0.831-1.818-1.443
		c-0.224-0.275-0.63-0.315-0.903-0.09c-0.275,0.224-0.315,0.629-0.09,0.903c1.047,1.279,2.884,2.124,2.962,2.159
		c0.173,0.077,0.369,0.076,0.541-0.004c0.171-0.081,0.298-0.234,0.346-0.417l0.282-1.072c1.042,0.775,2.157,1.387,2.215,1.419
		c0.161,0.087,0.352,0.101,0.526,0.041c0.173-0.063,0.311-0.196,0.379-0.366c0.188-0.471,0.321-1.437,0.406-2.293
		c0.878,0.763,1.862,1.261,1.924,1.291c0.301,0.15,0.664,0.044,0.839-0.244c0.181-0.304,0.397-0.984,0.577-1.631
		c1.04,1.172,2.439,1.975,2.517,2.02c0.161,0.091,0.358,0.107,0.535,0.046c0.177-0.064,0.316-0.201,0.383-0.377
		c0.194-0.51,0.258-1.315,0.264-2.107c1.224,1.495,2.64,2.447,3.641,2.999c0,0.016-0.007,0.029-0.006,0.046
		c0.007,0.113,0.147,2.264,0.516,3.979c-1.078-0.399-2.812-1.213-4.414-2.721c-0.154-0.146-0.371-0.204-0.577-0.16
		c-0.208,0.045-0.379,0.189-0.459,0.386l-0.495,1.221l-2.066-1.499c-0.182-0.132-0.422-0.16-0.632-0.07
		c-0.208,0.09-0.354,0.282-0.383,0.507l-0.187,1.433c-0.449-0.325-0.988-0.755-1.373-1.188c-0.237-0.267-0.645-0.289-0.907-0.054
		c-0.265,0.236-0.289,0.642-0.054,0.907c0.91,1.024,2.438,1.957,2.502,1.996c0.187,0.115,0.416,0.123,0.612,0.03
		c0.197-0.094,0.331-0.28,0.36-0.496l0.181-1.391l1.857,1.347c0.159,0.115,0.364,0.15,0.554,0.097
		c0.191-0.055,0.345-0.193,0.419-0.376l0.462-1.143c1.189,0.978,2.371,1.619,3.333,2.043c0.005,0.4,0.067,2.102,0.786,3.444
		c-1.177-0.031-3.022-0.237-4.73-1.092c-0.289-0.147-0.647-0.051-0.826,0.225l-0.931,1.434l-3.849-2.582
		c-0.164-0.111-0.37-0.142-0.557-0.077c-0.188,0.06-0.337,0.204-0.405,0.389l-0.592,1.611c-0.708-0.795-1.724-1.914-2.098-2.213
		c-0.262-0.211-0.643-0.181-0.872,0.066c-0.011,0.011-0.91,0.974-1.986,1.723l-0.742-1.992c-0.123-0.331-0.495-0.502-0.827-0.378
		c-0.333,0.123-0.502,0.495-0.378,0.827l1.018,2.731c0.066,0.176,0.204,0.314,0.38,0.378c0.175,0.065,0.37,0.05,0.535-0.041
		c1.007-0.559,1.948-1.393,2.484-1.91c0.596,0.615,1.597,1.736,2.235,2.467c0.15,0.171,0.377,0.253,0.601,0.209
		c0.223-0.041,0.408-0.197,0.487-0.41l0.682-1.857l3.711,2.49c0.107,0.071,0.232,0.109,0.358,0.109c0.042,0,0.086-0.004,0.129-0.014
		c0.169-0.034,0.317-0.135,0.41-0.279l0.981-1.514c1.65,0.712,3.299,0.923,4.483,0.973c-0.007,0.153,0.035,0.309,0.14,0.436
		c0.157,0.192,0.476,0.569,0.862,0.962l-1.607,0.024c-0.179,0.003-0.349,0.08-0.468,0.214c-0.12,0.133-0.178,0.31-0.161,0.49
		l0.24,2.515c-0.887-0.199-2.294-0.586-3.21-1.186c-0.213-0.139-0.482-0.142-0.695-0.007l-2.808,1.772l-1.439-3.913
		c-0.088-0.241-0.311-0.406-0.567-0.42c-0.279-0.02-0.496,0.125-0.611,0.355l-1.577,3.153l-1.105-1.762
		c-0.115-0.182-0.313-0.295-0.528-0.301c-0.214,0.003-0.417,0.097-0.542,0.273c-0.011,0.016-0.906,1.279-1.931,2.223l-0.733-2.315
		c-0.075-0.234-0.275-0.406-0.519-0.442c-0.245-0.032-0.485,0.07-0.624,0.273c-0.01,0.015-0.802,1.165-1.806,2.225l-0.181-2.866
		c-0.014-0.217-0.137-0.414-0.329-0.52c-0.191-0.107-0.424-0.109-0.616-0.005c-0.276,0.148-0.787,0.416-1.322,0.68
		c0.756-1.569,1.614-3.774,1.126-4.91c-0.145-0.339-0.419-0.564-0.746-0.703c-0.02-0.014-0.034-0.035-0.056-0.047
		c-0.03-0.016-0.062-0.017-0.093-0.028c-0.022-0.006-0.036-0.024-0.059-0.029c-0.026-0.006-0.045-0.004-0.07-0.009
		c-0.013-0.001-0.026-0.004-0.039-0.005c-0.871-0.181-1.465,0.062-1.808,0.312c-0.35,0.256-0.582,0.596-0.733,0.924
		c-0.399-0.386-0.882-0.961-1.193-1.702c-0.098-0.236-0.328-0.391-0.583-0.394C206.444,179.532,206.213,179.694,206.106,179.927z
		 M201.22,172.757c3.473,1.674,7.742,1.859,8.909,1.881c0.558,0.694,1.103,1.356,1.54,1.876c-1.067,0.004-2.156,0.125-3.021,0.254
		l0.152-0.189c0.151-0.188,0.183-0.443,0.086-0.663c-0.097-0.219-0.31-0.366-0.548-0.381c-4.362-0.259-9.166-1.775-9.214-1.792
		c-0.002,0-0.004,0-0.006,0c0,0-0.002-0.001-0.004-0.002c-0.716-0.216-1.133-0.584-1.175-1.035
		c-0.032-0.356,0.165-0.645,0.284-0.707C198.918,171.64,200.376,172.347,201.22,172.757z M207.291,173.119
		c0.139-0.1,0.241-0.243,0.268-0.414l0.188-1.205c0.385,0.56,0.852,1.18,1.333,1.805
		C208.583,173.272,207.972,173.213,207.291,173.119z M206.159,172.937c-0.313-0.058-0.636-0.126-0.962-0.201
		c0.029-0.138,0.012-0.285-0.054-0.417c-0.019-0.037-0.035-0.076-0.052-0.115C205.498,172.537,205.874,172.776,206.159,172.937z
		 M214.633,165.923c-0.292,0.288-0.805,0.506-1.284,0.188c-0.368-0.245-0.447-0.67-0.401-0.987c0.038-0.247,0.179-0.564,0.46-0.648
		c0.054-0.016,0.115-0.024,0.181-0.024c0.308,0,0.748,0.161,1.25,0.391l0.001,0.001
		C215.167,165.361,214.726,165.833,214.633,165.923z M239.064,175.541c0.184,0.117,0.416,0.132,0.617,0.039
		c0.198-0.093,0.335-0.282,0.364-0.499c0.107-0.808,0.304-1.304,0.588-1.474c0.512-0.307,1.752,0.163,3.186,0.706
		c1.093,0.414,2.453,0.928,4.003,1.308c4.045,0.991,8.801,0.14,12.995-0.612c1.417-0.254,2.783-0.498,4.052-0.66
		c2.654-0.338,5.359,0.773,6.037,2.479c0.511,1.287-0.274,2.773-2.212,4.182c-5.372,3.906-31.093,2.171-33.716,1.984
		c-0.698-0.664-0.971-2.024-1.052-2.92c0.424,0.135,0.708,0.203,0.745,0.211c0.044,0.01,0.088,0.014,0.132,0.014
		c0.184,0,0.362-0.08,0.486-0.222c0.152-0.178,0.198-0.422,0.117-0.642c-0.401-1.094-0.621-3.114-0.713-4.148
		c0.17,0.047,0.349,0.03,0.5-0.064c0.167-0.103,0.278-0.277,0.301-0.472c0.76-6.455-0.566-9.821-1.26-11.081
		c0.169-0.129,0.326-0.268,0.477-0.413c0.047,3.051,1.816,5.504,2.54,6.38C235.959,172.564,237.835,174.762,239.064,175.541z"/>
	<path fill="#FFD250" d="M174.615,142.457c-0.249-5.176-1.478-13.548-5.406-13.739c-2.214-0.102-3.304,1.261-3.35,1.319
		c-0.13,0.168-0.342,0.263-0.548,0.252l-1.501-0.09l0.269,0.995c0.065,0.24-0.017,0.498-0.207,0.659
		c-0.091,0.077-2.214,1.92-0.922,4.268c0.984,1.789,4.164,2.635,6.485,3.253c1.037,0.276,1.933,0.515,2.514,0.799
		C172.985,140.678,173.893,141.533,174.615,142.457z"/>
	<path fill="#464655" d="M169.271,127.434c-2.259-0.111-3.665,1.015-4.193,1.553l-2.082-0.125c-0.198-0.016-0.406,0.076-0.537,0.236
		c-0.131,0.16-0.177,0.373-0.123,0.573l0.4,1.483c-1.021,1.042-2.221,3.205-0.913,5.584c1.248,2.271,4.736,3.198,7.281,3.876
		c0.972,0.258,1.812,0.482,2.281,0.711c1.505,0.736,2.714,2.41,3.343,3.732c0.108,0.227,0.336,0.366,0.58,0.366
		c0.046,0,0.092-0.005,0.139-0.015c0.292-0.065,0.5-0.322,0.503-0.621C175.957,144.093,176.039,127.764,169.271,127.434z
		 M169.434,139.372c-2.322-0.617-5.501-1.464-6.485-3.253c-1.292-2.347,0.831-4.19,0.922-4.268c0.189-0.161,0.271-0.418,0.207-0.659
		l-0.269-0.995l1.501,0.09c0.207,0.011,0.419-0.084,0.548-0.252c0.045-0.059,1.136-1.422,3.35-1.319
		c3.928,0.192,5.157,8.563,5.406,13.739c-0.722-0.924-1.63-1.779-2.666-2.285C171.368,139.886,170.471,139.648,169.434,139.372z"/>
	<path fill="#FFD250" d="M282.017,142.457c0.249-5.176,1.478-13.548,5.406-13.739c2.214-0.102,3.304,1.261,3.35,1.319
		c0.13,0.168,0.342,0.263,0.548,0.252l1.501-0.09l-0.269,0.995c-0.065,0.24,0.017,0.498,0.207,0.659
		c0.091,0.077,2.214,1.92,0.922,4.268c-0.984,1.789-4.164,2.635-6.485,3.253c-1.037,0.276-1.933,0.515-2.514,0.799
		C283.647,140.678,282.739,141.533,282.017,142.457z"/>
	<path fill="#464655" d="M280.682,144.788c0.003,0.299,0.212,0.557,0.503,0.621c0.047,0.01,0.093,0.015,0.139,0.015
		c0.244,0,0.472-0.139,0.58-0.366c0.629-1.322,1.838-2.996,3.343-3.732c0.47-0.229,1.308-0.453,2.281-0.711
		c2.546-0.678,6.033-1.605,7.281-3.876c1.308-2.379,0.108-4.542-0.913-5.584l0.4-1.483c0.054-0.2,0.007-0.414-0.123-0.573
		c-0.131-0.16-0.339-0.252-0.537-0.236l-2.082,0.125c-0.529-0.537-1.935-1.663-4.193-1.553
		C280.593,127.764,280.676,144.093,280.682,144.788z M284.684,140.17c-1.037,0.507-1.944,1.362-2.666,2.285
		c0.249-5.176,1.478-13.548,5.406-13.739c2.214-0.102,3.304,1.261,3.35,1.319c0.13,0.168,0.342,0.263,0.548,0.252l1.501-0.09
		l-0.269,0.995c-0.065,0.24,0.017,0.498,0.207,0.659c0.091,0.077,2.214,1.92,0.922,4.268c-0.984,1.789-4.164,2.635-6.485,3.253
		C286.161,139.648,285.265,139.886,284.684,140.17z"/>
	<path fill="#FFD250" d="M282.017,238.146c0.249,5.176,1.478,13.548,5.406,13.739c2.214,0.102,3.304-1.261,3.35-1.32
		c0.13-0.168,0.342-0.263,0.548-0.252l1.501,0.09l-0.269-0.995c-0.065-0.24,0.017-0.498,0.207-0.659
		c0.091-0.077,2.214-1.92,0.922-4.268c-0.984-1.789-4.164-2.635-6.485-3.253c-1.037-0.276-1.933-0.515-2.514-0.799
		C283.647,239.926,282.739,239.07,282.017,238.146z"/>
	<path fill="#464655" d="M287.362,253.169c2.259,0.111,3.664-1.015,4.193-1.553l2.082,0.125c0.198,0.016,0.406-0.076,0.537-0.236
		c0.131-0.16,0.177-0.373,0.123-0.573l-0.4-1.483c1.021-1.042,2.221-3.205,0.913-5.584c-1.248-2.271-4.736-3.198-7.281-3.876
		c-0.972-0.258-1.812-0.482-2.281-0.711c-1.505-0.736-2.714-2.41-3.343-3.732c-0.108-0.227-0.336-0.366-0.58-0.366
		c-0.046,0-0.092,0.005-0.139,0.015c-0.292,0.065-0.5,0.322-0.503,0.621C280.676,236.51,280.593,252.839,287.362,253.169z
		 M287.198,241.231c2.322,0.617,5.501,1.464,6.485,3.253c1.292,2.347-0.831,4.19-0.922,4.268c-0.189,0.161-0.271,0.418-0.207,0.659
		l0.269,0.995l-1.501-0.09c-0.207-0.011-0.419,0.084-0.548,0.252c-0.045,0.059-1.136,1.422-3.35,1.319
		c-3.928-0.192-5.157-8.563-5.406-13.739c0.722,0.924,1.63,1.779,2.666,2.285C285.265,240.717,286.161,240.956,287.198,241.231z"/>
	<path fill="#FFD250" d="M174.615,238.146c-0.249,5.176-1.478,13.548-5.406,13.739c-2.214,0.102-3.304-1.261-3.35-1.32
		c-0.13-0.168-0.342-0.263-0.548-0.252l-1.501,0.09l0.269-0.995c0.065-0.24-0.017-0.498-0.207-0.659
		c-0.091-0.077-2.214-1.92-0.922-4.268c0.984-1.789,4.164-2.635,6.485-3.253c1.037-0.276,1.933-0.515,2.514-0.799
		C172.985,239.926,173.893,239.07,174.615,238.146z"/>
	<path fill="#464655" d="M175.95,235.815c-0.003-0.299-0.212-0.557-0.503-0.621c-0.047-0.01-0.093-0.015-0.139-0.015
		c-0.244,0-0.472,0.139-0.58,0.366c-0.629,1.322-1.838,2.996-3.343,3.732c-0.47,0.229-1.308,0.453-2.281,0.711
		c-2.546,0.678-6.033,1.605-7.281,3.876c-1.308,2.379-0.108,4.542,0.913,5.584l-0.4,1.483c-0.054,0.2-0.007,0.414,0.123,0.573
		c0.131,0.16,0.339,0.252,0.537,0.236l2.082-0.125c0.529,0.537,1.935,1.663,4.193,1.553
		C176.039,252.839,175.957,236.51,175.95,235.815z M171.948,240.433c1.037-0.507,1.944-1.362,2.666-2.285
		c-0.249,5.176-1.478,13.548-5.406,13.739c-2.214,0.102-3.304-1.261-3.35-1.319c-0.13-0.168-0.342-0.263-0.548-0.252l-1.501,0.09
		l0.269-0.995c0.065-0.24-0.017-0.498-0.207-0.659c-0.091-0.077-2.214-1.92-0.922-4.268c0.984-1.789,4.164-2.635,6.485-3.253
		C170.471,240.956,171.368,240.717,171.948,240.433z"/>
</g>
</svg>
